<svg width="511" height="78" viewBox="0 0 511 78" fill="none" xmlns="http://www.w3.org/2000/svg">
<g clip-path="url(#clip0_1_2)">
<path d="M501.292 43.481C506.24 43.481 510.251 39.4699 510.251 34.522C510.251 29.5741 506.24 25.563 501.292 25.563C496.344 25.563 492.333 29.5741 492.333 34.522C492.333 39.4699 496.344 43.481 501.292 43.481Z" fill="#FFCC00"/>
<path d="M501.292 77.683C506.24 77.683 510.251 73.6719 510.251 68.724C510.251 63.7761 506.24 59.765 501.292 59.765C496.344 59.765 492.333 63.7761 492.333 68.724C492.333 73.6719 496.344 77.683 501.292 77.683Z" fill="#FFCC00"/>
<path d="M317.083 0.795C316.188 0.475 315.257 0.262 314.342 0C314.098 0 313.856 0 313.612 0C313.158 0.13 312.711 0.304 312.248 0.383C307.933 1.118 304.985 4.769 305.179 9.161C305.376 13.654 308.578 16.84 313.382 17.326C317.529 17.744 321.518 14.764 322.461 10.544C323.388 6.388 321.112 2.237 317.083 0.795Z" fill="white"/>
<path d="M119.96 30.58C116.217 27.876 112.536 26.284 108.426 25.769C104.244 25.245 100.197 25.724 96.278 27.283C92.41 28.821 89.191 31.248 86.571 34.458C78.835 43.936 78.578 58.211 85.934 67.969C89.354 72.506 93.866 75.463 99.322 76.867C106.633 78.748 113.503 77.763 119.798 72.858C119.885 74.303 119.952 75.412 120.021 76.546C124.286 76.546 128.385 76.546 132.568 76.546C132.568 59.883 132.568 43.347 132.568 26.757C128.316 26.757 124.213 26.757 119.961 26.757C119.96 27.929 119.96 29.002 119.96 30.58ZM117.839 61.058C112.276 66.629 103.037 66.861 97.805 61.526C92.435 56.048 92.73 46.49 98.452 41.176C104.584 35.482 114.495 37.742 119.081 43.823C119.404 44.251 119.436 44.965 119.448 45.549C119.49 47.614 119.465 49.681 119.465 51.748C119.465 53.51 119.356 55.282 119.497 57.033C119.633 58.719 118.973 59.922 117.839 61.058Z" fill="white"/>
<path d="M454.997 25.563C439.996 25.521 428.149 37.108 428.229 51.745C428.311 66.39 439.87 77.681 454.784 77.684C469.982 77.689 481.647 66.4 481.651 51.685C481.655 37.081 469.945 25.605 454.997 25.563ZM454.948 65.366C447.337 65.367 441.652 59.541 441.642 51.729C441.632 43.859 447.393 37.911 455.017 37.919C462.499 37.927 468.252 43.926 468.237 51.704C468.22 59.531 462.545 65.366 454.948 65.366Z" fill="white"/>
<path d="M265.934 27.819C257.324 31.904 253.069 39.249 252.064 48.46C251.193 56.45 252.87 63.898 258.64 69.858C265.686 77.135 274.476 78.875 284.118 77.072C289.82 76.006 294.709 73.318 298.327 69.155C295.756 66.559 293.264 64.043 290.771 61.527C285.308 66.499 279.076 68.794 271.773 65.321C267.619 63.346 264.784 58.743 265.156 55.026C276.557 55.026 287.969 55.026 299.622 55.026C299.724 53.603 299.925 52.397 299.868 51.203C299.775 49.268 299.656 47.314 299.3 45.414C296.343 29.619 280.209 21.047 265.934 27.819ZM265.688 45.143C265.844 40.463 270.911 36.38 276.451 36.421C281.427 36.457 285.88 40.479 285.978 45.143C279.214 45.143 272.452 45.143 265.688 45.143Z" fill="white"/>
<path d="M378.019 35.702C371.206 25.291 357.057 22.404 346.709 29.313C346.197 29.654 345.676 29.98 344.876 30.496C344.876 28.997 344.876 27.921 344.876 26.754C340.57 26.754 336.406 26.754 332.129 26.754C332.129 43.381 332.129 59.935 332.129 76.502C336.6 76.502 340.933 76.502 345.409 76.502C345.409 75.609 345.409 74.888 345.409 74.165C345.409 65.473 345.649 56.77 345.301 48.092C345.143 44.154 346.858 41.949 349.874 40.243C351.183 39.502 352.586 38.845 354.027 38.435C360.697 36.539 366.453 39.576 367.828 45.698C368.143 47.106 368.249 48.587 368.256 50.036C368.296 58.12 368.276 66.205 368.276 74.289C368.276 75 368.276 75.712 368.276 76.667C372.586 76.667 376.533 76.649 380.48 76.679C381.47 76.686 381.709 76.22 381.699 75.334C381.589 65.613 381.61 55.889 381.349 46.172C381.25 42.452 380.102 38.883 378.019 35.702Z" fill="white"/>
<path d="M193.479 46.224C192.51 29.084 173.289 19.801 158.958 29.295C158.432 29.644 157.89 29.97 157.168 30.424C157.095 29.001 157.039 27.884 156.979 26.719C152.738 26.719 148.68 26.719 144.437 26.719C144.437 43.429 144.437 59.97 144.437 76.552C148.887 76.552 153.173 76.552 157.689 76.552C157.689 75.721 157.689 75.008 157.689 74.296C157.689 65.484 157.934 56.663 157.576 47.866C157.42 44.048 159.058 41.95 161.958 40.304C163.267 39.56 164.662 38.892 166.1 38.467C172.716 36.509 178.638 39.54 179.995 45.57C180.325 47.037 180.446 48.578 180.454 50.087C180.497 58.23 180.475 66.372 180.475 74.516C180.475 75.164 180.475 75.813 180.475 76.545C185.042 76.545 189.376 76.545 193.719 76.545C193.791 76.257 193.873 76.086 193.871 75.916C193.771 66.017 194.038 56.097 193.479 46.224Z" fill="white"/>
<path d="M26.396 21.726C26.906 17.022 29.862 14.287 34.599 14.175C36.221 14.136 37.844 14.169 39.73 14.169C40.346 10.772 41.012 7.102 41.695 3.339C35.547 1.349 27.57 2.178 22.215 5.146C13.697 9.865 12.742 17.985 12.741 26.679C8.36201 26.679 4.20401 26.679 0.00100708 26.679C0.00100708 30.514 0.00100708 34.126 0.00100708 37.957C4.26901 37.957 8.42701 37.957 12.775 37.957C12.775 38.893 12.775 39.608 12.775 40.324C12.775 48.892 12.775 57.461 12.775 66.03C12.775 69.068 12.737 72.108 12.814 75.144C12.826 75.652 13.325 76.577 13.616 76.583C17.726 76.679 21.84 76.647 26.223 76.647C26.223 63.65 26.223 50.871 26.223 37.849C31.556 37.849 36.619 37.849 41.617 37.849C41.617 33.987 41.617 30.373 41.617 26.655C37.897 26.655 34.317 26.655 30.736 26.655C30.412 26.655 30.112 26.655 29.83 26.653V26.655H26.174V24.801C26.144 24.086 26.246 23.104 26.396 21.726Z" fill="white"/>
<path d="M217.995 62.062C212.548 57.326 211.959 48.198 216.76 42.637C222.48 36.011 230.438 36.389 238.824 43.781C241.894 41.08 244.979 38.366 248.049 35.666C242.754 27.444 229.631 23.483 218.828 26.734C207.668 30.092 199.617 40.289 200.134 53.191C200.569 64.049 208.363 73.826 219.405 76.787C231.093 79.922 244.237 75.425 249.577 66.4C246.21 63.879 242.837 61.353 239.467 58.831C232.735 67.607 222.998 66.413 217.995 62.062Z" fill="white"/>
<path d="M60.954 31.35C60.872 29.608 60.806 28.197 60.739 26.765C56.441 26.765 52.338 26.765 48.139 26.765C48.139 43.379 48.139 59.883 48.139 76.672C51.971 76.672 55.614 76.6 59.251 76.705C60.873 76.753 61.435 76.349 61.418 74.604C61.327 65.366 61.36 56.125 61.4 46.886C61.404 46.02 61.518 44.973 62 44.32C64.929 40.346 68.785 37.945 73.864 37.933C75.361 37.93 76.859 38.099 78.488 38.196C78.991 34.111 79.485 30.112 79.994 25.982C72.798 24.838 66.468 26.116 60.954 31.35Z" fill="white"/>
<path d="M307.191 28.692C307.186 44.001 307.187 59.309 307.187 74.618C307.187 74.922 307.079 75.294 307.214 75.514C307.479 75.941 307.875 76.604 308.228 76.611C312.229 76.689 316.231 76.661 320.37 76.661C320.37 59.845 320.37 43.305 320.37 26.783C315.936 26.783 311.655 26.783 307.272 26.783C307.24 27.498 307.191 28.095 307.191 28.692Z" fill="white"/>
<path d="M411.699 26.655C411.705 22.934 411.263 19.392 413.916 16.684C417.043 13.491 421.073 13.993 425.125 14.494C425.804 10.724 426.465 7.045 427.154 3.212C422.889 2.194 418.905 1.874 414.924 2.641C407.215 4.125 401.32 7.962 399.275 15.986C398.635 18.494 398.523 21.148 398.384 23.771V26.638H397.3C397.117 26.672 396.911 26.689 396.655 26.68C396.053 26.657 395.451 26.645 394.848 26.638H394.274V26.637C392.758 26.631 391.242 26.656 389.726 26.656C388.293 26.656 386.86 26.656 385.389 26.656C385.389 30.539 385.389 34.154 385.389 37.92C389.095 37.92 392.674 37.997 396.248 37.885C396.613 37.874 396.916 37.891 397.172 37.939H398.299V39.561C398.304 39.671 398.313 39.774 398.312 39.898C398.239 51.385 398.273 62.873 398.273 74.361C398.273 75.068 398.273 75.775 398.273 76.534C402.86 76.534 407.195 76.534 411.759 76.534C411.759 63.616 411.759 50.834 411.759 37.831C416.994 37.831 422.002 37.831 426.963 37.831C426.963 33.995 426.963 30.386 426.963 26.656C424.314 26.656 421.829 26.656 419.344 26.656C416.822 26.655 414.3 26.655 411.699 26.655Z" fill="white"/>
<path d="M394.848 26.638C394.657 26.636 394.465 26.638 394.274 26.637V26.638H394.848Z" fill="white"/>
</g>
<defs>
<clipPath id="clip0_1_2">
<rect width="510.251" height="77.781" fill="white"/>
</clipPath>
</defs>
</svg>
