<svg width="139" height="65" viewBox="0 0 139 65" fill="none" xmlns="http://www.w3.org/2000/svg">
<g clip-path="url(#clip0_14_115)">
<path d="M58.9305 37.1614C58.5117 37.301 58.0925 37.4408 57.6736 37.4408C55.7878 37.4408 54.1813 35.9732 54.1813 34.0862C54.1813 33.5969 54.2512 33.1078 54.5305 32.6885H50.2004C50.1304 33.1777 50.0608 33.5969 50.0608 34.0862C50.0608 38.0697 53.4828 41.4242 57.8132 41.4242C58.2321 41.4242 58.6513 41.4242 59.0702 41.3546C58.9305 41.2846 58.9305 37.1614 58.9305 37.1614ZM57.6736 30.7316C59.5594 30.7316 61.1656 32.1992 61.1656 34.0862C61.1656 34.6452 61.0259 35.1347 60.7467 35.6936H65.0768C65.1467 35.2043 65.2164 34.7151 65.2164 34.0862C65.2164 31.0111 63.191 28.2855 60.2575 27.2371V24.0223H56.4163V30.9412C56.9051 30.7316 57.2544 30.7316 57.6736 30.7316ZM11.0174 38.6518L7.41426 11.8182L0 11.8875V53.6287H4.85045V24.9923L9.07728 53.6287H13.0269L17.2537 24.923V53.6287H22.1042V11.8875L14.6899 11.8182L11.0174 38.6518ZM133.387 12.9276C133.318 12.9969 133.318 13.0663 133.318 13.1356L133.249 13.2049L133.179 13.1356C133.179 13.0663 133.249 12.9276 133.318 12.8582H133.387C133.387 12.8582 133.387 12.8582 133.387 12.9276ZM138.584 12.9276C138.515 12.7889 138.515 12.7196 138.515 12.5809C138.515 12.3729 138.515 12.0955 138.515 11.8875C138.515 11.8182 138.515 11.8182 138.515 11.7489C138.515 11.6102 138.515 11.5408 138.446 11.4022C138.446 11.4022 138.446 11.3328 138.376 11.3328C138.307 11.0555 138.169 10.8475 138.03 10.6395C137.961 10.5008 137.891 10.4314 137.891 10.2928C137.891 10.2234 137.891 10.1541 137.822 10.0848C137.753 9.94608 137.683 9.80739 137.614 9.73805C137.406 9.39137 137.129 9.11402 136.852 8.83667C136.575 8.55932 136.298 8.35131 136.02 8.1433C135.813 8.00462 135.535 7.93529 135.258 7.86595C135.189 7.86595 135.12 7.79661 135.05 7.79661C134.981 7.79661 134.981 7.72728 134.912 7.72728C134.842 7.72728 134.842 7.72728 134.773 7.72728C134.635 7.79662 134.565 7.86595 134.496 7.93528C134.427 7.93528 134.427 8.00463 134.496 8.07397C134.496 8.1433 134.565 8.21263 134.565 8.28197C134.565 8.42064 134.496 8.55932 134.427 8.698C134.357 8.83667 134.288 9.04469 134.219 9.18337C134.219 9.2527 134.219 9.2527 134.219 9.32204C134.219 9.39138 134.219 9.46071 134.15 9.53005C134.08 9.66872 134.011 9.80739 134.011 9.94607C134.011 10.0154 133.942 10.0847 134.011 10.1541C134.011 10.2928 134.011 10.3621 133.942 10.5008C133.872 10.5701 133.803 10.7088 133.803 10.7781C133.734 11.0555 133.665 11.2635 133.526 11.5408C133.457 11.7488 133.387 12.0262 133.318 12.2342C133.249 12.3729 133.249 12.5116 133.179 12.6502C133.179 12.7889 133.11 12.8582 133.11 12.9969V13.0663C133.11 13.1356 133.11 13.2049 133.11 13.2743C133.11 13.3436 133.11 13.3436 133.11 13.4129C133.11 13.4129 133.11 13.4129 133.179 13.4129C133.179 13.4129 133.179 13.4129 133.249 13.4129C133.387 13.3436 133.387 13.3436 133.387 13.4823V13.5516C133.387 13.6903 133.387 13.829 133.318 13.9676C133.249 14.1757 133.179 14.453 133.179 14.661C133.179 14.869 133.11 15.077 133.041 15.2851C133.041 15.3544 132.972 15.3544 132.972 15.3544H132.902C132.833 15.4237 132.902 15.4931 132.972 15.5624C133.11 15.6317 133.041 15.7011 133.041 15.8398C132.972 15.9784 132.972 16.1171 132.902 16.2558C132.902 16.3251 132.902 16.4638 132.833 16.5331C132.764 16.6718 132.764 16.8798 132.694 17.0185C132.694 17.1572 132.625 17.2265 132.625 17.2958C132.625 17.3652 132.556 17.4345 132.556 17.5038V17.5732C132.556 17.5732 132.625 17.5732 132.625 17.5038C132.625 17.4345 132.694 17.4345 132.694 17.3652C132.694 17.2958 132.764 17.2958 132.833 17.2958C132.833 17.3652 132.833 17.3652 132.833 17.3652C132.833 17.4345 132.764 17.5039 132.764 17.5732V17.6425C132.833 17.7812 132.764 17.8505 132.694 17.9892C132.694 18.0586 132.625 18.1279 132.556 18.1279C132.487 18.1279 132.487 18.1972 132.487 18.2666C132.487 18.3359 132.556 18.3359 132.556 18.3359C132.625 18.3359 132.625 18.4052 132.625 18.4746L132.556 18.5439L132.487 18.6132C132.625 18.6132 132.625 18.7519 132.625 18.8213C132.625 18.8906 132.625 18.8906 132.556 18.8906C132.487 18.8906 132.417 18.8906 132.417 19.0293C132.417 19.0986 132.417 19.1679 132.417 19.1679C132.348 19.3066 132.348 19.4453 132.348 19.584C132.348 19.6533 132.348 19.792 132.279 19.8613V19.9307C132.279 20 132.279 20 132.348 20.0693L132.417 20.1387C132.417 20.208 132.487 20.3467 132.417 20.416C132.348 20.4854 132.348 20.5547 132.417 20.5547C132.487 20.624 132.487 20.7627 132.417 20.832C132.348 20.9014 132.348 20.9707 132.417 21.0401C132.487 21.1094 132.417 21.1787 132.417 21.2481C132.348 21.2481 132.348 21.3174 132.417 21.3867C132.487 21.4561 132.487 21.4561 132.417 21.5254C132.417 21.7334 132.348 21.8721 132.348 22.0801C132.348 22.1495 132.348 22.1495 132.348 22.2188C132.348 22.4962 132.348 22.7735 132.279 22.9815C132.279 22.9815 132.279 23.0509 132.279 23.1202C132.279 23.1895 132.279 23.2589 132.209 23.3282C132.14 23.3975 132.14 23.4669 132.209 23.4669V23.5362C132.209 23.6749 132.14 23.8136 132.14 23.9522C132.14 24.0909 132.071 24.1602 132.071 24.2989V24.3683C132.071 24.5069 132.071 24.5763 132.071 24.7149C132.071 24.7843 132.071 24.8536 132.071 24.923C132.071 25.0616 132.071 25.131 132.14 25.2696C132.14 25.4777 132.209 25.6163 132.209 25.8243C132.209 25.8937 132.209 26.0324 132.279 26.1017C132.279 26.2404 132.348 26.3097 132.348 26.4484C132.417 26.6564 132.487 26.7951 132.556 26.9337C132.625 27.0724 132.625 27.2111 132.694 27.2804C132.694 27.3498 132.764 27.4884 132.764 27.5578C132.902 27.8351 133.041 28.1125 133.249 28.3898C133.318 28.4592 133.387 28.5978 133.457 28.6672C133.526 28.7365 133.526 28.7365 133.595 28.6672C133.665 28.5978 133.665 28.5285 133.734 28.4592C133.803 28.3205 133.872 28.2512 133.942 28.1818C134.011 28.1125 134.08 28.0431 134.08 28.0431C134.08 27.9738 134.15 27.9738 134.15 27.9045C134.219 27.7658 134.219 27.6965 134.219 27.5578C134.219 27.4884 134.219 27.3498 134.288 27.2804C134.288 27.1418 134.288 27.0031 134.357 26.8644C134.357 26.7951 134.357 26.7257 134.427 26.6564C134.427 26.5871 134.427 26.5177 134.427 26.4484C134.427 26.3097 134.496 26.1017 134.565 25.963C134.565 25.8937 134.565 25.8243 134.635 25.8243C134.704 25.6163 134.773 25.4083 134.773 25.2003C134.842 25.131 134.842 24.9923 134.912 24.923C134.981 24.8536 135.05 24.715 135.05 24.6456C135.12 24.5069 135.12 24.4376 135.189 24.2989C135.328 24.0909 135.397 23.8829 135.535 23.6749C135.605 23.4669 135.674 23.2589 135.813 23.0508C135.813 22.9815 135.882 22.9815 135.882 22.9122C135.951 22.7042 136.02 22.5655 136.09 22.4268C136.159 22.3575 136.159 22.2881 136.159 22.2188C136.228 22.1495 136.228 22.0108 136.298 21.9414C136.367 21.8721 136.367 21.8028 136.436 21.7334C136.505 21.5254 136.575 21.3867 136.575 21.1787C136.644 20.9707 136.713 20.7627 136.783 20.5547C136.783 20.4854 136.852 20.4854 136.852 20.416C136.852 20.3467 136.921 20.3467 136.991 20.416C137.06 20.416 137.06 20.4854 136.991 20.5547V20.624V20.6934C136.991 20.6934 137.06 20.6934 137.06 20.624C137.06 20.5547 137.129 20.5547 137.129 20.4854C137.129 20.416 137.198 20.3467 137.198 20.3467C137.198 20.2774 137.268 20.208 137.268 20.1387C137.268 20.0693 137.337 20 137.337 19.9307C137.406 19.6533 137.476 19.376 137.476 19.0986C137.476 19.0293 137.476 19.0293 137.545 18.9599C137.614 18.7519 137.683 18.6132 137.683 18.4052C137.683 18.3359 137.683 18.3359 137.683 18.2666C137.753 18.0586 137.822 17.7812 137.891 17.5732C137.961 17.4345 137.961 17.2958 138.03 17.0878C138.03 16.8798 138.03 16.6025 138.169 16.3945V16.3251C138.238 16.1171 138.238 15.9091 138.376 15.7011V15.6317C138.446 15.4237 138.515 15.2157 138.515 15.077C138.515 15.0077 138.515 14.9384 138.584 14.869C138.654 14.7304 138.723 14.5917 138.723 14.3837C138.723 14.3143 138.723 14.3143 138.792 14.245C138.861 14.1063 138.861 13.8983 138.931 13.7596C139 13.621 139 13.4129 139 13.2743C138.584 13.2049 138.584 13.0663 138.584 12.9276ZM38.0414 7.17257C37.9721 7.17257 37.9721 7.17257 38.0414 7.17257C37.9721 7.17257 37.9721 7.17257 37.9721 7.17257C37.9721 7.24191 37.9721 7.24191 38.0414 7.17257C37.9721 7.24191 37.9721 7.24191 38.0414 7.17257ZM76.2214 7.86595C76.2214 7.79661 76.1521 7.72728 76.0828 7.65794C76.1521 7.79661 76.1521 7.79661 76.2214 7.86595ZM77.33 8.90601C77.33 8.83667 77.2607 8.83667 77.33 8.90601C77.33 8.83667 77.2607 8.83667 77.2607 8.83667C77.2607 8.83667 77.2607 8.83667 77.33 8.90601C77.2607 8.90601 77.2607 8.90601 77.33 8.90601ZM24.1829 30.9553H24.2522C24.2522 30.886 24.2522 30.886 24.1829 30.9553ZM75.8749 6.96457C75.8749 6.82589 75.8749 6.82589 75.8056 6.82589C75.8056 6.89523 75.8056 6.89523 75.8749 6.96457C75.8056 6.96457 75.8056 6.96457 75.8749 6.96457ZM77.1914 8.76734C77.1914 8.698 77.1222 8.62866 77.1222 8.55932C77.1222 8.48999 77.0529 8.48999 76.9836 8.42065C76.9836 8.62867 77.1221 8.698 77.1914 8.76734ZM82.1805 18.0586C82.1805 18.1279 82.2498 18.2666 82.319 18.2666C82.319 18.2666 82.3191 18.2666 82.3883 18.2666C82.3883 18.1972 82.319 18.1972 82.319 18.1279C82.2498 18.0586 82.1805 18.0586 82.2498 17.9892C82.1805 17.9892 82.1805 17.9892 82.1805 18.0586ZM75.667 6.54854H75.5977V6.61788C75.667 6.68722 75.7363 6.75656 75.8056 6.82589C75.7363 6.68722 75.7363 6.61788 75.667 6.54854ZM76.9836 8.42065C76.9143 8.28198 76.845 8.21263 76.7757 8.1433C76.7064 8.07396 76.6371 8.07397 76.5678 8.07397C76.5678 8.07397 76.5678 8.07396 76.5678 8.1433C76.6371 8.28197 76.7757 8.35131 76.9836 8.42065ZM79.4088 11.4022V11.3328C79.3395 11.1248 79.2009 10.9168 78.9238 10.8475C78.9238 10.8475 78.9237 10.8475 78.8545 10.8475C78.9237 11.0555 79.1316 11.1941 79.2702 11.4022C79.3395 11.4022 79.4088 11.4022 79.4088 11.4022ZM80.7253 13.1356C80.7253 13.1356 80.7946 13.0663 80.7253 12.9969C80.5868 12.7889 80.4482 12.5809 80.3096 12.3729C80.171 12.1649 79.9631 11.9569 79.7552 11.7489H79.686V11.8182C80.0324 12.2342 80.3096 12.6502 80.5868 13.0663C80.656 13.0663 80.7253 13.0663 80.7253 13.1356ZM81.9726 17.8505C82.0419 17.9199 82.0419 17.9199 82.2498 17.9199H82.1805C81.9726 17.7119 81.7647 17.5038 81.6954 17.1572L81.6261 17.0878C81.5568 17.0878 81.5568 17.0878 81.4876 17.0878C81.349 17.0185 81.2797 16.9492 81.1411 16.8798C81.0718 16.8105 81.0025 16.8105 81.0025 16.7411C80.9332 16.6025 80.8639 16.6025 80.7253 16.5331C80.7946 16.7411 80.9332 16.8798 81.0718 17.0185C81.349 17.2958 81.6261 17.5732 81.9726 17.8505ZM79.9631 45.3775C79.8938 45.4468 79.8938 45.5162 79.8938 45.5855C79.8245 45.7935 79.7553 46.0015 79.6167 46.1402C79.4781 46.2789 79.3395 46.4869 79.2702 46.6256L79.2009 46.6949C79.2009 46.6256 79.2009 46.6256 79.2009 46.5562C79.2009 46.4176 79.2702 46.3482 79.3395 46.2096C79.3395 46.1402 79.4088 46.0709 79.4088 46.0709C79.4088 45.7935 79.5474 45.5162 79.686 45.2388C79.7553 45.0308 79.8245 44.8228 79.8938 44.6148C79.9631 44.4068 80.0324 44.1988 80.171 43.9908H80.2403C80.2403 44.0601 80.2403 44.1294 80.3096 44.1294C80.3789 44.1988 80.3789 44.2681 80.3789 44.3374C80.2403 44.6841 80.171 45.0308 79.9631 45.3775ZM52.5927 63.9599C52.5234 63.8906 52.5234 63.8906 52.5927 63.8906C52.662 63.8906 52.662 63.8906 52.5927 63.9599C52.662 63.8906 52.662 63.8906 52.5927 63.9599ZM52.177 64.0293C51.9691 64.0293 51.7612 63.9599 51.6226 63.8213C51.5534 63.7519 51.4841 63.7519 51.3455 63.7519C51.2069 63.7519 51.0683 63.7519 50.9297 63.6826C50.8604 63.6826 50.8604 63.6826 50.7911 63.6826C50.7218 63.6826 50.7218 63.6133 50.7218 63.6133C50.7218 63.6133 50.7911 63.5439 50.8604 63.4746C50.9297 63.4746 50.999 63.4746 50.999 63.4746C51.3455 63.4746 51.6226 63.5439 51.8998 63.6826C51.9691 63.7519 52.1077 63.8213 52.2463 63.8213C52.3156 63.8213 52.3156 63.8906 52.3156 63.8906C52.2463 63.9599 52.177 64.0293 52.177 64.0293ZM37.4178 57.5116C37.4178 57.4422 37.4178 57.4422 37.4178 57.5116C37.4871 57.5116 37.4871 57.5116 37.4178 57.5116ZM36.8634 57.3729C36.7941 57.3729 36.7248 57.3035 36.7248 57.2342C36.7248 57.2342 36.7248 57.2342 36.7941 57.1649C36.8634 57.2342 36.9327 57.3035 36.8634 57.3729C36.9327 57.3729 36.9327 57.3729 36.8634 57.3729ZM64.8574 0.86287C64.9267 0.86287 64.996 0.862874 65.0653 0.932211C65.0653 0.932211 65.1346 1.00154 65.0653 1.00154C65.0653 1.00154 64.996 1.00155 64.996 1.07088C64.996 1.07088 64.996 1.07088 64.9267 1.07088C64.8574 1.07088 64.7881 1.07088 64.7881 1.00154C64.7881 0.862866 64.8574 0.86287 64.8574 0.86287ZM69.8465 2.52697C69.9158 2.52697 69.9158 2.52697 69.8465 2.52697C69.9851 2.52697 70.1236 2.59631 70.1929 2.73498C70.1929 2.73498 70.1929 2.73498 70.1929 2.80431C70.1236 2.80431 70.1236 2.80431 70.0544 2.80431C69.9851 2.73498 69.9158 2.66564 69.8465 2.5963C69.8465 2.5963 69.8465 2.59631 69.8465 2.52697ZM70.6087 3.28968C70.678 3.28968 70.678 3.28968 70.6087 3.28968C70.678 3.28968 70.678 3.35902 70.6087 3.28968C70.678 3.35902 70.6087 3.35902 70.6087 3.28968ZM71.0937 3.151C71.2323 3.151 71.3016 3.22034 71.3709 3.28968C71.3709 3.28968 71.3709 3.28968 71.3709 3.35901C71.2323 3.35901 71.0937 3.35902 71.0244 3.22034C71.0244 3.22034 71.0244 3.22034 71.0937 3.151C71.0244 3.151 71.0244 3.22034 71.0937 3.151ZM74.1426 5.43914H74.2119V5.50847C74.2119 5.50847 74.2119 5.57781 74.1426 5.57781C74.1426 5.50847 74.0733 5.50848 74.1426 5.43914C74.0733 5.43914 74.0733 5.50848 74.1426 5.43914ZM74.6276 5.71648C74.6276 5.78582 74.6969 5.85516 74.6969 5.9245C74.6969 5.9245 74.6969 5.9245 74.6276 5.9245C74.6276 5.9245 74.5583 5.9245 74.5583 5.85517C74.5583 5.85517 74.5583 5.78582 74.6276 5.71648ZM74.7662 6.4792C74.8355 6.54854 74.9048 6.61787 74.9741 6.68721C75.1127 6.75655 75.182 6.89523 75.2513 6.96457C75.2513 6.96457 75.2513 7.0339 75.2513 7.10324C75.2513 7.10324 75.182 7.10324 75.1127 7.10324L75.0434 7.0339C74.9048 6.89522 74.8355 6.75655 74.6969 6.68721C74.6969 6.61787 74.7662 6.54854 74.7662 6.4792ZM77.0529 12.7196C77.1222 12.7196 77.1222 12.7196 77.0529 12.7196C77.1222 12.7889 77.0529 12.7889 77.0529 12.7889C77.0529 12.7196 77.0529 12.7196 77.0529 12.7196ZM77.5379 13.1356C77.5379 13.1356 77.6072 13.0663 77.6765 13.0663C77.6765 13.0663 77.7458 13.0663 77.7458 13.1356C77.8151 13.2049 77.8151 13.3436 77.8151 13.4129C77.8151 13.4129 77.8151 13.4823 77.7458 13.4823H77.6765C77.6072 13.4129 77.6072 13.3436 77.5379 13.2743C77.4686 13.2049 77.4686 13.1356 77.5379 13.1356ZM79.6167 13.1356C79.686 13.2049 79.686 13.2049 79.6167 13.1356C79.686 13.2049 79.6859 13.2743 79.7552 13.3436C79.8245 13.3436 79.8245 13.4129 79.8938 13.4129L79.9631 13.4823V13.5516H79.8938C79.8938 13.5516 79.8938 13.4823 79.8938 13.4129C79.8245 13.4129 79.8245 13.3436 79.7552 13.3436C79.6859 13.2743 79.686 13.2743 79.6167 13.1356C79.686 13.2049 79.686 13.2049 79.6167 13.1356C79.6167 13.2049 79.6167 13.2049 79.6167 13.1356C79.5474 13.2049 79.5474 13.2049 79.6167 13.1356ZM79.6167 12.3729C79.6167 12.4422 79.6167 12.4422 79.686 12.4422C80.0324 12.7196 80.2403 13.0663 80.4482 13.4129C80.4482 13.4129 80.4482 13.4129 80.4482 13.4823H80.3789C80.171 13.2049 79.8938 12.9276 79.686 12.6502C79.6167 12.5809 79.6167 12.5116 79.6167 12.3729C79.6167 12.4422 79.6167 12.4422 79.6167 12.3729ZM80.2403 13.9676C80.171 13.8983 80.171 13.829 80.1017 13.829V13.7596C80.2403 13.7596 80.2403 13.829 80.2403 13.9676C80.2403 13.8983 80.2403 13.8983 80.2403 13.9676C80.3096 13.9676 80.3096 13.9676 80.2403 13.9676ZM79.9631 14.869C79.8938 14.869 79.8938 14.869 79.8245 14.869C79.7552 14.7997 79.686 14.7304 79.686 14.5917C79.686 14.5917 79.6859 14.5917 79.7552 14.5917C79.8938 14.5917 79.9631 14.661 79.9631 14.869ZM80.5175 14.1757L80.5868 14.245V14.3143H80.5175C80.4482 14.245 80.4482 14.245 80.5175 14.1757ZM80.7253 13.9676C80.7946 13.9676 80.7946 14.037 80.7253 13.9676ZM81.2797 15.1464C81.2104 15.1464 81.2104 15.1464 81.2797 15.1464ZM81.4183 15.2157C81.4876 15.2157 81.4875 15.2851 81.5568 15.2851C81.4875 15.2851 81.4183 15.2851 81.4183 15.2157ZM81.7647 15.2157C81.834 15.2157 81.9033 15.3544 81.9033 15.4237H81.834C81.6954 15.4237 81.6954 15.3544 81.7647 15.2157ZM82.1805 15.9091C82.1112 15.9091 82.1112 15.9091 82.1805 15.9091ZM82.3883 16.2558C82.4576 16.2558 82.4576 16.3251 82.3883 16.2558C82.4576 16.2558 82.4576 16.2558 82.3883 16.2558ZM90.4262 32.3421C90.4262 32.0647 90.3569 31.8567 90.3569 31.5794C90.3569 31.4407 90.357 31.302 90.2877 31.1633C90.2184 30.6086 90.1491 29.9846 89.9412 29.4299C89.8719 29.0832 89.8026 28.8059 89.7333 28.4592C89.7333 28.3898 89.664 28.3205 89.664 28.1818C89.664 28.1125 89.5947 27.9738 89.5947 27.9045C89.4562 27.4884 89.3176 27.0031 89.0404 26.6564C88.9018 26.5177 88.8325 26.3097 88.6939 26.171C88.4168 25.755 88.2089 25.339 88.001 24.8536C87.9317 24.6456 87.8624 24.5069 87.7931 24.2989C87.6545 24.0909 87.5852 23.8136 87.4467 23.6055C87.3081 23.3282 87.1695 23.1202 87.0309 22.9122C87.0309 22.8428 86.9616 22.7735 86.8923 22.7042C86.823 22.5655 86.6845 22.4962 86.6152 22.3575C86.5459 22.2188 86.4073 22.2188 86.338 22.2188C86.2687 22.2188 86.2687 22.2188 86.1994 22.2188C86.0608 22.2188 85.9915 22.2188 85.9222 22.1495C85.7144 22.0108 85.5758 21.8721 85.3679 21.7334C85.16 21.5254 84.8829 21.3868 84.675 21.2481C84.5364 21.1787 84.4671 21.1094 84.3285 21.1094C84.2592 21.1094 84.19 21.1094 84.0514 21.0401C83.9821 20.9707 83.8435 20.9707 83.7742 20.9014C83.497 20.7627 83.2199 20.6934 82.9427 20.4854H82.8734C82.8041 20.4854 82.8041 20.4854 82.7348 20.5547C82.6655 20.5547 82.6655 20.6934 82.7348 20.6934C82.8041 20.7627 82.8041 20.832 82.8734 20.832C82.9427 20.9014 83.012 21.0401 83.012 21.1094C83.012 21.3868 83.0813 21.6641 83.0813 21.9414C83.0813 22.5655 83.0813 23.1202 83.012 23.7442C83.012 24.1603 82.9427 24.6456 82.9427 25.0616C82.9427 25.2003 82.9427 25.2696 82.9427 25.4083C83.012 25.6163 82.9427 25.8243 82.9427 26.0324C82.9427 26.379 82.8734 26.7257 82.8734 27.1418C82.8734 27.2111 82.8734 27.2111 82.8734 27.2804C82.8734 27.4884 82.8041 27.7658 82.8041 27.9738C82.8041 28.1818 82.8041 28.3898 82.7348 28.5978C82.6655 29.0139 82.5962 29.3606 82.5962 29.7766C82.5269 30.1926 82.4576 30.6086 82.4576 31.094C82.4576 31.3713 82.3883 31.718 82.319 31.9954C82.2498 32.2034 82.2498 32.3421 82.2498 32.5501C82.1805 32.8968 82.1805 33.2435 82.1112 33.5208C82.1112 33.5208 82.1112 33.5208 82.1112 33.5901C82.1112 33.8675 82.0419 34.1448 82.1112 34.4222V34.4915C82.0419 35.1156 81.9033 35.8089 81.7647 36.433C81.6954 36.9877 81.5568 37.5424 81.4183 38.0277C81.2797 38.6518 81.2104 39.2065 81.0025 39.8305C80.9332 40.0385 80.8639 40.2465 80.8639 40.4546C80.8639 40.5239 80.8639 40.5932 80.7946 40.7319C80.656 41.0786 80.5175 41.4946 80.4482 41.9106C80.3096 42.396 80.171 42.8814 79.9631 43.3667C79.8938 43.5747 79.8245 43.7134 79.7552 43.9214C79.6167 44.3374 79.4781 44.6841 79.3395 45.1002C79.0623 45.8629 78.7159 46.6256 78.3001 47.3883C78.1615 47.5963 78.0922 47.8043 77.9536 48.0817V48.151C77.9536 48.151 77.9537 48.151 78.0229 48.151C78.0922 48.0817 78.1615 48.0817 78.1615 48.0123C78.2308 47.735 78.4387 47.527 78.5773 47.319C78.6466 47.2496 78.6466 47.1109 78.7159 47.0416C78.7159 47.0416 78.7159 47.0416 78.7852 47.0416C78.7852 47.0416 78.7852 47.0416 78.7852 47.1109C78.7852 47.2496 78.7159 47.3883 78.6466 47.527C78.4387 47.8043 78.3001 48.0817 78.1615 48.4284C78.0922 48.567 78.0229 48.6364 77.9536 48.7057C77.9536 48.7057 77.8844 48.7057 77.8151 48.7057C77.8151 48.6364 77.7458 48.567 77.7458 48.4977C77.7458 48.4977 77.7458 48.4284 77.6765 48.4284C77.6765 48.4284 77.6765 48.4284 77.6072 48.4284C77.4686 48.6364 77.33 48.9137 77.1914 49.1217C76.9836 49.4684 76.7757 49.8151 76.5678 50.1618C76.3599 50.4391 76.1521 50.7858 75.9442 51.1325C75.8749 51.3405 75.7363 51.5485 75.5977 51.6872C75.3206 51.9646 75.0434 52.3113 74.8355 52.6579C74.6969 52.8659 74.489 53.074 74.2812 53.282C74.2119 53.3513 74.1426 53.3513 74.1426 53.4206C74.004 53.6287 73.7961 53.7673 73.5882 53.9753C73.3804 54.114 73.2418 54.322 73.1032 54.53C73.0339 54.6687 72.8953 54.8074 72.7567 54.8767C72.5489 55.0847 72.2717 55.2928 71.9945 55.5008C71.7174 55.7088 71.5095 55.9168 71.2323 56.0555C70.678 56.4022 70.1929 56.8182 69.5693 57.0955C69.5 57.0955 69.5 57.1649 69.4307 57.1649C68.9457 57.4422 68.4606 57.7196 67.9756 57.9276C67.7677 57.9969 67.5598 58.0663 67.352 58.2049C67.0748 58.3436 66.7976 58.4823 66.5204 58.5516C66.4512 58.5516 66.3126 58.621 66.2433 58.6903C66.1047 58.829 65.9661 58.9676 65.7582 59.037C65.4811 59.1757 65.2039 59.3143 64.9267 59.3837C64.7882 59.453 64.6496 59.453 64.6496 59.661C64.6496 59.7304 64.5803 59.7997 64.511 59.7997C64.4417 59.869 64.3031 59.869 64.2338 59.869C64.0259 59.9384 63.7488 59.9384 63.5409 60.077C63.4716 60.1464 63.333 60.1464 63.2637 60.1464C62.9865 60.1464 62.7787 60.2851 62.5015 60.2851C62.2243 60.4237 61.9472 60.4237 61.7393 60.6317C61.6007 60.7011 61.4621 60.7704 61.3235 60.8398C61.0464 60.8398 60.7692 60.9784 60.492 60.9784C60.3535 60.9784 60.2149 61.0478 60.0763 61.0478C59.7298 61.0478 59.3834 61.0478 59.0369 61.0478C58.6212 61.0478 58.1361 61.0478 57.7203 60.9784C57.6511 60.9784 57.5818 60.9784 57.5818 60.9784C57.4432 60.9784 57.3739 60.9784 57.2353 61.0478C57.166 61.0478 57.0274 61.0478 56.9581 61.1171C56.8195 61.1864 56.681 61.1864 56.5424 61.1864C56.3345 61.1864 56.1266 61.1864 55.9188 61.1171C55.503 61.0478 55.1565 60.9784 54.7408 61.0478C54.6715 61.0478 54.5329 61.0478 54.4636 61.0478C54.1864 60.9784 53.9093 60.9784 53.6321 60.9091C53.5628 60.9091 53.4935 60.9091 53.4242 60.9091C53.2857 60.9091 53.1471 60.9091 53.0085 60.8398C52.662 60.7704 52.3156 60.7011 51.9691 60.6317C51.8998 60.6317 51.8998 60.6317 51.8305 60.5624C51.7612 60.5624 51.6919 60.4931 51.6919 60.4237C51.6227 60.3544 51.6226 60.3544 51.5534 60.3544C51.8998 60.2851 51.8305 60.2851 51.6919 60.2851C51.6227 60.2851 51.5533 60.2851 51.4841 60.2157C51.2762 60.1464 50.8604 60.077 50.6525 59.9384C50.4447 59.869 50.2368 59.7997 50.0289 59.7304C49.9596 59.661 49.8211 59.661 49.7518 59.661C49.7518 59.661 49.6825 59.661 49.6132 59.661C49.336 59.5917 49.1281 59.453 48.8509 59.3143C48.7817 59.245 48.7124 59.245 48.5738 59.245C48.5045 59.245 48.3659 59.245 48.2966 59.1757C47.9502 59.037 47.673 58.8983 47.3265 58.7596C47.1187 58.6903 46.9801 58.5516 46.7722 58.5516C46.6336 58.5516 46.5643 58.4823 46.4257 58.4129C46.2871 58.4129 46.1486 58.4129 46.0793 58.3436C45.8021 58.2049 45.5249 58.1356 45.3171 57.9969C44.9013 57.7889 44.4855 57.5809 44.0698 57.3035C43.8619 57.1649 43.654 57.0955 43.4462 56.9569C43.0304 56.6795 42.684 56.4022 42.2682 56.1248C42.1296 56.0555 41.991 55.9168 41.8524 55.8475C41.2981 55.4314 40.7438 54.9461 40.2587 54.4607C39.7737 53.9754 39.2194 53.4206 38.7343 52.9353C38.5264 52.7273 38.3186 52.4499 38.0414 52.2419C37.9721 52.1726 37.9028 52.1032 37.8335 52.0339C37.6949 51.8259 37.4871 51.6179 37.3485 51.4792C37.2099 51.3405 37.1406 51.2019 37.002 51.0632C36.517 50.5085 36.1012 49.9538 35.6854 49.3297C35.6162 49.2604 35.6162 49.1911 35.5469 49.1217C35.339 48.9137 35.2697 48.7057 35.1311 48.4284C35.0618 48.2897 34.9925 48.2203 34.9232 48.0817C34.8539 47.943 34.7154 47.8043 34.6461 47.6656C34.5768 47.5963 34.5768 47.4576 34.4382 47.4576C34.2996 47.3883 34.2303 47.2496 34.2303 47.1109C34.2303 47.0416 34.161 46.9029 34.161 46.8336C34.0917 46.5562 34.0224 46.2789 33.8146 46.0015C33.7453 45.8629 33.6067 45.6549 33.5374 45.4468C33.3988 45.0308 33.2602 44.6148 33.0523 44.2681C32.9831 44.1294 32.9831 44.0601 32.9138 43.9214C32.8445 43.5747 32.7752 43.2974 32.6366 42.9507C32.498 42.5347 32.4287 42.188 32.2901 41.772C32.2901 41.6333 32.2209 41.5639 32.1516 41.4253C32.0823 41.2866 32.013 41.2173 31.9437 41.0786C31.8051 40.8012 31.6665 40.5239 31.5972 40.2465C31.5279 39.6918 31.3893 39.1371 31.32 38.5824C31.32 38.5131 31.32 38.4438 31.32 38.4438C31.32 38.0971 31.2507 37.7504 31.1815 37.473C31.1122 37.1957 31.1122 36.9877 31.1122 36.7103C31.1122 36.641 31.1122 36.5023 31.1122 36.433C31.0429 36.1556 31.0429 35.9476 31.0429 35.6703C31.0429 35.3236 31.0429 35.0462 31.0429 34.6995C31.0429 34.4915 31.0429 34.3529 31.0429 34.1448C31.0429 34.0755 31.0429 34.0062 31.0429 33.9368C31.0429 33.5208 31.0429 33.1741 31.1122 32.7581C31.1815 32.4114 31.2508 32.1341 31.4586 31.8567C31.6665 31.6487 31.7358 31.3713 31.8051 31.094C31.8744 30.7473 31.9437 30.47 32.013 30.1233C32.0823 29.8459 32.0823 29.5686 32.1516 29.2912C32.1516 29.1525 32.1516 29.0139 32.1516 28.8752C32.0823 28.7365 32.0823 28.5285 32.0823 28.3898C32.0823 28.3205 32.0823 28.2512 32.0823 28.1818C32.013 27.9738 32.013 27.6965 32.013 27.4191C32.013 27.0724 32.013 26.7257 32.0823 26.379C32.1516 26.0324 32.2901 25.6857 32.3594 25.2696C32.4287 24.8536 32.5673 24.3683 32.6366 23.9522C32.6366 23.8136 32.7059 23.6749 32.7752 23.6055C32.8445 23.3975 32.9138 23.2589 32.9138 23.0508C32.9138 22.8428 32.9831 22.6348 33.1216 22.4268C33.1909 22.2188 33.2602 22.0108 33.3295 21.8028C33.4681 21.4561 33.6067 21.1094 33.7453 20.7627C33.7453 20.6934 33.8146 20.624 33.8839 20.5547C34.0917 20.2774 34.2303 19.9307 34.3689 19.584C34.4382 19.4453 34.5075 19.3066 34.5075 19.1679C34.5768 18.9599 34.6461 18.7519 34.7847 18.5439C34.9925 18.2666 35.0618 17.9199 35.2697 17.6425V17.5732C35.2697 17.3652 35.4083 17.2265 35.5469 17.0878C35.6855 16.9492 35.7548 16.7411 35.8933 16.6025C36.1012 16.3945 36.2398 16.1171 36.3784 15.9091C36.4477 15.7011 36.5862 15.4931 36.7941 15.3544C36.9327 15.2157 37.002 15.077 37.0713 14.9384C37.0713 14.869 37.1406 14.7997 37.2099 14.7997C37.3485 14.7304 37.4178 14.5917 37.4178 14.5223C37.4871 14.3837 37.4871 14.3143 37.6256 14.245C37.8335 14.1063 37.9721 13.9676 38.0414 13.7596C38.1107 13.6903 38.1107 13.621 38.18 13.5516C38.3185 13.4129 38.5264 13.2049 38.5957 12.9969C38.5957 12.9276 38.665 12.9276 38.665 12.8582C38.8036 12.7196 38.9422 12.5116 39.0808 12.3729C39.2194 12.1649 39.4272 11.9569 39.5658 11.7489C39.6351 11.6795 39.7044 11.6102 39.843 11.6795C39.9123 11.6795 39.9123 11.6795 39.9816 11.6102C40.0509 11.5408 40.1201 11.4022 40.1201 11.3328C40.1201 11.1942 40.2587 11.0555 40.328 10.9861C40.3973 10.9168 40.4666 10.9168 40.4666 10.7781C40.4666 10.7088 40.5359 10.7088 40.5359 10.6395C41.0209 10.2928 41.4367 9.87674 41.9217 9.53005C42.1296 9.39138 42.3375 9.18336 42.6147 9.04468C42.7532 8.97534 42.8918 8.90601 42.9611 8.83667C43.3769 8.55932 43.7233 8.28198 44.1391 8.07397C44.832 7.65794 45.5942 7.31126 46.2871 6.82589C46.2871 6.82589 46.2871 6.82589 46.3564 6.82589C46.5643 6.68722 46.8415 6.54854 47.1187 6.4792C47.3265 6.40986 47.5344 6.34052 47.7423 6.20185C48.2273 5.99384 48.7817 5.78583 49.2667 5.64715C50.0982 5.36981 50.9297 5.16179 51.6919 4.95378C52.1077 4.81511 52.5927 4.74576 53.0778 4.67643C53.5628 4.60709 54.0479 4.53775 54.4636 4.46841C55.018 4.39907 55.6416 4.32974 56.2652 4.32974C56.4038 4.12173 56.5424 4.12173 56.681 4.12173C57.2353 4.12173 57.7897 4.12173 58.344 4.12173C59.0369 4.12173 59.7991 4.19106 60.492 4.2604C61.0464 4.32974 61.67 4.39907 62.2243 4.60708C62.2936 4.60708 62.2936 4.60708 62.3629 4.60708C62.848 4.74576 63.333 4.81511 63.8181 4.95378C64.3724 5.09246 64.996 5.30046 65.5504 5.50847C66.0354 5.64715 66.4512 5.85517 66.9362 6.06318C67.0748 6.13252 67.2134 6.20185 67.4213 6.27118C67.9063 6.4792 68.4606 6.75655 68.9457 7.0339C69.0843 7.10323 69.2229 7.24191 69.3614 7.17257C69.4307 7.17257 69.5 7.24191 69.5 7.24191C69.6386 7.31125 69.7079 7.38059 69.8465 7.44992H69.9158C70.1236 7.31125 70.2622 7.38059 70.4701 7.44992C70.678 7.5886 70.8859 7.72728 71.0937 7.86595C71.163 7.93529 71.2323 8.00463 71.3016 8.07397C71.3016 8.1433 71.3709 8.21264 71.4402 8.21264C71.5095 8.21264 71.5788 8.28197 71.7174 8.28197C71.9945 8.42064 72.2717 8.62866 72.4796 8.83667C72.5489 9.04468 72.6874 9.11402 72.826 9.2527C72.8953 9.32203 73.0339 9.39138 73.1032 9.39138C73.1725 9.39138 73.2418 9.46071 73.2418 9.46071C73.3804 9.59939 73.519 9.73806 73.6575 9.8074C73.7268 9.87673 73.7961 9.94607 73.9347 9.94607C74.0733 9.94607 74.1426 10.0847 74.2812 10.1541C74.3505 10.2234 74.3505 10.2928 74.3505 10.3621C74.3505 10.4314 74.3505 10.5008 74.4198 10.5008C74.4198 10.5701 74.489 10.5701 74.5583 10.5701C74.6276 10.5008 74.6969 10.5008 74.7662 10.5701C74.9048 10.7088 75.0434 10.7781 75.182 10.9861C75.2513 11.0555 75.3205 11.0555 75.3205 11.1248C75.3205 11.1941 75.3205 11.2635 75.3205 11.2635C75.3205 11.2635 75.3205 11.3328 75.3898 11.3328C75.5284 11.4715 75.667 11.6795 75.7363 11.8875C75.8056 12.0262 75.9442 12.2342 76.0828 12.3729C76.1521 12.3729 76.1521 12.3729 76.2214 12.3729L76.2906 12.3035C76.3599 12.2342 76.4292 12.2342 76.4292 12.3035C76.4292 12.3729 76.4292 12.4422 76.4985 12.5116C76.6371 12.6502 76.7064 12.7889 76.845 12.9276C76.9143 12.9969 76.9143 12.9969 76.9836 12.9969C77.0529 12.9969 77.0529 12.9969 77.1222 12.9969C77.2607 13.2743 77.4686 13.4823 77.6765 13.6903C77.7458 13.7596 77.8844 13.829 77.9536 13.9676C78.1615 13.9676 78.2308 14.1757 78.3694 14.245C78.5773 14.3837 78.7159 14.5917 78.9238 14.7304C78.993 14.7304 78.993 14.7997 78.993 14.7997C79.3395 15.1464 79.7552 15.4931 80.1017 15.8398C80.171 15.9091 80.171 15.9091 80.2403 15.9784C80.4482 16.0478 80.5868 16.2558 80.7253 16.3945C80.7253 16.3251 80.7253 16.2558 80.7253 16.2558C80.6561 16.1171 80.5175 15.9784 80.3789 15.9091C80.3096 15.9091 80.2403 15.8398 80.2403 15.7704C80.171 15.7011 80.1017 15.5624 80.0324 15.4931C79.9631 15.4237 79.8938 15.4237 79.8938 15.3544C79.7553 15.077 79.4781 14.9384 79.2702 14.7304C79.0623 14.5223 78.8544 14.3143 78.6466 14.1063C78.6466 14.1063 78.6466 14.037 78.5773 14.037V13.9676C78.6466 13.9676 78.7159 14.037 78.7852 14.1063C78.8545 14.1757 78.8545 14.245 78.9238 14.245C79.2009 14.3143 79.3395 14.5223 79.5474 14.661C79.6167 14.7997 79.6859 14.7997 79.7552 14.7997C79.8245 14.7997 79.8245 14.869 79.8245 14.9384C79.8245 15.077 79.8938 15.1464 80.1017 15.1464C80.171 15.1464 80.171 15.1464 80.2403 15.2157C80.3096 15.2851 80.3789 15.3544 80.5175 15.4237C80.5175 15.3544 80.5175 15.2851 80.5175 15.2851C80.5175 15.2157 80.5175 15.1464 80.5175 15.1464H80.5868C80.656 15.1464 80.656 15.2157 80.656 15.2157C80.7253 15.3544 80.7946 15.4237 80.8639 15.5624C80.9332 15.6317 80.9332 15.7011 81.0718 15.7011C81.1411 15.7011 81.2104 15.7704 81.2797 15.8398C81.349 15.9091 81.4183 16.0478 81.4876 16.1171C81.5568 16.1864 81.6261 16.2558 81.6954 16.3251C81.834 16.3945 81.9726 16.5331 82.0419 16.6718C82.1112 16.8105 82.1805 16.8798 82.2498 17.0185C82.3191 17.1572 82.3883 17.2265 82.3883 17.3652C82.3883 17.4345 82.4576 17.5039 82.5269 17.5732C82.5962 17.6425 82.7348 17.7812 82.8041 17.8505C82.8734 17.9199 82.9427 17.9892 83.012 18.0586C83.0813 18.0586 83.0813 18.1279 83.0813 18.1279C83.2198 18.3359 83.3584 18.5439 83.497 18.7519C83.7049 19.0986 83.9821 19.376 84.1899 19.6533C84.1899 19.6533 84.1899 19.6533 84.2592 19.6533C84.2592 19.6533 84.2592 19.6533 84.2592 19.584C84.1899 19.2373 84.0514 18.9599 83.9128 18.6826C83.8435 18.5439 83.7742 18.4746 83.7742 18.4052C83.7049 18.1279 83.5663 17.9199 83.4277 17.7119C83.3584 17.5039 83.2199 17.3652 83.1506 17.1572C83.0813 16.9492 83.012 16.8105 82.9427 16.6718C82.8734 16.6025 82.8734 16.4638 82.8041 16.3251C82.8041 16.1171 82.6655 15.9091 82.4576 15.7704H82.3883C82.2498 15.7011 82.2498 15.7011 82.2498 15.5624C82.2498 15.4237 82.2498 15.2851 82.1805 15.2157C82.1112 15.1464 82.1112 15.1464 82.1112 15.077C82.0419 15.0077 81.9726 14.869 81.834 14.869C81.7647 14.869 81.7647 14.7997 81.6954 14.7304C81.6954 14.5917 81.6261 14.5223 81.6261 14.3837C81.5568 14.3143 81.4876 14.3143 81.4183 14.245C81.349 14.1757 81.2797 14.1063 81.2797 14.037C80.9332 13.6903 80.8639 13.621 80.5868 13.2049C80.5868 13.1356 80.5175 13.1356 80.4482 13.0663C80.3096 12.9276 80.2403 12.7889 80.1017 12.7196C80.0324 12.7196 80.0324 12.6502 80.0324 12.5809C79.9631 12.5116 79.9631 12.4422 79.9631 12.3729C79.8938 12.2342 79.8246 12.1649 79.686 12.0955C79.5474 12.0262 79.4781 11.9569 79.3395 11.8182C79.2009 11.6102 79.0623 11.4715 78.9238 11.2635C78.7852 11.0555 78.5773 10.8475 78.3694 10.6395C78.3694 10.5701 78.3001 10.5701 78.2308 10.5008C78.0922 10.4314 78.0229 10.2928 77.8844 10.1541C77.8151 10.0847 77.7458 10.0154 77.6765 9.94607C77.3993 9.59938 77.0529 9.2527 76.7064 8.90601C76.4292 8.62866 76.1521 8.28198 75.9442 8.00462C75.8749 7.93529 75.8749 7.86595 75.8056 7.79661V7.72728H75.7363C75.7363 7.72728 75.7363 7.72727 75.7363 7.79661C75.8056 7.79661 75.8056 7.79661 75.8749 7.79661C75.9442 7.79661 75.9442 7.79661 76.0135 7.79661C76.0135 7.65794 75.9442 7.51926 75.8749 7.44992C75.8056 7.38059 75.7363 7.38059 75.667 7.31125C75.5284 7.24191 75.4591 7.17258 75.4591 7.10324C75.4591 7.0339 75.3899 6.89522 75.2513 6.89522C75.182 6.82589 75.1127 6.75656 75.1127 6.61788C75.1127 6.54854 75.1127 6.54854 75.182 6.4792C75.2513 6.4792 75.2513 6.40986 75.2513 6.34053C75.2513 6.27119 75.182 6.27119 75.182 6.20185C75.0434 6.13252 74.9741 5.99384 74.9048 5.85517C74.8355 5.78583 74.7662 5.71649 74.6969 5.64715C74.5583 5.50848 74.489 5.43914 74.3505 5.30047C74.2119 5.30047 74.1426 5.30047 74.0733 5.1618C74.0733 5.1618 74.0733 5.1618 74.004 5.1618H73.8654C73.7268 5.02312 73.5882 4.88444 73.519 4.67643C73.519 4.60709 73.4497 4.67643 73.3804 4.67643C73.2418 4.8151 73.2418 4.8151 73.1725 4.60708C73.1725 4.53775 73.1032 4.53775 73.1032 4.46841C73.0339 4.39907 72.9646 4.39907 72.8953 4.46841C72.7567 4.53775 72.7568 4.53776 72.6875 4.39908C72.6182 4.26041 72.5489 4.12173 72.4796 3.91371C72.4796 3.84437 72.4103 3.84438 72.341 3.77504C72.2024 3.7057 72.1331 3.56703 72.0638 3.42835C72.0638 3.35902 71.9945 3.35902 71.9252 3.28968C71.856 3.22034 71.7866 3.22034 71.7174 3.08167C71.6481 3.01233 71.5788 2.94299 71.5095 2.87365C71.4402 2.87365 71.3709 2.80432 71.3016 2.73498C71.2323 2.66564 71.163 2.59631 71.0244 2.52697C70.9551 2.45763 70.9551 2.45763 70.8858 2.52697C70.8166 2.52697 70.7473 2.52697 70.7473 2.52697C70.678 2.52697 70.678 2.45763 70.6087 2.52697C70.5394 2.59631 70.4701 2.59631 70.4701 2.52697C70.2622 2.38829 69.9851 2.31896 69.7079 2.18028C69.7079 2.18028 69.6386 2.18028 69.5693 2.18028H69.5V2.24961C69.5 2.31895 69.4307 2.38829 69.3614 2.31896C69.2229 2.24962 69.0843 2.18028 68.9457 2.11094C68.9457 2.11094 68.8764 2.0416 68.8071 2.0416C68.6685 2.0416 68.5299 1.97227 68.5299 1.8336C68.5299 1.76426 68.4606 1.69492 68.4606 1.62558C68.3913 1.55625 68.3913 1.48691 68.2528 1.41757C68.1142 1.34823 68.0449 1.27889 67.9063 1.27889H67.837C67.837 1.27889 67.837 1.34823 67.837 1.41757C67.9756 1.48691 68.0449 1.62558 68.1835 1.69491V1.76426L68.1142 1.8336C68.0449 1.8336 68.0449 1.83359 67.9756 1.76426C67.7677 1.55624 67.5598 1.48691 67.352 1.41757C67.2134 1.34823 67.0748 1.41757 67.0055 1.34823C66.8669 1.27889 66.7976 1.20956 66.659 1.14023C66.5897 1.07089 66.5205 1.07088 66.3819 1.07088C66.3126 1.07088 66.2433 1.07088 66.174 1.00154C66.1047 0.932204 66.0354 0.932204 65.9661 1.00154C65.8275 1.07088 65.7582 1.00155 65.689 0.86287C65.6197 0.793532 65.6197 0.724198 65.5504 0.724198C65.4811 0.724198 65.4118 0.654852 65.3425 0.585514C65.2732 0.72419 65.2039 0.654852 65.1346 0.585514C65.0653 0.516176 65.0653 0.516184 64.996 0.516184C64.7881 0.516184 64.5803 0.377504 64.3031 0.446842C64.3031 0.446842 64.2338 0.446846 64.2338 0.516184V0.585514C64.3724 0.654852 64.511 0.65486 64.5803 0.724198V0.793528C64.511 0.862866 64.4417 0.793528 64.3724 0.793528C64.2338 0.72419 64.0259 0.585522 63.8873 0.516184C63.7488 0.446846 63.5409 0.377504 63.333 0.30817C63.2637 0.30817 63.1944 0.238836 63.1251 0.169498H63.0559C63.0559 0.169498 62.9866 0.169491 62.9866 0.238828C62.9866 0.238828 62.9866 0.238832 62.9866 0.30817C62.9866 0.446842 62.9173 0.446838 62.848 0.3775C62.7094 0.238829 62.5015 0.169494 62.2936 0.100156C62.0165 0.0308185 61.7393 0.0308145 61.4621 0.0308145C61.2543 0.0308145 61.0464 -0.0385232 60.8385 0.0308145C60.3535 0.0308145 59.9377 0.0308145 59.4527 0.0308145C59.3141 0.0308145 59.1755 0.0308145 59.0369 0.0308145C58.6905 0.0308145 58.344 0.0308185 57.9975 0.100156C57.8589 0.169494 57.7204 0.169494 57.5125 0.100156C57.3046 0.100156 57.0967 0.100156 56.8889 0.100156C56.6117 0.169494 56.3345 0.169491 56.0573 0.238828C55.9881 0.238828 55.988 0.238832 55.9188 0.30817C55.7802 0.446842 55.5723 0.446842 55.3644 0.446842C55.2258 0.446842 55.018 0.446842 54.8794 0.446842C54.6715 0.446842 54.4636 0.516176 54.2558 0.585514C54.1865 0.585514 54.1172 0.654856 53.9786 0.654856C53.7014 0.654856 53.4935 0.72419 53.2164 0.793528C53.1471 0.793528 53.0085 0.86287 52.9392 0.86287C52.5234 0.86287 52.177 1.00155 51.7612 1.07088C51.3455 1.20956 50.9297 1.20955 50.514 1.34823C50.514 1.34823 50.3061 1.34823 50.1675 1.34823C49.8903 1.41757 49.6132 1.4869 49.336 1.55624C49.2667 1.55624 49.1281 1.62558 49.0588 1.62558C48.9895 1.62558 48.9202 1.62558 48.8509 1.69491C48.7124 1.83359 48.5045 1.83359 48.3659 1.90293C48.2966 1.97227 48.2966 2.0416 48.2273 2.11094C48.158 2.11094 48.0888 2.18028 48.0195 2.18028C47.8116 2.24962 47.673 2.24962 47.4651 2.31896C47.2572 2.38829 47.0494 2.45763 46.8415 2.52697C46.6336 2.59631 46.4257 2.73498 46.2178 2.80431C46.01 2.87365 45.8021 3.01233 45.5942 3.08167C45.3863 3.15101 45.1785 3.22034 44.9706 3.35901C44.832 3.42835 44.6934 3.49769 44.4855 3.56703C44.2084 3.63636 43.9312 3.77504 43.654 3.91371C43.2383 4.12173 42.8918 4.2604 42.4761 4.46841C42.2682 4.60708 42.0603 4.74576 41.8524 4.8151C41.6446 4.88444 41.506 4.95378 41.3674 5.09245C41.2288 5.23113 41.0902 5.30047 40.9517 5.36981C40.8131 5.36981 40.7438 5.43914 40.6052 5.57781C40.6052 5.64715 40.5359 5.64715 40.4666 5.71648C40.2587 5.85516 39.9816 6.06318 39.7737 6.20185C39.7737 6.20185 39.7044 6.20185 39.7044 6.27118C39.6351 6.27118 39.6351 6.27119 39.5658 6.20185C39.4965 6.13252 39.4965 6.06317 39.4272 6.13251C39.1501 6.27118 39.1501 6.27119 38.8729 6.54854L38.8036 6.61788C38.8036 6.61788 38.8036 6.61787 38.8036 6.68721L38.8729 6.75655C38.8729 6.89523 38.7343 6.89523 38.665 6.96457C38.3878 7.17258 38.1107 7.31125 37.7642 7.51927C37.6949 7.51927 37.6256 7.5886 37.6256 7.51927C37.5563 7.44993 37.4871 7.51927 37.4178 7.51927C37.2792 7.65794 37.1406 7.72728 37.002 7.86595C36.9327 7.93529 36.7941 8.00462 36.7248 8.1433C36.5169 8.35131 36.3784 8.55933 36.0319 8.62867C35.8933 8.698 35.7547 8.76733 35.6854 8.83667C35.6162 8.90601 35.5469 8.97534 35.4776 9.04468C35.2697 9.2527 34.9925 9.46071 34.7847 9.66872C34.7154 9.73806 34.6461 9.8074 34.5075 9.8074C34.3689 9.94607 34.161 10.0154 34.0224 10.1541C33.676 10.4314 33.3988 10.7781 33.0523 11.1248C32.7752 11.4715 32.4287 11.8182 32.1516 12.0955C31.8051 12.4422 31.4586 12.7889 31.1815 13.1356C31.1122 13.2049 30.9736 13.3436 30.9043 13.4129C30.835 13.5516 30.6964 13.6903 30.5578 13.7596C30.4192 13.829 30.2807 13.9676 30.2114 14.1063C30.1421 14.1757 30.0728 14.245 30.0035 14.3143C29.9342 14.3143 29.9342 14.3837 29.8649 14.3837C29.7956 14.453 29.7263 14.5223 29.7263 14.5917C29.7263 14.661 29.7263 14.661 29.7263 14.7304C29.7263 14.7997 29.7263 14.869 29.657 15.0077C29.657 15.077 29.5878 15.077 29.5878 15.1464C29.5185 15.2851 29.3799 15.3544 29.172 15.3544C29.172 15.4237 29.172 15.4237 29.172 15.4237H29.1027V15.3544C29.1027 15.3544 29.172 15.2851 29.172 15.3544V15.2851C29.172 15.2157 29.172 15.2157 29.1027 15.2157H29.0334C28.9641 15.2851 28.8948 15.4237 28.8255 15.4931C28.7562 15.5624 28.6869 15.6317 28.6176 15.7704C28.6176 15.9091 28.6176 15.9784 28.6176 16.1171C28.6176 16.1864 28.6177 16.2558 28.7562 16.3251C28.8948 16.3945 28.8948 16.5331 28.8255 16.6025C28.7562 16.7411 28.6177 16.9492 28.5484 17.0878C28.3405 17.4345 28.0633 17.7119 27.8554 18.1279C27.8554 18.1972 27.7862 18.1972 27.7862 18.1972C27.7169 18.2666 27.6476 18.3359 27.6476 18.4746C27.509 18.8213 27.2318 19.0986 27.0239 19.376C26.9547 19.4453 26.8853 19.5146 26.7468 19.5146C26.6775 19.5146 26.6082 19.5146 26.6082 19.584C26.5389 19.8613 26.5389 20.1387 26.4003 20.416C26.4003 20.4854 26.4003 20.5547 26.4003 20.5547C26.4003 20.624 26.4003 20.6934 26.331 20.7627C26.1924 20.9707 26.1231 21.1787 25.9846 21.3867C25.9153 21.4561 25.9153 21.5948 25.9153 21.6641C25.9846 21.8028 25.9153 21.8721 25.846 22.0108C25.7074 22.1495 25.7074 22.2881 25.7074 22.4268C25.7074 22.4962 25.7767 22.5655 25.7767 22.7042C25.7767 22.7735 25.7767 22.7735 25.7767 22.8428C25.7074 22.9815 25.6381 23.0509 25.4995 23.1202C25.4302 23.1202 25.3609 23.2589 25.4302 23.3282C25.4995 23.4669 25.5688 23.5362 25.5688 23.6055C25.6381 23.7442 25.6381 23.8829 25.7074 23.9522C25.4995 24.2296 25.4302 24.5069 25.2916 24.7843C25.2223 24.923 25.2223 25.131 25.2223 25.2696C25.2223 25.339 25.2223 25.4083 25.2223 25.4777C25.1531 25.547 25.153 25.6857 25.0838 25.755C25.0145 25.963 24.8759 26.171 24.9452 26.379C24.9452 26.4484 24.9452 26.5871 24.8759 26.6564C24.8759 26.7257 24.8759 26.7257 24.8759 26.7951C24.9452 26.8644 24.9452 26.9337 24.9452 27.0031C24.9452 27.0724 24.9452 27.2111 24.9452 27.2804C24.9452 27.4884 24.9452 27.6965 24.8759 27.9045C24.8759 27.9738 24.8066 28.1125 24.8066 28.1818C24.8066 28.4592 24.8066 28.6672 24.7373 28.9445C24.668 28.9445 24.668 28.9445 24.668 28.8752C24.668 28.8059 24.5987 28.8059 24.5987 28.7365H24.5294C24.5294 28.7365 24.4601 28.7365 24.4601 28.8059C24.4601 28.8752 24.4601 28.8752 24.4601 28.9445C24.4601 29.0832 24.4601 29.2912 24.4601 29.4299C24.4601 29.4992 24.4601 29.4992 24.4601 29.5686C24.4601 29.5686 24.5294 29.5686 24.5294 29.6379C24.5294 29.6379 24.5294 29.6379 24.5987 29.6379C24.5987 29.5686 24.668 29.5686 24.668 29.4992H24.7373C24.7373 29.4992 24.8066 29.4992 24.8066 29.5686C24.8759 29.9846 24.8066 30.4006 24.8759 30.7473V30.8166C24.8759 30.9553 24.8759 31.0247 24.8759 31.1633C24.9452 31.51 24.9452 31.8567 24.9452 32.2034C24.9452 32.4807 24.9452 32.8274 24.8759 33.1048C24.8759 33.1741 24.8759 33.3128 24.9452 33.3821C25.0145 33.5901 25.0145 33.7982 25.0145 34.0062C25.0145 34.4222 25.0838 34.8382 25.1531 35.2542C25.1531 35.4623 25.2223 35.7396 25.1531 35.9476C25.1531 36.0863 25.1531 36.2943 25.2223 36.433C25.2916 36.641 25.2916 36.849 25.3609 37.057C25.3609 37.1957 25.4302 37.265 25.4995 37.4037C25.5688 37.5424 25.6381 37.681 25.6381 37.8197C25.6381 38.2358 25.7767 38.6518 25.846 39.0678C25.846 39.4145 25.9153 39.6918 26.0538 39.9692C26.1231 40.1079 26.1231 40.1772 26.1924 40.3159C26.1924 40.4545 26.2617 40.6626 26.331 40.8012C26.331 40.8706 26.331 40.8706 26.331 40.9399C26.2617 41.0786 26.331 41.2866 26.4003 41.4253C26.4003 41.4946 26.4696 41.6333 26.4696 41.7026C26.6775 41.9106 26.7468 42.188 26.8161 42.4653C26.8853 42.5347 26.8854 42.6733 26.9546 42.7427C27.0239 42.812 27.0239 42.812 27.0239 42.8814C27.0239 43.02 27.0239 43.1587 27.1625 43.2281C27.3011 43.3667 27.4397 43.5747 27.509 43.7827C27.5783 44.0601 27.7169 44.2681 27.7862 44.4761C27.9247 44.7535 28.0633 45.1002 28.2712 45.3082C28.3405 45.3775 28.4098 45.4468 28.4098 45.5855C28.4791 45.7935 28.6177 45.9322 28.6869 46.0709C28.8255 46.2789 28.9641 46.4869 29.0334 46.6949C29.1027 46.8336 29.1027 46.9723 29.172 47.0416C29.3799 47.319 29.5185 47.5963 29.5878 47.8737C29.657 48.0123 29.7263 48.151 29.7956 48.2203C29.9342 48.359 30.0728 48.567 30.2114 48.7057C30.2807 48.775 30.2807 48.775 30.2807 48.8444C30.35 48.9831 30.4193 49.1911 30.4193 49.3297C30.4193 49.3297 30.4193 49.3991 30.35 49.4684C30.35 49.4684 30.2807 49.4684 30.2114 49.4684C30.1421 49.4684 30.1421 49.3991 30.0728 49.3297C30.0035 49.2604 30.0035 49.2604 29.9342 49.1911H29.8649C29.8649 49.3297 29.8649 49.4684 29.9342 49.5377C30.0035 49.6071 30.0728 49.6764 30.1421 49.7458C30.2114 49.8844 30.35 50.0231 30.4885 50.0925C30.6271 50.1618 30.6964 50.2311 30.6964 50.3698C30.7657 50.5778 30.9736 50.7165 31.0429 50.9245C31.1122 51.0632 31.2508 51.2018 31.32 51.2712C31.3893 51.3405 31.4586 51.4099 31.5279 51.4792C31.7358 51.6179 31.9437 51.7566 32.013 51.9646C32.0823 52.1032 32.2208 52.3113 32.3594 52.3806C32.5673 52.5193 32.7059 52.7273 32.7752 52.9353C32.7752 52.9353 32.8445 52.9353 32.8445 53.0046C32.8445 53.0046 32.8445 52.9353 32.9138 52.9353C32.9138 52.9353 32.9831 52.9353 32.9831 53.0046C33.0524 53.1433 33.1909 53.282 33.2602 53.3513C33.4681 53.5593 33.676 53.7673 33.8839 53.9753C33.9531 54.0447 33.9532 54.0447 33.9532 54.114C33.9532 54.2527 34.0224 54.322 34.0224 54.4607C34.0224 54.53 34.0224 54.5994 33.9532 54.5994C33.8146 54.7381 33.8146 54.7381 33.9532 54.8074C34.0224 54.8767 34.0917 54.9461 34.161 55.0154C34.2996 55.2234 34.3689 55.3621 34.5768 55.4314C34.7154 55.6394 34.9232 55.7088 35.0618 55.9168C35.2004 56.1248 35.2697 56.2635 35.4776 56.4022C35.4776 56.3328 35.4776 56.3328 35.5469 56.2635C35.5469 56.1941 35.6162 56.1941 35.6854 56.2635L35.7547 56.3328C35.8933 56.6102 36.0319 56.8182 36.1705 57.0262C36.2398 57.1649 36.3091 57.3035 36.517 57.3729C36.5863 57.3729 36.6555 57.5116 36.7248 57.5809C36.7941 57.6502 36.7941 57.7196 36.9327 57.7889C37.0713 57.8582 37.1406 57.9276 37.2792 57.9969C37.2792 57.9969 37.2792 57.9969 37.3485 57.9969C37.3485 57.9969 37.4178 57.9276 37.3485 57.9276C37.2792 57.8582 37.2792 57.7889 37.2099 57.7196C37.2099 57.7196 37.2099 57.6502 37.2099 57.5809C37.2099 57.5116 37.3485 57.5116 37.3485 57.5116L37.4178 57.5809C37.4178 57.6502 37.487 57.6502 37.5563 57.6502C37.6256 57.6502 37.6949 57.6502 37.7642 57.7196C37.8335 57.7889 37.8335 57.8582 37.9028 57.9276C38.18 58.2049 38.3185 58.4823 38.5264 58.829C38.5957 58.829 38.7343 58.8983 38.8036 58.8983C38.8729 58.8983 38.8729 58.8983 38.9422 58.8983C38.8036 58.829 38.7343 58.7596 38.7343 58.621V58.5516H38.8036C38.9422 58.621 39.0115 58.7596 39.0808 58.8983C39.1501 59.037 39.2194 59.1757 39.3579 59.245C39.3579 59.245 39.4272 59.245 39.4272 59.3143C39.4965 59.453 39.6351 59.453 39.7737 59.453C39.9816 59.453 40.1202 59.7304 40.328 59.7304C40.3973 59.7304 40.3973 59.7997 40.4666 59.7997L40.5359 59.869C40.7438 60.0077 40.9517 60.1464 41.1595 60.2157C41.4367 60.2851 41.7832 60.4237 42.0603 60.5624C42.2682 60.6317 42.4068 60.7011 42.5454 60.8398C42.6147 60.9091 42.684 60.9091 42.7533 60.9091C43.169 61.0478 43.5848 61.1171 43.9312 61.3945C43.9312 61.3945 44.0005 61.3945 44.0698 61.4638C44.347 61.5331 44.5548 61.6025 44.832 61.7411C45.3171 61.9492 45.8714 62.1572 46.3564 62.3652C46.4257 62.3652 46.495 62.4345 46.495 62.5039C46.5643 62.5732 46.6336 62.5732 46.7029 62.5732C46.8415 62.5039 46.9108 62.5732 46.9801 62.6425C46.9801 62.7119 47.0494 62.7812 47.1187 62.7812C47.1879 62.7812 47.2572 62.7812 47.2572 62.7812C47.3958 62.7812 47.6037 62.7812 47.7423 62.8505C48.0887 62.9892 48.3659 63.1279 48.7124 63.2666C48.851 63.3359 48.9895 63.3359 49.0588 63.4746C49.1281 63.5439 49.1974 63.5439 49.2667 63.5439C49.4746 63.5439 49.6132 63.5439 49.7518 63.4746C49.8211 63.4746 49.8211 63.4746 49.8904 63.4746C49.9596 63.4746 50.0289 63.4746 50.0289 63.5439C50.0289 63.6133 50.0289 63.6826 50.0982 63.6826C50.0982 63.7519 50.1675 63.7519 50.1675 63.7519C50.4447 63.8906 50.6526 63.9599 50.9297 63.8906C51.0683 63.8213 51.1376 63.8213 51.2762 63.9599C51.3455 64.0293 51.7612 64.0293 51.8305 64.0293C51.9691 63.9599 52.177 64.0293 52.3156 64.0293C52.4542 64.0293 52.5234 64.0293 52.662 63.9599C52.7313 63.8906 52.7313 63.8906 52.8006 63.8213C52.8699 63.7519 53.0085 63.7519 53.0778 63.8213C53.1471 63.8906 53.2164 63.9599 53.2856 64.0986C53.2856 64.168 53.2857 64.168 53.3549 64.2373C53.3549 64.3066 53.4242 64.3066 53.4935 64.3066C53.6321 64.3066 53.7707 64.3066 53.9093 64.2373C54.0479 64.2373 54.1172 64.2373 54.2558 64.3066C54.325 64.3066 54.3943 64.3066 54.3943 64.3066C54.4636 64.3066 54.6022 64.2373 54.6715 64.2373C54.9487 64.2373 55.2258 64.2373 55.503 64.376C55.7109 64.4453 55.9188 64.5146 56.1266 64.5146C56.2652 64.5146 56.3345 64.584 56.4731 64.584C56.7503 64.7227 57.0274 64.8613 57.3739 64.792C57.4432 64.792 57.5125 64.792 57.5818 64.792C57.9975 64.8613 58.344 64.9307 58.7597 64.8613C58.829 64.8613 58.9676 64.8613 59.0369 64.8613C59.1755 64.8613 59.2448 64.8613 59.3834 64.9307C59.522 64.9307 59.7298 64.9307 59.8684 64.8613C60.1456 64.7227 60.492 64.7227 60.7692 64.7227C60.8385 64.7227 60.9078 64.7226 60.9771 64.792C61.0464 64.8613 61.0464 64.9307 61.185 65C61.3235 65 61.4621 65 61.6007 65C62.2243 65 62.9173 64.9307 63.5409 64.8613C63.818 64.8613 64.0259 64.792 64.3031 64.7227C64.5803 64.7227 64.8574 64.6533 65.1346 64.584C65.2039 64.584 65.2732 64.584 65.2732 64.584C65.4811 64.584 65.6889 64.5146 65.8968 64.4453C65.9661 64.4453 66.0354 64.376 66.174 64.376C66.3126 64.376 66.4512 64.3066 66.5897 64.3066C66.7976 64.2373 67.0055 64.2373 67.1441 64.168C67.2827 64.168 67.4213 64.0986 67.4905 64.0986C67.5598 64.0986 67.6291 64.0293 67.6984 64.0293C67.9756 63.9599 68.2528 63.8906 68.5299 63.8906C68.5992 63.8906 68.6685 63.8213 68.7378 63.8213C69.1535 63.6133 69.5693 63.5439 69.9851 63.3359C70.6087 63.1279 71.0937 62.8505 71.6481 62.5732C71.7174 62.5732 71.7174 62.5039 71.7867 62.5039C71.9252 62.3652 72.1331 62.2958 72.2717 62.1572C72.4796 62.0185 72.6875 61.8798 72.8953 61.8105C72.9646 61.8105 72.9646 61.7411 73.0339 61.7411C73.2418 61.5331 73.4497 61.3945 73.7268 61.2558C73.8654 61.1864 74.004 61.0478 74.0733 60.9091C74.2812 60.6317 74.5583 60.4237 74.8355 60.1464C75.0434 59.9384 75.3206 59.7997 75.5977 59.661C75.667 59.5917 75.8056 59.5223 75.8056 59.453C75.8749 59.3143 75.9442 59.245 76.0828 59.1063C76.1521 59.037 76.2907 58.9676 76.3599 58.829C76.4985 58.6903 76.6371 58.5516 76.7757 58.4129C76.845 58.3436 76.9143 58.3436 76.9836 58.4129C77.1222 58.4823 77.1914 58.4823 77.33 58.4129L77.3993 58.3436C77.5379 58.3436 77.6072 58.2049 77.6765 58.1356C77.8151 57.9276 78.0229 57.7889 78.2308 57.6502C78.3694 57.5809 78.508 57.4422 78.6466 57.3035C78.8544 57.0955 78.993 56.8875 79.2009 56.7488C79.3395 56.6102 79.4088 56.4715 79.6167 56.4022C79.686 56.4022 79.686 56.3328 79.686 56.3328C79.8246 56.2635 79.8938 56.1248 79.9631 55.9861C80.0324 55.9168 80.0324 55.8475 80.1017 55.7781C80.3789 55.5701 80.5868 55.2928 80.7253 55.0154C80.9332 54.6687 81.1411 54.3914 81.5568 54.1834C81.6261 54.114 81.6954 54.114 81.7647 54.0447C81.9033 53.906 82.0419 53.8367 82.1112 53.698C82.1805 53.5593 82.3884 53.49 82.4576 53.3513C82.5269 53.282 82.5962 53.1433 82.6655 53.074C82.8041 52.7966 83.012 52.5886 83.2199 52.3806C83.2891 52.3806 83.3584 52.4499 83.3584 52.4499C83.4277 52.5193 83.497 52.5193 83.497 52.4499L83.5663 52.3806C83.9128 51.8259 84.3285 51.2018 84.675 50.6471C84.7443 50.5778 84.8136 50.4391 84.8829 50.3698C85.0214 50.1618 85.2293 50.0231 85.2986 49.8151C85.2986 49.7458 85.3679 49.7458 85.3679 49.6764C85.5065 49.5378 85.5758 49.3991 85.6451 49.2604C85.7837 48.9137 85.9915 48.6364 86.1301 48.2897C86.1994 48.151 86.338 47.943 86.4073 47.8043C86.5459 47.4576 86.7538 47.1109 86.8923 46.7643C87.1002 46.3482 87.2388 46.0015 87.516 45.6549C87.6545 45.3775 87.7931 45.1002 87.8624 44.8228C87.8624 44.6841 87.9317 44.6148 88.001 44.5455C88.1396 44.4068 88.1396 44.2681 88.2089 44.1294C88.2089 43.9908 88.2782 43.8521 88.2782 43.7827C88.3475 43.6441 88.3475 43.5054 88.3475 43.4361C88.4168 43.0894 88.4168 42.812 88.5553 42.5347C88.5553 42.4653 88.5553 42.396 88.6246 42.396C88.6939 42.0493 88.7632 41.6333 88.9018 41.2866C88.9711 41.0786 89.0404 40.8706 89.1097 40.5932C89.2483 40.1079 89.3869 39.6225 89.5254 39.0678C89.5947 38.6518 89.664 38.3051 89.8026 37.8891C89.8026 37.8197 89.8026 37.7504 89.8719 37.7504C89.9412 37.265 90.0798 36.849 90.0798 36.3636C90.1491 35.7396 90.2184 35.1156 90.2184 34.4915V34.4222C90.2877 34.0062 90.2877 33.5901 90.2877 33.1048C90.5648 32.9661 90.5648 32.6194 90.4262 32.3421ZM120.707 41.4946L117.589 11.8875H111.976L117.866 53.6287H123.34L129.368 11.8875H124.102L120.707 41.4946ZM103.73 46.2789C103.73 48.0123 102.83 49.0524 101.167 49.0524C99.5728 49.0524 98.7413 48.0817 98.7413 46.2789V11.8875H93.1979V46.0015C93.1979 50.9245 96.6625 54.2527 101.167 54.2527C105.671 54.2527 108.997 50.9245 108.997 46.0015V11.8875H103.73V46.2789ZM33.676 54.114C33.7453 54.114 33.7453 54.1834 33.8146 54.1834C33.7453 54.1834 33.676 54.1834 33.676 54.114ZM31.7358 52.6579C31.7358 52.7273 31.7358 52.7273 31.7358 52.6579ZM31.3893 51.8952C31.3201 51.8952 31.3201 51.8952 31.3893 51.8952C31.3893 51.9646 31.3893 51.9646 31.3893 51.8952ZM25.5688 41.0092V41.0786C25.5688 41.0786 25.5688 41.1479 25.6381 41.1479C25.6381 41.1479 25.6381 41.1479 25.6381 41.0786C25.5688 41.0786 25.5688 41.0786 25.5688 41.0092ZM39.2194 59.3837C39.2194 59.3143 39.2194 59.245 39.1501 59.1757C39.1501 59.245 39.1501 59.3143 39.2194 59.3837ZM33.5374 53.906C33.5374 54.0447 33.5374 54.114 33.676 54.114C33.676 54.0447 33.6067 53.9753 33.5374 53.906ZM30.2114 50.5085C30.2114 50.5778 30.2114 50.6472 30.2807 50.7165C30.2807 50.7165 30.2807 50.7165 30.35 50.7165C30.35 50.5778 30.2807 50.5085 30.2114 50.5085ZM33.8839 54.6687C33.8839 54.7381 33.9532 54.7381 33.9532 54.6687V54.5994C33.8839 54.4607 33.8146 54.3914 33.676 54.2527C33.8146 54.3914 33.8839 54.53 33.8839 54.6687ZM33.7453 54.2527C33.8146 54.2527 33.8146 54.2527 33.7453 54.2527ZM27.0932 44.4761C27.0932 44.5455 27.0932 44.5455 27.0932 44.6148C27.1625 44.8921 27.3011 45.1002 27.4397 45.3082C27.4397 45.3082 27.4397 45.3082 27.509 45.3082C27.509 45.3082 27.5783 45.2388 27.509 45.2388C27.3704 45.0308 27.3011 44.7535 27.0932 44.4761C27.0932 44.5455 27.0932 44.5455 27.0932 44.4761ZM25.2223 40.2465C25.2223 40.1772 25.153 40.1772 25.0838 40.1772C25.0838 40.4545 25.153 40.6626 25.2916 40.8706C25.3609 40.9399 25.4302 41.0092 25.4995 41.0786C25.4302 40.8706 25.3609 40.6626 25.2916 40.4546C25.2916 40.3159 25.2916 40.2465 25.2223 40.2465ZM26.6775 43.5747C26.6082 43.6441 26.6775 43.7134 26.6775 43.7134C26.6775 43.7827 26.7468 43.8521 26.7468 43.9214C26.816 44.0601 26.8854 44.1988 26.9546 44.4068C26.9546 44.4761 27.0239 44.4761 27.0239 44.4761H27.0932C27.0932 44.3374 27.0932 44.1988 27.0239 44.1294C26.8854 43.9214 26.8161 43.7134 26.6775 43.5747Z" fill="white"/>
</g>
<defs>
<clipPath id="clip0_14_115">
<rect width="139" height="65" fill="white"/>
</clipPath>
</defs>
</svg>
