<svg width="379" height="253" viewBox="0 0 379 253" fill="none" xmlns="http://www.w3.org/2000/svg">
<path d="M129.328 5.81157H267.812V49.5285H226.27V252.256H171.524V49.5285H137.042C138.751 55.9279 139.227 61.1962 139.227 66.7474C139.227 99.8904 119.43 122.4 104.27 123.055C119.43 123.055 139.881 142.283 139.881 170.105V225.096C140.542 234.375 141.857 240.328 151.102 252.256H99.0082C93.0557 247.628 88.4557 239.011 88.4557 227.737V162.151C88.4557 144.932 73.9422 136.97 56.1515 139.641V252.256H0.743164V4.46472H83.8408C106.952 4.8591 120.931 16.259 129.328 31.1488V5.81157ZM327.798 5.81157V209.856H375.284V252.256H274.389V5.81157H327.798ZM55.4901 44.2155V103.194C76.5803 103.857 87.1329 95.0238 87.1329 72.7301C87.1329 50.853 75.9189 44.2155 55.4901 44.2155Z" fill="white"/>
</svg>
