<svg width="507" height="253" viewBox="0 0 507 253" fill="none" xmlns="http://www.w3.org/2000/svg">
<g clip-path="url(#clip0_14_110)">
<path d="M498.169 35.2262L461.259 124.773L494.921 220.274C494.721 220.242 0.576721 220.242 0.576721 220.242V35.2452L498.169 35.2262Z" fill="white"/>
<path d="M498.169 35.2262L461.259 124.773L494.921 220.274C494.721 220.242 0.576721 220.242 0.576721 220.242V35.2452L498.169 35.2262Z" stroke="#161615" stroke-width="1.154"/>
<path d="M490.824 40.106L455.055 125.065L487.395 215.616C487.208 215.597 5.19672 215.67 5.19672 215.67V40.125L490.824 40.106Z" fill="#DA0021"/>
<path d="M414.916 145.937L421.254 145.648L416.5 135.689L414.916 145.937Z" fill="#161615"/>
<path d="M177.079 104.227L183.417 104.516L178.664 114.472L177.079 104.227Z" fill="#161615"/>
<path d="M85.1823 139.152V167.294C85.2384 170.784 84.5946 174.25 83.2889 177.488C81.9833 180.726 80.0422 183.669 77.5803 186.144C75.1185 188.619 72.1857 190.576 68.9551 191.899C65.7245 193.222 62.2616 193.884 58.7708 193.847H59.6739C56.1857 193.889 52.7248 193.228 49.4969 191.906C46.269 190.583 43.3399 188.625 40.8837 186.148C38.4276 183.671 36.4945 180.725 35.1994 177.486C33.9043 174.247 33.2735 170.781 33.3447 167.294L33.3099 153.152H53.7198V176.096H64.8326L64.7977 145.791L33.7693 105.669V84.3122C33.7133 80.8217 34.3571 77.3553 35.6627 74.1177C36.9684 70.8801 38.9094 67.9369 41.3713 65.4618C43.8332 62.9867 46.766 61.0299 49.9965 59.7068C53.2271 58.3838 56.6901 57.7214 60.1809 57.7586H59.2778C62.7666 57.7163 66.2283 58.3758 69.4572 59.698C72.686 61.0202 75.6161 62.978 78.0731 65.4551C80.5302 67.9323 82.4642 70.8781 83.76 74.1175C85.0559 77.357 85.6872 80.8239 85.6164 84.3122L85.6513 95.5705H65.2319V75.5127H54.2585L54.1888 99.1669L85.2172 139.295L85.1823 139.152Z" fill="white"/>
<path d="M85.1823 139.152V167.294C85.2384 170.784 84.5946 174.25 83.2889 177.488C81.9833 180.726 80.0422 183.669 77.5803 186.144C75.1185 188.619 72.1857 190.576 68.9551 191.899C65.7245 193.222 62.2616 193.884 58.7708 193.847H59.6739C56.1857 193.889 52.7248 193.228 49.4969 191.906C46.269 190.583 43.3399 188.625 40.8837 186.148C38.4276 183.671 36.4945 180.725 35.1994 177.486C33.9043 174.247 33.2735 170.781 33.3447 167.294L33.3099 153.152H53.7198V176.096H64.8326L64.7977 145.791L33.7693 105.669V84.3122C33.7133 80.8217 34.3571 77.3553 35.6627 74.1177C36.9684 70.8801 38.9094 67.9369 41.3713 65.4618C43.8332 62.9867 46.766 61.0299 49.9965 59.7068C53.2271 58.3838 56.6901 57.7214 60.1809 57.7586H59.2778C62.7666 57.7163 66.2283 58.3758 69.4572 59.698C72.686 61.0202 75.6161 62.978 78.0731 65.4551C80.5302 67.9323 82.4642 70.8781 83.76 74.1175C85.0559 77.357 85.6872 80.8239 85.6164 84.3122L85.6513 95.5705H65.2319V75.5127H54.2585L54.1888 99.1669L85.2172 139.295L85.1823 139.152Z" stroke="#161615" stroke-width="1.154"/>
<path d="M113.578 145.937L119.915 145.648L115.162 135.689L113.578 145.937Z" fill="#161615"/>
<path d="M114.151 99.7532L120.489 100.042L115.735 110.001L114.151 99.7532Z" fill="#161615"/>
<path d="M129.057 121.617L152.328 192.006L131.978 191.933L115.742 142.217V191.965H94.9611V62.0871H115.742V102.646L132.771 62.0871H153.263L129.057 121.617Z" fill="white"/>
<path d="M129.057 121.617L152.328 192.006L131.978 191.933L115.742 142.217V191.965H94.9611V62.0871H115.742V102.646L132.771 62.0871H153.263L129.057 121.617Z" stroke="#161615" stroke-width="1.154"/>
<path d="M179.386 111.3L185.591 62.0871H205.506L189.488 143.915V191.974H168.416V139.587L153.263 62.0903H174.044L179.386 111.3Z" fill="white"/>
<path d="M179.386 111.3L185.591 62.0871H205.506L189.488 143.915V191.974H168.416V139.587L153.263 62.0903H174.044L179.386 111.3Z" stroke="#161615" stroke-width="1.154"/>
<path d="M355.924 176.603H366.894V141.821H387.313L387.278 167.804C387.35 171.292 386.719 174.759 385.423 177.999C384.127 181.238 382.193 184.184 379.736 186.662C377.279 189.139 374.349 191.097 371.12 192.419C367.891 193.741 364.429 194.4 360.94 194.357H361.843C358.352 194.395 354.889 193.733 351.658 192.41C348.427 191.087 345.494 189.13 343.032 186.655C340.57 184.18 338.629 181.236 337.324 177.999C336.018 174.761 335.375 171.294 335.431 167.804V84.2393C335.375 80.7488 336.019 77.2824 337.325 74.0448C338.63 70.8072 340.571 67.864 343.033 65.3889C345.495 62.9138 348.428 60.957 351.658 59.634C354.889 58.3109 358.352 57.6485 361.843 57.6858H360.94C364.429 57.6434 367.89 58.3029 371.119 59.6251C374.348 60.9473 377.278 62.9051 379.735 65.3822C382.192 67.8594 384.126 70.8052 385.422 74.0447C386.718 77.2841 387.349 80.751 387.278 84.2393L387.313 101.556H366.894V75.4367H355.927L355.924 176.603Z" fill="white"/>
<path d="M355.924 176.603H366.894V141.821H387.313L387.278 167.804C387.35 171.292 386.719 174.759 385.423 177.999C384.127 181.238 382.193 184.184 379.736 186.662C377.279 189.139 374.349 191.097 371.12 192.419C367.891 193.741 364.429 194.4 360.94 194.357H361.843C358.352 194.395 354.889 193.733 351.658 192.41C348.427 191.087 345.494 189.13 343.032 186.655C340.57 184.18 338.629 181.236 337.324 177.999C336.018 174.761 335.375 171.294 335.431 167.804V84.2393C335.375 80.7488 336.019 77.2824 337.325 74.0448C338.63 70.8072 340.571 67.864 343.033 65.3889C345.495 62.9138 348.428 60.957 351.658 59.634C354.889 58.3109 358.352 57.6485 361.843 57.6858H360.94C364.429 57.6434 367.89 58.3029 371.119 59.6251C374.348 60.9473 377.278 62.9051 379.735 65.3822C382.192 67.8594 384.126 70.8052 385.422 74.0447C386.718 77.2841 387.349 80.751 387.278 84.2393L387.313 101.556H366.894V75.4367H355.927L355.924 176.603Z" stroke="#161615" stroke-width="1.154"/>
<path d="M415.781 99.7532L422.119 100.042L417.366 110.001L415.781 99.7532Z" fill="#161615"/>
<path d="M430.681 121.617L453.952 192.006L433.602 191.933L417.366 142.217V191.965H396.598V62.0871H417.378V102.646L434.407 62.0871H454.903L430.681 121.617Z" fill="white"/>
<path d="M430.681 121.617L453.952 192.006L433.602 191.933L417.366 142.217V191.965H396.598V62.0871H417.378V102.646L434.407 62.0871H454.903L430.681 121.617Z" stroke="#161615" stroke-width="1.154"/>
<path d="M230.045 116.062H241.012V75.6522H230.045V116.062ZM261.507 131.361V191.974H241.015V131.358H230.048V191.971H208.976V62.0871H248.807C256.456 62.0871 261.507 64.1087 261.507 70.7471V114.041C261.505 116.364 260.6 118.595 258.985 120.264C257.369 121.933 255.169 122.91 252.847 122.989C255.06 123.1 257.157 124.009 258.75 125.549C260.342 127.088 261.322 129.153 261.507 131.361Z" fill="white"/>
<path d="M230.045 116.062H241.012V75.6522H230.045V116.062ZM261.507 131.361V191.974H241.015V131.358H230.048V191.971H208.976V62.0871H248.807C256.456 62.0871 261.507 64.1087 261.507 70.7471V114.041C261.505 116.364 260.6 118.595 258.985 120.264C257.369 121.933 255.169 122.91 252.847 122.989C255.059 123.1 257.155 124.009 258.747 125.548C260.339 127.087 261.318 129.151 261.504 131.358L261.507 131.361Z" stroke="#161615" stroke-width="1.154"/>
<path d="M305.125 75.6522H294.158V176.099H305.125V75.6522ZM325.51 167.005C325.581 170.494 324.95 173.961 323.654 177.2C322.359 180.44 320.425 183.386 317.968 185.863C315.51 188.34 312.58 190.298 309.351 191.62C306.122 192.942 302.66 193.601 299.171 193.559H300.071C296.58 193.596 293.118 192.934 289.887 191.61C286.657 190.287 283.724 188.331 281.263 185.855C278.801 183.38 276.86 180.437 275.555 177.199C274.25 173.962 273.606 170.496 273.663 167.005V83.8781C273.606 80.3877 274.25 76.9214 275.555 73.6839C276.86 70.4463 278.801 67.503 281.263 65.0279C283.724 62.5527 286.657 60.5958 289.887 59.2728C293.118 57.9497 296.58 57.2872 300.071 57.3245H299.171C302.66 57.2817 306.122 57.941 309.351 59.263C312.58 60.585 315.51 62.5428 317.968 65.02C320.425 67.4973 322.359 70.4433 323.654 73.6829C324.95 76.9225 325.581 80.3897 325.51 83.8781V167.005Z" fill="white"/>
<path d="M305.125 75.6522H294.158V176.099H305.125V75.6522ZM325.51 167.005C325.581 170.494 324.95 173.961 323.654 177.2C322.359 180.44 320.425 183.386 317.968 185.863C315.51 188.34 312.58 190.298 309.351 191.62C306.122 192.942 302.66 193.601 299.171 193.559H300.071C296.58 193.596 293.118 192.934 289.887 191.61C286.657 190.287 283.724 188.331 281.263 185.855C278.801 183.38 276.86 180.437 275.555 177.199C274.25 173.962 273.606 170.496 273.663 167.005V83.8781C273.606 80.3877 274.25 76.9214 275.555 73.6839C276.86 70.4463 278.801 67.503 281.263 65.0279C283.724 62.5527 286.657 60.5958 289.887 59.2728C293.118 57.9497 296.58 57.2872 300.071 57.3245H299.171C302.66 57.2817 306.122 57.941 309.351 59.263C312.58 60.585 315.51 62.5428 317.968 65.02C320.425 67.4973 322.359 70.4433 323.654 73.6829C324.95 76.9225 325.581 80.3897 325.51 83.8781V167.005Z" stroke="#161615" stroke-width="1.154"/>
<path d="M293.046 33.2236L329.052 25.7201L337.291 0.177429L341.116 23.4134L371.929 16.9207L345.59 46.1455L352.283 87.7058L327.028 64.5428L309.131 83.8717L318.079 56.4532L293.046 33.2236Z" fill="#0070BF"/>
<path d="M293.046 33.2236L329.052 25.7201L337.291 0.177429L341.116 23.4134L371.929 16.9207L345.59 46.1455L352.283 87.7058L327.028 64.5428L309.131 83.8717L318.079 56.4532L293.046 33.2236Z" stroke="#161615" stroke-width="1.154"/>
<path d="M507 252.99L496.169 222.169H0.110901V252.99H507Z" fill="#080804"/>
<path d="M41.4155 234.885L40.9466 237.363L40.2083 238.028L39.3369 239.536L37.2581 239.989H36.2853L35.6833 239.961L35.7498 240.233L35.9843 240.414L35.6167 241.26L35.4139 241.533L35.7308 242.135L35.4615 242.981L35.8322 243.554L35.5153 244.34L35.6167 246.999L35.2808 247.48H34.2098L33.538 247.721L31.7604 247.357L31.5924 245.062L31.7604 242.103L31.6938 240.984L31.6273 239.717L31.6938 238.722L31.6273 237.572L31.9442 234.977L31.5417 233.557L31.8111 230.838L31.7445 230.205L31.8459 229.419L31.4118 229.146L31.7287 228.512L31.6621 228.424L31.8618 227.578L31.7287 227.489V226.915L34.2415 226.282L37.9965 226.599L39.4382 227.112L39.2386 227.292L39.9738 227.654L40.411 228.408L40.9149 228.801L41.349 229.679L41.6849 231.006L41.7863 233.06L41.9859 233.601L41.4155 234.885ZM38.3324 231.653L37.9299 230.702L36.7892 229.707H35.3474L35.3157 230.826L35.4836 231.52L35.4488 232.546L35.2143 233.24L35.246 233.693L35.3474 236.108L35.1478 236.288L35.3474 236.501L35.3822 236.713L35.715 236.773L37.0553 236.288L38.0282 234.748L37.9616 233.662L38.0979 232.483L38.3324 231.653Z" fill="white"/>
<path d="M452.656 235.309L452.184 237.784L451.449 238.449L450.577 239.961L448.499 240.414H447.526L446.924 240.382L446.99 240.655L447.225 240.835L446.857 241.681L446.657 241.954L446.974 242.559L446.705 243.405L447.076 243.979L446.759 244.765L446.86 247.423L446.524 247.905H445.453L444.782 248.146L443.007 247.781L442.839 245.487L443.007 242.527L442.941 241.409L442.874 240.141L442.941 239.143L442.874 237.996L443.191 235.398L442.788 233.978L443.058 231.26L442.988 230.626L443.089 229.84L442.652 229.568L442.969 228.934L442.903 228.845L443.102 227.999L442.969 227.907V227.343L445.485 226.709L449.24 227.026L450.682 227.54L450.482 227.72L451.22 228.082L451.658 228.836L452.158 229.229L452.596 230.106L452.932 231.434L453.033 233.487L453.233 234.032L452.656 235.309ZM449.573 232.077L449.17 231.127L448.03 230.132H446.588L446.553 231.25L446.721 231.944L446.686 232.971L446.452 233.665L446.483 234.118L446.585 236.532L446.382 236.713L446.585 236.925L446.616 237.138L446.952 237.198L448.293 236.713L449.265 235.173L449.199 234.086L449.335 232.911L449.573 232.077Z" fill="white"/>
<path d="M68.895 246.574L68.3563 247.388L67.1173 248.203L66.379 248.323L64.6679 246.029V245.817L62.8585 242.917H62.5226L61.9871 241.317L61.2836 241.168L61.1506 239.749L60.7481 239.295L60.3806 239.612L60.4122 239.584L60.783 239.796L60.3806 241.577L60.4471 243.421L60.2126 243.738L60.783 246.152L60.4661 247.179L58.3874 247.496L57.9184 247.525L56.7111 247.135L56.6446 245.17L57.047 244.416L56.8094 243.465L56.9773 240.614L56.8759 238.861L57.2118 236.868L57.0122 235.75L57.2467 234.663L56.9108 234.121L57.2815 232.492L57.3132 229.802L57.3797 229.197L57.4811 228.836L57.4463 228.595L57.1104 227.689L57.9153 226.963L58.3842 227.112L58.8881 226.9L60.1556 226.811L62.6906 226.991L64.4334 227.657L64.4682 228.078L65.2382 228.395L66.0083 229.723L66.1445 230.87L66.5786 231.291L66.3758 233.012L66.1413 233.858L66.2427 234.432L65.5044 235.065L65.4696 235.125L65.5361 235.186L65.1337 236.577L64.6298 236.789V237.363L63.6254 237.724L63.657 237.904L64.2908 238.085V238.811L64.5601 239.128L65.365 239.641V240.154L65.9005 240.471L65.9354 240.956L66.2522 241.273L66.3537 241.786L66.7561 242.451L67.4944 242.844L67.5293 243.871L68.4323 244.565L68.971 245.383L69.1041 245.772L69.5382 246.349L68.895 246.574ZM62.4909 231.745L62.4244 231.203L62.1582 230.296L61.3882 229.98L60.9858 230.008L60.8876 230.068L60.7513 230.385L60.5833 232.318L60.5168 233.858L60.5833 234.885L60.3489 235.791L60.5833 236.032L60.7164 235.851H60.9858L61.7906 235.579V235.189L62.1931 235.008L62.2945 234.375L62.6969 233.801L62.5955 233.047L62.7951 232.381L62.4909 231.745Z" fill="white"/>
<path d="M187.828 246.574L187.292 247.388L186.05 248.203L185.312 248.323L183.604 246.029V245.817L181.791 242.917H181.455L180.917 241.317L180.213 241.168L180.08 239.749L179.678 239.295L179.31 239.612L179.342 239.584L179.712 239.796L179.31 241.577L179.377 243.421L179.142 243.738L179.712 246.152L179.396 247.179L177.317 247.496L176.848 247.525L175.641 247.135L175.574 245.17L175.977 244.416L175.742 243.465L175.91 240.614L175.809 238.861L176.144 236.868L175.945 235.75L176.179 234.663L175.843 234.121L176.214 232.492L176.246 229.802L176.312 229.197L176.414 228.836L176.379 228.595L176.046 227.689L176.851 226.963L177.32 227.112L177.821 226.9L179.088 226.811L181.623 226.991L183.366 227.657L183.401 228.078L184.171 228.395L184.941 229.723L185.074 230.87L185.511 231.291L185.312 233.012L185.077 233.858L185.179 234.432L184.44 235.065L184.409 235.125L184.475 235.186L184.073 236.577L183.572 236.789V237.363L182.564 237.724L182.599 237.904L183.233 238.085V238.811L183.502 239.128L184.307 239.641V240.154L184.843 240.471L184.874 240.956L185.191 241.273L185.293 241.786L185.695 242.451L186.433 242.844L186.468 243.871L187.375 244.565L187.91 245.383L188.046 245.772L188.48 246.349L187.828 246.574ZM181.424 231.745L181.357 231.203L181.088 230.296L180.318 229.98L179.915 230.008L179.814 230.068L179.681 230.385L179.513 232.318L179.446 233.858L179.513 234.885L179.278 235.791L179.513 236.032L179.646 235.851H179.915L180.72 235.579V235.189L181.123 235.008L181.224 234.375L181.626 233.801L181.525 233.047L181.725 232.381L181.424 231.745Z" fill="white"/>
<path d="M400.986 246.574L400.448 247.388L399.209 248.203L398.473 248.323L396.762 246.029V245.817L394.95 242.917H394.617L394.082 241.317L393.378 241.168L393.245 239.749L392.843 239.295L392.475 239.612L392.507 239.584L392.874 239.796L392.472 241.577L392.538 243.421L392.304 243.738L392.874 246.152L392.557 247.179L390.479 247.496L390.01 247.525L388.802 247.135L388.736 245.17L389.138 244.416L388.904 243.465L389.072 240.614L388.97 238.861L389.306 236.868L389.107 235.75L389.341 234.663L389.008 234.121L389.376 232.492L389.411 229.802L389.477 229.197L389.579 228.836L389.544 228.595L389.211 227.689L390.016 226.963L390.485 227.112L390.989 226.9L392.256 226.811L394.791 226.991L396.534 227.657L396.566 228.078L397.336 228.395L398.106 229.723L398.242 230.87L398.676 231.291L398.477 233.012L398.242 233.858L398.344 234.432L397.605 235.065L397.574 235.125L397.64 235.186L397.238 236.577L396.737 236.789V237.363L395.732 237.724L395.764 237.904L396.398 238.085V238.811L396.667 239.128L397.472 239.641V240.154L398.008 240.471L398.042 240.956L398.359 241.273L398.461 241.786L398.86 242.451L399.598 242.844L399.633 243.871L400.536 244.565L401.072 245.383L401.205 245.772L401.639 246.349L400.986 246.574ZM394.582 231.745L394.516 231.203L394.246 230.296L393.476 229.98L393.074 230.008L392.972 230.068L392.839 230.385L392.671 232.318L392.602 233.858L392.671 234.885L392.437 235.791L392.671 236.032L392.805 235.851H393.071L393.876 235.579V235.189L394.275 235.008L394.376 234.375L394.779 233.801L394.68 233.047L394.88 232.381L394.582 231.745Z" fill="white"/>
<path d="M285.964 246.574L285.425 247.388L284.186 248.203L283.448 248.323L281.737 246.029V245.817L279.924 242.917H279.591L279.056 241.317L278.352 241.168L278.219 239.749L277.817 239.295L277.449 239.612L277.481 239.584L277.852 239.796L277.449 241.577L277.516 243.421L277.281 243.738L277.852 246.152L277.535 247.179L275.456 247.496L274.987 247.525L273.78 247.135L273.713 245.17L274.116 244.416L273.881 243.465L274.049 240.614L273.948 238.861L274.284 236.868L274.084 235.75L274.319 234.663L273.986 234.121L274.354 232.492L274.388 229.802L274.455 229.197L274.556 228.836L274.525 228.595L274.189 227.689L274.994 226.963L275.463 227.112L275.966 226.9L277.234 226.811L279.769 226.991L281.512 227.657L281.547 228.078L282.317 228.395L283.087 229.723L283.223 230.87L283.657 231.291L283.454 233.012L283.245 233.921L283.346 234.495L282.608 235.129L282.576 235.189L282.643 235.249L282.241 236.64L281.737 236.852V237.426L280.732 237.787L280.764 237.968L281.398 238.148V238.874L281.667 239.191L282.472 239.704V240.218L283.007 240.534L283.039 241.019L283.356 241.336L283.457 241.849L283.86 242.515L284.598 242.908L284.633 243.934L285.536 244.628L286.072 245.446L286.208 245.836L286.642 246.412L285.964 246.574ZM279.56 231.745L279.493 231.203L279.224 230.296L278.454 229.98L278.051 230.008L277.95 230.068L277.817 230.385L277.649 232.318L277.579 233.858L277.649 234.885L277.411 235.791L277.649 236.032L277.782 235.851H278.048L278.853 235.579V235.189L279.256 235.008L279.357 234.375L279.759 233.801L279.658 233.047L279.858 232.381L279.56 231.745Z" fill="white"/>
<path d="M138.522 232.53L138.287 232.847L138.69 234.235L138.557 235.293V237.318L138.42 238.269L138.287 238.963L138.455 239.083V240.138L138.42 241.498L138.186 241.979L138.623 242.797L138.018 243.671H138.085L138.588 244.277L138.386 245.544L138.151 245.817L138.42 246.634V247.873L138.455 248.824L137.115 249.248L136.31 248.931L134.868 249.248L134.365 249.277V248.25L134.868 245.11L134.735 240.357L135.071 239.904V236.101L134.735 235.737L135.052 233.956L134.735 233.639L135.071 230.258L134.754 229.171L136.934 228.899H138.947L138.522 232.53Z" fill="white"/>
<path d="M162.484 228.573L162.284 230.867L161.334 231.228L159.223 230.911L157.512 231.304L157.411 231.909L157.946 232.752L157.208 234.232L157.376 235.078L158.716 235.35L159.119 235.227L160.595 235.379L160.928 235.062H161.562V235.968L161.796 236.301L161.527 238.716L158.276 238.807L157.069 239.289L157.237 241.133L157.002 241.374L157.202 241.707L157.237 242.553L157.202 244.001L157.002 244.318L157.103 244.407L159.784 244.258L160.592 244.045L160.659 244.286L161.264 243.865H162.002L161.866 245.132L162.002 247.065V247.699L161.331 248.016L159.388 247.955L158.818 247.807L157.712 248.123L156.371 248.272L156.036 248.513L154.426 248.424L153.285 248.453L153.621 247.699V242.293L153.304 237.581L153.64 237.096V236.25L153.773 233.443L153.539 232.657L154.008 232.204L153.808 230.965L154.042 229.545L153.726 228.218L154.042 227.613L157.395 227.704L159.474 227.432L159.943 227.071L160.545 227.388H162.623L162.484 228.573Z" fill="white"/>
<path d="M92.9331 228.062L92.7335 230.357L91.7829 230.718L89.6725 230.401L87.9614 230.794L87.8599 231.399L88.3987 232.242L87.6603 233.722L87.8283 234.568L89.1686 234.84L89.5711 234.72L91.0446 234.872L91.3804 234.555H92.0142V235.461L92.2487 235.778L91.9793 238.193L88.7282 238.285L87.5209 238.766L87.6888 240.61L87.4544 240.851L87.654 241.168L87.6888 242.014L87.654 243.465L87.4544 243.782L87.5526 243.874L90.2365 243.725L91.0414 243.513L91.1079 243.754L91.7132 243.329H92.4515L92.3184 244.597L92.4515 246.53V247.163L91.7797 247.48L89.8372 247.42L89.2669 247.268L88.161 247.585L86.8206 247.737L86.4847 247.978L84.875 247.886L83.7343 247.917L84.0701 247.163V241.758L83.7533 237.046L84.0892 236.561V235.778L84.2222 232.968L83.9877 232.185L84.4567 231.732L84.2539 230.493L84.4884 229.073L84.1715 227.746L84.4884 227.14L87.8409 227.232L89.9196 226.96L90.3886 226.599L90.9939 226.915H93.0694L92.9331 228.062Z" fill="white"/>
<path d="M330.526 244.216L330.593 245.002L330.393 247.268L328.783 247.448L327.88 247.48L327.744 247.629L326.872 247.312L324.927 247.737L324.794 247.616L323.887 247.933L323.317 247.616L322.579 248.041L322.11 247.952L321.305 248.314L321.203 247.952L320.57 248.269L320.738 246.213L321.308 243.95V241.098L321.745 240.284L321.511 239.65L321.647 235.392L321.714 235.24L321.276 234.213L321.644 233.76V228.595L321.777 227.929L321.644 226.722L324.797 226.481H325.5L325.231 227.083L325.548 227.327L325.38 228.294L325.412 228.535L325.38 229.954L325.111 231.009L325.427 231.222L325.193 234.089L325.393 234.723L325.424 235.084L325.022 235.449L325.288 235.721L324.952 236.266L325.187 236.688L325.12 237.172L325.491 237.489L324.889 238.335L324.756 239.755L324.889 240.36L324.654 240.962L325.155 241.868L324.819 242.562L325.136 242.803L324.901 243.709L325.101 244.495L326.476 244.286L328.153 244.407L329.42 244.09L330.371 243.725L330.526 244.216Z" fill="white"/>
<path d="M426.878 247.569L425.167 247.813L424.597 248.415L424.093 247.268L423.76 246.995V244.942L423.088 243.915L422.318 240.652L421.079 240.471L419.606 240.652L419.289 241.437V242.1L419.086 242.372L419.054 244.546L418.484 247.746H415.87L415.534 247.987L414.929 248.016L415.246 245.798V245.104L416.485 241.571V240.271L417.02 238.579V237.448L417.457 236.453V235.667L417.926 232.648L418.395 231.529L418.262 230.534L418.833 229.78L419.032 227.847L419.466 227.242L419.2 226.881L421.102 226.728L422.052 226.275L423.057 226.668L423.526 227.695L423.858 228.541L423.827 228.782L424.194 229.688L424.229 230.683L424.631 231L424.264 231.453L424.666 232.087L424.698 233.113L425.3 234.2V235.785L425.569 237.325L426.171 238.532L425.804 239.077L426.606 241.491L426.539 242.125L427.008 243.665L427.04 244.511L427.879 247.078L426.878 247.569ZM421.783 233.829L421.583 233.709L421.615 232.109H421.013L420.778 233.196L420.512 234.615L420.579 234.828L420.411 235.914L420.309 237.274H421.349L422.252 237.214L421.783 233.829Z" fill="white"/>
<path d="M120.504 228.905L120.739 229.026L120.336 229.72L120.571 230.201L120.907 230.594L120.438 231.409L120.302 232.993L120.102 235.106L119.867 235.921L120.102 237.461L119.969 237.914L120.102 238.668L120.134 238.985L119.966 239.226L120.099 239.831L119.864 240.465V241.704L120.298 243.152L119.982 244.029L120.083 245.75L120.485 246.232L120.051 247.138L117.805 247.29L117.133 247.711L116.499 247.743L116.363 244.844L116.699 244.362L116.363 241.07L116.531 240.829L116.331 240.376L116.566 240.103L116.363 239.787L116.68 237.793L116.547 235.106L116.176 236.013L115.606 238.066V238.383L114.972 239.802L114.772 242.02L113.901 242.293L113.432 242.081L113.197 242.353H112.19L111.185 240.059L110.38 236.919L109.575 235.287L109.376 236.013L109.712 236.738L109.512 237.584L109.88 238.218L109.645 238.731L109.274 239.064L109.474 239.276L109.509 239.549L109.541 240.062L109.439 240.423L109.471 240.997L109.135 241.571L109.769 242.236L109.198 243.022V244.682L109.433 245.047L109.03 247.404L107.288 247.616L106.147 248.038L105.307 248.069L106.045 245.712L105.542 244.08L106.08 243.085L105.881 239.704L106.315 239.07L106.08 238.497L106.514 236.776L106.315 233.848L106.584 233.303L106.651 231.551L106.315 231.234L106.819 229.815L106.619 229.27L107.088 228.576L106.819 227.337L107.823 226.976H109.464L109.832 226.855H110.504L111.454 228.44L111.185 228.832H111.556V229.618L112.126 229.859L111.857 230.525L112.427 231.009L112.193 231.222L112.595 232.277L112.931 232.594L112.966 233.649L112.83 233.709L113.4 235.309L114.509 232.318V231.865L114.978 231.548L115.482 230.037L116.087 229.431L116.42 228.344L116.857 227.952V227.286L117.326 226.5L119.37 226.741L120.14 226.532H120.878L120.504 228.905Z" fill="white"/>
<path d="M260.5 229.723L260.433 230.99L260.703 231.383L260.386 231.836L260.703 232.321L260.734 233.408L260.332 234.527L260.468 234.647L260.601 235.281H260.769L260.633 236.52L260.531 237.125L260.598 237.214L260.731 239.72V240.566L260.531 240.991L260.731 241.656L260.297 243.288L259.828 244.134L259.66 245.009L258.32 247.002L257.052 248.18L255.61 248.694H254.47L252.568 248.814L251.897 248.089L251.729 248.269L250.756 247.952L250.122 247.287L249.853 246.292L249.52 245.839L249.352 242.787L249.035 242.426L249.352 241.247L248.883 239.856L249.352 237.895L249.219 237.442L249.387 236.716L249.251 236.203L249.618 235.842L249.384 235.449L249.701 235.087L249.466 234.001L249.666 233.668L249.466 233.275L249.666 231.13L249.983 230.315L249.666 229.682L249.767 229.409L249.869 228.684L250.404 228.623H253.624L253.589 229.742L253.389 230.166L253.357 231.827L253.022 233.972L253.424 234.305L253.022 235.211L252.955 237.629L252.755 238.082L252.955 238.627L252.686 239.14L252.955 239.654L252.822 240.712L252.689 242.04L253.006 242.356L252.838 243.263L252.971 244.866L253.874 245.592L255.183 245.471L256.155 244.593L256.288 243.751L257.062 242.664L257.261 241.213L257.024 240.896L257.359 240.531L257.16 240.17L257.394 237.904V236.818L257.058 236.364L257.375 234.885L257.039 234.612L257.41 233.193V232.137L256.875 231.592L257.074 230.838L256.757 230.385L257.074 229.72L256.875 229.539V227.955L257.312 227.742L258.348 228.059L259.321 227.742L260.192 227.955H260.826L260.994 228.905L260.5 229.723Z" fill="white"/>
<path d="M235.593 231.836L234.453 232.787L234.253 233.06H233.448L232.498 231.973L232.029 231.656L231.157 231.716L230.688 231.687L229.883 232.169L229.684 232.198L229.75 232.41L229.383 233.376L229.484 233.982L230.118 235.037L230.555 235.278L230.622 235.851L231.36 236.304L232.13 236.818L232.634 237.572L233.036 237.603L233.353 238.205H233.686L234.725 239.866L234.827 240.591L235.565 241.016L235.296 241.558L235.565 242.071L235.365 243.551L235.131 244.457L234.728 244.971L234.697 245.455L234.326 245.88L233.857 246.393L233.724 247.027L233.017 247.147L232.212 247.661L231.376 247.692L230.774 248.266L230.336 248.117L230.137 248.51L227.858 248.329L227.054 248.149L225.643 247.363L224.693 247.182L224.224 246.637L224.626 245.912L224.962 245.731L225.029 245.218L225.533 244.901L225.935 244.058L227.076 244.6L227.51 244.917L227.912 244.888L228.416 245.161L229.151 245.249L229.855 245.097L230.292 244.673L230.926 244.581L230.992 244.007L231.363 242.315L230.961 241.71L230.996 240.804L230.362 240.487L230.225 240.126H229.455V239.492L228.987 239.01L228.283 239.251L227.966 238.617L227.497 238.437V237.531L227.063 236.865L226.493 236.139L225.891 235.233L226.024 234.916L225.653 234.796L225.485 232.831L226.157 231.564L225.989 230.99L226.391 230.718L226.661 230.052L227.77 229.736L227.801 229.371L228.54 229.13L228.876 228.649L230.482 228.557V228.465L231.49 228.284L232.393 228.601L233.401 229.026H234.104L235.479 229.976L236.081 231.123L235.593 231.836Z" fill="white"/>
<path d="M353.699 228.994L353.499 231.288L352.549 231.649L350.438 231.333L348.727 231.725L348.626 232.327L349.164 233.173L348.426 234.653L348.594 235.496L349.935 235.769L350.337 235.648L351.81 235.8L352.146 235.483H352.78V236.39L353.015 236.722L352.745 239.137L349.494 239.229L348.287 239.71L348.455 241.555L348.22 241.795L348.42 242.112L348.452 242.958L348.42 244.406L348.22 244.739L348.322 244.831L351.002 244.679L351.807 244.467L351.874 244.707L352.479 244.283H353.214L353.081 245.55L353.214 247.483V248.117L352.542 248.434L350.6 248.374L350.03 248.222L348.924 248.538L347.583 248.687L347.247 248.928L345.638 248.839L344.497 248.871L344.833 248.117V242.711L344.516 237.999L344.852 237.515V236.669L344.985 233.861L344.751 233.075L345.219 232.622L345.017 231.383L345.251 229.964L344.934 228.636L345.251 228.031L348.604 228.119L350.682 227.847L351.151 227.486L351.757 227.803H353.835L353.699 228.994Z" fill="white"/>
</g>
<defs>
<clipPath id="clip0_14_110">
<rect width="507" height="253" fill="white"/>
</clipPath>
</defs>
</svg>
