<svg width="289" height="289" viewBox="0 0 289 289" fill="none" xmlns="http://www.w3.org/2000/svg">
<g clip-path="url(#clip0_14_111)">
<rect x="17" y="4" width="256" height="251" fill="#E0001F"/>
<path d="M276.766 -2.00696V260.325H14.0486V-2.00696H276.766ZM270.48 4.27076H20.3263V254.039H270.48V4.27076ZM247.079 38.5815L249.776 41.7284C250.675 42.7399 251.599 44.1367 252.795 45.7021C253.413 46.4728 253.935 47.388 254.545 48.3352C255.123 49.3146 255.845 50.278 256.407 51.4179C258.952 55.8091 261.433 61.5168 263.367 68.3405C263.865 70.0504 264.226 71.8486 264.676 73.6789C265.029 75.5253 265.366 77.452 265.671 79.4188C266.169 83.3685 266.53 87.567 266.49 91.9421C266.49 93.0339 266.506 94.1417 266.474 95.2576L266.297 98.6373L266.201 100.355L266.024 102.081L265.671 105.573C265.035 110.406 264.11 115.197 262.902 119.919C261.645 124.912 260.106 129.83 258.294 134.65C257.322 137.09 256.391 139.587 255.243 142.027C254.681 143.248 254.167 144.5 253.573 145.72L251.759 149.373C251.173 150.617 250.499 151.813 249.84 153.017C249.174 154.222 248.532 155.458 247.834 156.662C246.397 159.03 245.04 161.479 243.466 163.823C240.402 168.617 237.096 173.253 233.56 177.711C229.954 182.224 226.145 186.572 222.145 190.74C220.17 192.867 218.05 194.89 215.947 196.929C213.836 199.001 211.717 200.807 209.525 202.814C200.718 210.377 191.259 217.146 181.259 223.044C176.274 225.886 171.257 228.607 166.103 230.879C163.574 232.099 160.949 233.095 158.396 234.186C157.112 234.7 155.803 235.166 154.511 235.655C153.218 236.137 151.942 236.627 150.633 237.036C140.277 240.552 129.881 242.864 119.887 243.884C114.91 244.462 110.013 244.606 105.3 244.582L101.792 244.446L100.058 244.366L98.3483 244.221L94.9766 243.916C93.8688 243.796 92.777 243.611 91.6852 243.466C87.3502 242.88 83.2561 241.925 79.4108 240.881C77.555 240.309 75.7084 239.706 73.8716 239.075C72.1215 238.369 70.3956 237.759 68.782 237.02C63.1622 234.584 57.8641 231.464 53.0074 227.732C51.9638 227.009 51.1048 226.167 50.2298 225.46C49.3788 224.714 48.5439 224.071 47.8616 223.349C46.4808 221.944 45.2285 220.828 44.3615 219.793L41.632 216.678L41.8167 216.87L44.5381 219.632C45.4693 220.611 46.7859 221.639 48.2228 222.947C48.9293 223.622 49.8043 224.208 50.6793 224.898C51.5865 225.564 52.4615 226.359 53.5292 227.026C58.4601 230.484 63.7987 233.32 69.4242 235.471C75.8866 238.016 83.5531 239.934 92.0304 240.89C93.0901 241.002 94.1578 241.146 95.2415 241.227C96.3253 241.299 97.4251 241.355 98.5329 241.419L100.203 241.516L101.889 241.532L105.308 241.556C110.055 241.48 114.794 241.137 119.501 240.528C129.215 239.324 139.266 236.803 149.325 233.271C159.4 229.755 169.354 224.89 179.043 219.271C188.781 213.465 197.987 206.81 206.555 199.386C208.61 197.499 210.89 195.581 212.897 193.622C214.936 191.663 216.991 189.728 218.934 187.649C222.915 183.611 226.584 179.3 230.14 174.973C232.709 171.714 235.19 168.399 237.526 165.043H200.197C200.197 165.043 219.913 135.164 225.019 124.952C230.124 114.741 232.3 109.82 231.633 102.731C230.975 95.6429 225.87 84.4843 200.197 98.2359L202.043 86.6117C202.043 86.6117 212.68 78.9532 223.036 77.2513C233.392 75.5494 244.02 76.2558 247.143 87.0372C250.266 97.8104 247.85 111.57 239.196 126.462C230.55 141.353 227.764 145.086 226.913 146.796C226.062 148.498 224.168 150.673 228.615 150.762C229.723 150.786 231.553 150.802 233.673 150.802H238.77C241.66 150.802 244.518 150.786 246.477 150.778C247.063 149.702 247.649 148.626 248.211 147.543C253.132 138.086 257.057 128.485 259.626 119.052C260.991 114.356 261.882 109.684 262.661 105.148L263.118 101.76C263.199 101.198 263.279 100.636 263.343 100.09L263.488 98.4205L263.769 95.1372C263.833 94.0534 263.849 92.9697 263.889 91.91C264.138 83.3765 263.327 75.5333 261.73 68.7659C260.4 62.8929 258.351 57.2064 255.628 51.8353C255.123 50.6874 254.456 49.7 253.927 48.7125C253.365 47.7492 252.907 46.7939 252.345 45.9991C251.253 44.3856 250.418 42.9406 249.576 41.8809L247.079 38.5815ZM183.403 10.6689L186.911 10.8134L188.645 10.8857L190.355 11.0382L193.726 11.3432C194.834 11.4637 195.926 11.6403 197.018 11.7928C201.353 12.3788 205.447 13.3261 209.292 14.3777C211.203 14.9638 213.049 15.5658 214.831 16.184C216.581 16.8904 218.307 17.5005 219.921 18.2311C225.54 20.6683 230.838 23.7878 235.696 27.5192C236.739 28.2417 237.598 29.0927 238.481 29.7991C239.324 30.5457 240.167 31.1879 240.841 31.9104C242.222 33.3153 243.474 34.4231 244.341 35.4587L247.071 38.5735L244.165 35.6273C243.234 34.6479 241.917 33.6123 240.48 32.3038C239.774 31.6375 238.899 31.0514 238.024 30.353C237.124 29.6947 236.233 28.892 235.174 28.2337C230.243 24.7738 224.904 21.9347 219.279 19.7804C212.012 17.0051 204.416 15.1862 196.681 14.3697C195.621 14.2573 194.553 14.1208 193.469 14.0325L190.178 13.8399L188.508 13.7435L186.822 13.7275L183.403 13.7034C178.656 13.7787 173.917 14.1218 169.209 14.731C159.496 15.9351 149.445 18.4639 139.386 21.9961C129.311 25.5123 119.357 30.3691 109.667 35.9965C99.9426 41.7944 90.7473 48.4376 82.1884 55.8492C80.069 57.7839 77.8293 59.6705 75.8143 61.6373C73.7753 63.596 71.7201 65.5388 69.7774 67.6099C66.3576 71.086 63.1786 74.7547 60.0959 78.4555H87.7356C107.516 78.4555 110.92 90.5132 108.584 105.902C106.24 121.292 88.2975 128.597 88.2975 128.597C92.6967 131.005 98.2519 138.969 101.728 144.291C105.204 149.614 111.706 161.712 111.771 165.043H93.6841C93.6841 163.694 90.7058 156.823 84.6047 148.241C78.5036 139.659 72.836 135.83 68.8623 135.405L70.3313 124.96C85.263 122.689 89.9994 113.424 90.754 105.477C91.5086 97.5295 88.0085 89.7827 84.5084 89.7827H71.6479L60.3046 165.043H43.8477L56.2747 83.248C50.2619 91.1313 44.8592 99.3036 40.5001 107.717C35.5711 117.181 31.6535 126.775 29.0766 136.215C27.8035 140.786 26.7904 145.426 26.0421 150.111L25.5845 153.499L25.3597 155.169L25.2233 156.839L24.9423 160.13C24.87 161.206 24.862 162.29 24.8219 163.349C24.565 171.883 25.3838 179.726 26.9813 186.501C28.5708 193.261 30.7624 198.985 33.0824 203.424C33.5882 204.572 34.2545 205.559 34.7763 206.555C35.3382 207.518 35.8039 208.465 36.3658 209.26C37.4496 210.874 38.2925 212.319 39.1274 213.378L41.632 216.678L38.9347 213.531C38.0276 212.519 37.1044 211.122 35.9163 209.557C35.2981 208.786 34.7763 207.871 34.1582 206.924C33.5882 205.953 32.8737 204.981 32.3118 203.841C29.3024 198.505 26.962 192.819 25.3437 186.911C24.8459 185.209 24.4847 183.411 24.0351 181.58C23.67 179.672 23.3355 177.759 23.0317 175.84C22.4824 171.689 22.2089 167.505 22.2128 163.317C22.2209 162.225 22.2048 161.117 22.2369 159.994L22.4135 156.622L22.5018 154.904L22.6784 153.178L23.0397 149.686C23.6763 144.851 24.6012 140.057 25.8093 135.332C26.9894 130.459 28.6029 125.554 30.4172 120.609C31.3886 118.161 32.3198 115.664 33.4678 113.224C34.0217 112.012 34.5355 110.759 35.1376 109.539L36.9518 105.878C37.5379 104.642 38.2122 103.446 38.8705 102.234C39.5287 101.03 40.171 99.8013 40.8694 98.5971C42.3144 96.2209 43.6711 93.7725 45.2365 91.4364C48.2148 86.6518 51.6266 82.084 55.1428 77.5483C58.7713 73.0929 62.5042 68.6696 66.5663 64.5112C68.5411 62.3838 70.6605 60.3608 72.7638 58.3298C74.859 56.2667 77.0185 54.4283 79.1539 52.4695C87.9705 44.8942 97.4401 38.1137 107.452 32.2074C112.369 29.3449 117.428 26.7326 122.608 24.3803C125.145 23.1521 127.762 22.1567 130.315 21.0649C131.599 20.5511 132.908 20.0935 134.2 19.6038C135.493 19.1222 136.769 18.6244 138.078 18.223C148.037 14.7918 158.35 12.4947 168.824 11.3753C173.801 10.7973 178.69 10.6528 183.403 10.6689ZM163.606 78.4555L161.76 89.1645C147.775 89.0441 145.463 94.3183 144.42 100.564L144.179 102.137L143.962 103.743C143.079 109.989 134.602 165.035 134.602 165.035H117.013L117.069 164.658C117.952 158.958 128.244 92.0866 128.388 91.0029C128.533 89.7827 127.931 89.1163 126.397 89.1163H111.763L113.537 78.4555H163.606ZM185.305 78.4555C185.305 78.4555 176.113 138.07 175.8 140.759C175.19 146.033 174.155 152.383 182.664 152.68C183.997 152.728 186.413 152.769 188.982 152.809L191.567 152.849L198.431 152.929L198.912 152.937L197.403 165.043H155.61L168.856 78.4555H185.305Z" fill="white"/>
</g>
<defs>
<clipPath id="clip0_14_111">
<rect width="289" height="289" fill="white"/>
</clipPath>
</defs>
</svg>
