<svg width="400" height="170" viewBox="0 0 400 170" fill="none" xmlns="http://www.w3.org/2000/svg">
<g clip-path="url(#clip0_17_1629)">
<path d="M400 0H0V169.8H400V0Z" fill="#DB0034"/>
<path d="M307.7 56.3C316.3 56.3 321.7 63.2 323.1 73.1H354.4C353.1 47.9 337.1 29 310.4 29C284.1 29 262.9 48.1 255.4 73.6L260.7 31H226.9L197.5 87.6H196.3L180.8 31H148L144.1 61.2C144.1 43.3 130.5 31 112 31H59L45.6 138.8H76.5L80.9 103.4H95.5L104.2 138.8H165.6L171.3 92.5L184.5 138.8H197.5L222.2 92.5L216.5 138.8H247.4L252.6 96.4C253.7 121.8 269.8 140.8 296.6 140.8C322.7 140.8 343.8 121.9 351.4 96.7H319.6C315.3 106.6 307.9 113.5 299.4 113.5C287.6 113.5 281.9 100.7 284.2 84.9C286.5 69.1 296.3 56.3 307.7 56.3ZM113.2 67.2C112.2 75.1 105 81.5 97 81.5H83.6L87.1 52.9H100.5C108.5 52.9 114.1 59.3 113.2 67.2ZM134.9 137.3L123.7 96.9C133.1 91.7 140.4 82.1 143 71.8L134.9 137.3Z" fill="white"/>
</g>
<defs>
<clipPath id="clip0_17_1629">
<rect width="400" height="169.8" fill="white"/>
</clipPath>
</defs>
</svg>
