<svg width="117" height="70" viewBox="0 0 117 70" fill="none" xmlns="http://www.w3.org/2000/svg">
<g clip-path="url(#clip0_14_113)">
<path d="M69.9853 55.1674L69.9452 9.96512L90.6515 5.57723C94.739 13.5709 98.6587 21.9892 101.35 27.9693L101.72 27.8915C101.136 24.5428 101.039 16.5405 100.986 9.03829L101.004 3.3822L116.964 0V45.2109L97.286 49.3816C94.2526 43.0234 88.5552 30.4884 85.6225 23.9811L85.3149 24.0459C85.9573 29.1759 85.9833 37.4548 85.979 45.2908L86.0071 51.7722L69.9853 55.1674Z" fill="white"/>
<path d="M44.2088 15.4203L44.2012 44.4417C44.1839 47.0786 45.0679 49.3968 48.084 48.7562C51.5345 48.0249 51.4511 45.2173 51.5963 42.8743L51.6049 13.8518L67.9345 10.3951L67.9041 36.5971C67.8261 49.5221 64.4742 56.4615 48.8835 59.7659C34.1563 62.8867 27.9746 57.4542 27.9605 44.9981L28.0028 18.8565L44.2088 15.4203Z" fill="white"/>
<path d="M0 24.7902L25.9812 19.281V31.2792L14.5171 33.7032V39.5364L25.9769 37.1059V47.7905L14.5171 50.2307V66.9224L0 69.9989V24.7902Z" fill="white"/>
<path d="M73.4813 62.1521L73.4976 65.3204L70.0059 66.0604L69.9853 57.1679L75.1854 56.0639C77.3077 55.6135 78.5439 56.3751 78.8255 57.6843C79.0834 58.8931 78.4843 59.8286 77.3727 60.3849C78.0336 60.5728 78.7107 61.0741 78.7053 62.6534C78.7053 63.1848 78.7291 63.7736 78.8429 64.1916L75.4606 64.9078C75.2938 64.6021 75.2104 63.9756 75.219 63.0638C75.2331 62.177 75.1042 61.8119 74.2678 61.9836L73.4813 62.1521ZM73.4813 60.1688L74.4639 59.9603C75.1139 59.8221 75.3685 59.39 75.2678 58.9179C75.1779 58.4955 74.8864 58.3173 74.4011 58.4199L73.4802 58.6155L73.4813 60.1688Z" fill="white"/>
<path d="M83.6411 61.8313L83.2836 63.2464L79.6337 64.0198L82.4505 54.5268L87.1555 53.5297L90.2312 61.774L86.7016 62.5216L86.3203 61.2631L83.6411 61.8313ZM85.641 59.0821C85.4351 58.4178 85.0874 57.1377 84.8685 56.3524L84.784 56.3697C84.6692 57.2025 84.4157 58.5074 84.2337 59.3803L85.641 59.0821Z" fill="white"/>
<path d="M91.0729 52.699L95.5353 51.7538C98.494 51.1262 100.302 52.6396 100.709 54.5624C101.39 57.7545 99.326 59.8469 96.1377 60.5231L91.0805 61.5947L91.0729 52.699ZM94.648 58.6003L95.5819 58.4027C96.9404 58.1153 97.1939 56.6332 96.9155 55.3272C96.6988 54.287 96.3045 53.8268 95.31 54.0374L94.6318 54.1811L94.648 58.6003Z" fill="white"/>
<path d="M105.49 49.6431L105.499 58.5377L101.934 59.2938L101.926 50.3992L105.49 49.6431Z" fill="white"/>
<path d="M116.862 51.0247C117.481 53.9262 116.034 56.5338 112.227 57.3397C108.722 58.0829 107.176 56.4755 106.763 54.5419C106.222 52.0271 107.251 49.0425 111.277 48.1901C114.728 47.4578 116.455 49.1137 116.862 51.0247ZM110.57 53.9121C110.727 54.6499 111.086 55.3164 111.91 55.1447C113.33 54.8444 113.27 52.5446 113.023 51.3833C112.852 50.585 112.446 50.1032 111.669 50.2674C110.347 50.5472 110.342 52.8362 110.57 53.9121Z" fill="white"/>
</g>
<defs>
<clipPath id="clip0_14_113">
<rect width="117" height="70" fill="white"/>
</clipPath>
</defs>
</svg>
