<svg width="185" height="79" viewBox="0 0 185 79" fill="none" xmlns="http://www.w3.org/2000/svg">
<path d="M98.6 45.7H102L100.3 30.3C100.4 30.3 98.6 45.7 98.6 45.7ZM47.6 25.6C47.1 25.6 46.6 25.8 46.4 26.1C46.2 26.4 46 27.5 46 29.2V49.6C46 51.5 46.1 52.7 46.3 53.2C46.5 53.7 46.9 53.9 47.6 53.9C48.3 53.9 48.8 53.6 49 53.1C49.2 52.6 49.3 51.3 49.3 49.4V29.3C49.3 27.7 49.2 26.8 49 26.3C48.7 25.9 48.2 25.6 47.6 25.6ZM4.70001 5V74H179.2V5H4.70001ZM36.5 62.5L22.7 40.1V57.9H15.4V22.1L21.8 18.4L29.4 38.5V17.4L36.5 15.1C36.4 15 36.4 62.5 36.5 62.5ZM55.8 44.7C55.8 47.9 55.7 50.2 55.6 51.5C55.5 52.8 55.1 54 54.4 55.2C53.7 56.3 52.8 57.1 51.6 57.7C50.4 58.3 49.1 58.6 47.5 58.6C46 58.6 44.7 58.3 43.5 57.8C42.3 57.3 41.4 56.4 40.7 55.3C40 54.2 39.6 53 39.4 51.7C39.3 50.4 39.2 48.1 39.2 44.8V34.8C39.2 31.6 39.3 29.3 39.4 28C39.5 26.7 39.9 25.5 40.6 24.4C41.65 22.75 42.2 22.4 43.4 21.9C44.6 21.3 45.9 21 47.5 21C49 21 50.3 21.3 51.5 21.8C52.7 22.4 53.6 23.2 54.3 24.3C55 25.4 55.4 26.6 55.6 27.9C55.7 29.2 55.8 31.5 55.8 34.8V44.7ZM73.7 54.6C73.3 55.8 72.4 56.8 71.1 57.6C69.8 58.4 68.2 58.8 66.5 58.8C64.6 58.8 62.9 58.3 61.6 57.4C60.3 56.5 59.4 55.3 59 53.9C58.6 52.5 58.4 50.5 58.4 48L64.5 45.8V49.7C64.5 51.7 64.7 52.3 64.8 52.6C65 53 65.4 53.4 66.2 53.4C66.7 53.4 67.3 53.2 67.7 52.4C68 51.8 68.1 51 68.1 50C68.1 47.7 67.9 46.2 67.3 45.5C66.8 44.8 65.6 43.6 63.7 42C61.9 40.4 60.6 39.3 60 38.6C59.4 37.9 59 37 58.6 35.8C58.2 34.6 58 33 58 31C58 28.2 58.3 26.2 58.8 24.9C59.3 23.7 60.2 22.7 61.4 22C62.6 21.3 64.1 20.9 65.8 20.9C67.7 20.9 69.3 21.3 70.6 22.1C71.9 22.9 72.7 23.8 73.2 24.9C73.6 26 73.8 27.8 73.8 30.3L67.7 31.9V29.7C67.7 27.9 67.5 27.3 67.4 27.1C67.2 26.6 66.7 26.3 66.1 26.3C65.7 26.3 65.1 26.5 64.7 27.3C64.4 27.8 64.3 28.6 64.3 29.6C64.3 30.9 64.4 31.9 64.7 32.6C65 33.3 65.7 34.1 67 35.1C70.3 37.6 72.4 39.7 73.2 41.3C74 42.9 74.5 45.5 74.5 49C74.4 51.5 74.1 53.4 73.7 54.6ZM86.8 57.9H80.1V26.8H75.8V21.3H91.1V26.8H86.8V57.9ZM103.4 58L102.3 51H98.1L97 58H90.2L97.4 21.1H103.5L110 58H103.4ZM124.1 58H113.1V21H119.4V52.3H124.1V58ZM143.2 61.3C142.2 60.1 138.1 55.6 138.1 55.6L137.8 56.1C137.3 57 136.7 57.8 136 58.2C135.3 58.7 134.4 58.9 133.5 58.9C132.3 58.9 131.2 58.6 130.2 57.9C129.2 57.2 128.4 56.4 127.8 55.5C127.3 54.5 126.9 53.5 126.8 52.4C126.7 51.3 126.6 49.6 126.6 47.4V33.1C126.6 30 126.8 27.8 127 26.4C127.3 25.1 128.1 23.9 129.4 22.8C130.7 21.7 132.5 21.1 134.6 21.1C136.7 21.1 138.5 21.6 139.8 22.6C141.2 23.6 142.1 24.7 142.5 26C142.9 27.3 143.1 29 143.1 31.4C142.5 31.5 137.2 32.5 136.4 32.7V30.4C136.4 28.5 136.3 27.3 136.2 26.8C136 26.2 135.5 25.8 134.8 25.8C134.2 25.8 133.7 26.1 133.5 26.6C133.4 26.9 133.2 27.5 133.2 29.8V50.1C133.2 51.6 133.3 52.6 133.5 53.1C133.7 53.7 134.2 54.1 134.9 54.1C135.6 54.1 136.1 53.7 136.4 53.1C136.6 52.5 136.7 51.5 136.7 49.9V45H135.2V40.8C135.7 40.7 142.4 39.2 143.2 39V61.3ZM152.5 58H146V21H152.5V58ZM167.6 58H155.4V21H167.1V26.5H162.1V36.1H166.8V41.3H162.1V52.4H167.6V58Z" fill="white"/>
</svg>
