<svg width="329" height="329" viewBox="0 0 329 329" fill="none" xmlns="http://www.w3.org/2000/svg">
<g clip-path="url(#clip0_14_107)">
<path d="M247.69 88.83V119.38L267.9 111.86V195.99C265.55 220.43 240.17 212.44 232.18 206.33C229.83 204.45 210.56 191.29 210.56 191.29C228.89 184.71 257.56 161.21 243.46 128.78C234.53 110.45 213.85 101.05 194.11 106.69L108.1 136.77V166.38L120.79 162.15V203.51L65.33 151.34L8.45996 171.08V200.69L25.85 194.58V279.65L8.92996 285.76V316.78L73.79 294.22V224.19L109.51 257.09L201.16 232.65C201.16 232.65 213.38 242.52 222.31 249.1C237.82 260.38 256.62 262.73 277.77 257.09C303.62 250.51 321.48 227.01 321.01 200.22V63.45L247.69 88.83ZM191.76 166.85C185.65 168.73 167.79 175.78 167.79 175.78V147.11L186.59 140.53C192.7 138.18 197.87 144.29 198.34 150.4C198.81 156.51 199.28 163.09 191.76 166.85ZM289.52 62.51C306.91 62.51 321.01 48.41 321.01 31.49C321.01 14.57 306.91 0 289.52 0C272.13 0 258.03 14.1 258.03 31.02C258.03 48.41 272.13 62.51 289.52 62.51Z" fill="#FF0000"/>
<path d="M54.99 300.8L34.78 280.59L36.66 272.13L73.32 270.25V294.22L54.99 300.8Z" fill="#AE0F0A"/>
<path d="M320.54 197.87C319.13 221.84 303.62 241.58 272.13 243.46C261.32 244.4 250.04 241.58 241.11 235C227.48 228.42 204.92 207.74 190.82 202.57C178.6 197.87 165.44 196.93 152.75 200.22C142.88 202.1 133.48 206.8 125.02 212.91C118.91 217.61 113.27 222.78 108.1 228.42C105.75 230.77 99.64 238.29 99.17 238.29C98.7 238.29 96.82 236.41 95.88 235.47C94.94 234.53 94 232.18 93.53 232.18C91.65 234.53 90.24 236.88 89.3 239.7C89.3 242.05 89.77 244.87 90.71 247.22C90.71 248.16 90.24 248.63 89.3 249.1C88.83 249.1 86.48 245.81 86.01 245.81C85.07 246.75 84.6 248.16 84.13 249.57C83.66 251.45 83.66 252.86 84.13 254.74C79.43 258.5 74.26 260.85 68.62 262.26C64.39 263.2 45.12 265.08 44.65 265.55C44.18 266.02 35.25 273.54 35.25 273.54L35.72 281.06L37.6 279.18L40.89 284.82L42.3 280.59L46.53 286.23C47.94 281.53 51.23 277.3 55.46 274.95C60.16 273.07 85.07 272.6 85.54 272.6C85.54 273.54 84.13 276.83 84.13 277.3C86.01 279.65 87.89 281.53 89.77 283.41C90.71 283.41 92.12 282.94 93.06 282.47C94 282 94 281.53 94 281.06C94.94 281.06 95.88 281.06 96.82 280.59C94.47 279.65 94.47 278.24 94.94 276.83C95.41 275.42 99.64 274.95 101.52 276.36C103.87 277.3 104.81 280.12 103.87 282.47C102.93 284.82 100.11 283.88 99.64 283.41C99.64 283.88 101.99 285.29 101.99 285.29V285.76C101.99 285.76 102.46 286.7 102.93 286.7C103.4 286.7 111.39 282 112.33 282C113.74 281.06 114.68 279.65 115.62 277.77C113.74 276.83 112.8 274.95 112.8 272.6C113.27 269.78 115.62 267.43 118.91 267.9H119.38C122.2 268.37 124.08 270.72 123.61 273.54C123.61 274.01 123.61 274.48 123.14 274.95C122.2 277.77 107.16 295.63 94 302.21C88.83 305.5 82.72 306.91 76.61 306.91C76.14 306.91 68.15 313.96 68.15 313.96L67.68 320.07L69.09 319.13L71.44 325.71L73.32 323.36L78.02 329L78.96 324.77L85.07 329.47L85.54 325.24L96.35 315.37C97.29 314.43 110.92 307.38 122.67 299.86C136.3 290.93 149.46 281.06 149.46 278.71C145.23 275.42 141.94 270.25 141.47 264.61C141.47 258.03 149.46 251.45 158.39 247.22C167.79 243.46 178.6 244.4 187.06 250.51C204.45 262.73 225.13 269.31 246.75 268.37C279.18 266.49 298.45 256.15 309.73 236.41C317.72 224.66 321.01 211.03 320.54 197.87Z" fill="white"/>
<path d="M90.71 266.02L92.59 256.15L95.88 257.56L91.65 265.55L90.71 266.02Z" fill="black"/>
</g>
<defs>
<clipPath id="clip0_14_107">
<rect width="329" height="329" fill="white"/>
</clipPath>
</defs>
</svg>
