<svg width="301" height="179" viewBox="0 0 301 179" fill="none" xmlns="http://www.w3.org/2000/svg">
<path d="M239.474 58.4613C239.761 58.4613 240.048 58.4613 240.334 58.4434C245.548 57.8885 249.382 51.4982 248.862 46.6473C248.647 44.6783 247.035 43.2284 244.957 43.121C244.706 43.121 244.455 43.121 244.204 43.1389C241.893 43.3895 239.385 44.7141 237.485 46.6831C235.461 48.7774 234.44 51.3192 234.69 53.6283C234.995 56.4028 236.894 58.3539 239.438 58.4792L239.474 58.4613ZM147.992 61.1821C148.081 61.5222 148.278 61.7012 148.565 61.7012C148.673 61.7012 148.816 61.7012 148.959 61.6296C163.167 55.7942 171.57 55.0424 175.153 54.7202C175.942 54.6486 176.515 54.5949 176.909 54.5233C177.053 54.5233 177.465 54.4517 177.751 54.0937C178.002 53.7715 178.056 53.324 177.913 52.7691C177.698 51.9636 176.264 45.4659 176.246 45.3585C176.246 45.3048 175.834 44.1771 174.401 44.0876C173.81 44.0518 173.129 44.2129 172.376 44.553C171.534 44.9289 151.468 53.682 147.813 56.2596C147.024 56.8145 147.239 57.5663 147.311 57.8527C147.365 58.0138 147.759 59.947 148.01 61.1642L147.992 61.1821ZM253.592 140.461C252.123 140.461 247.913 142.681 247.734 141.696C247.447 140.837 248.737 135.807 248.827 135.181C249.651 133.588 256.423 133.337 257.23 132.854C257.875 131.744 257.964 129.775 257.588 129.041C255.671 129.524 236.088 133.462 235.819 133.946C235.55 134.554 237.27 136.774 238.292 136.523C239.295 136.398 241.212 135.413 243.595 135.288C246.247 136.147 244.133 142.162 244.061 142.788C242.036 143.773 238.758 144.274 237.378 144.883C237.378 145.616 238.919 147.478 239.564 147.353C240.209 147.227 242.681 146.368 242.95 146.852C243.326 147.353 241.122 156.195 241.391 157.914C241.57 158.773 243.487 159.883 244.222 159.883C244.598 156.07 246.695 146.852 246.874 146.368C248.701 144.149 253.27 144.023 253.825 143.665C254.184 142.681 254.452 140.962 253.539 140.461H253.592ZM276.365 136.774C275.272 138.009 270.237 146.494 270.237 146.494C270.972 141.571 271.975 136.774 271.885 136.291C271.796 135.306 270.237 134.071 269.789 134.322C268.051 136.899 262.461 145.867 262.461 145.867C264.558 137.508 264.934 132.353 264.934 132.353C264.647 130.885 263.106 129.524 262.569 130.384C261.279 131.744 254.417 137.633 254.417 137.633C255.151 138.743 256.334 139.226 256.692 139.101C257.068 138.976 259.989 136.899 260.257 136.649C260.078 137.866 254.865 157.413 255.133 158.272C255.312 158.88 256.316 160.491 257.23 160.241L266.385 145.992C266.098 148.695 265.292 153.743 265.185 154.602C265.364 155.712 265.274 157.556 267.478 157.681L274.519 146.494C274.25 149.071 273.695 155.086 273.695 155.461C275.433 154.978 277.44 153.385 277.44 153.385C277.619 151.165 279.267 139.244 278.64 137.651C278.353 137.15 277.081 136.416 276.347 136.792L276.365 136.774ZM283.621 79.1716L283.227 79.6907C283.119 79.8339 272.244 93.4379 260.58 95.4785C259.845 95.6038 259.147 95.6575 258.466 95.6217C255.868 95.4785 253.951 94.1897 253.36 92.2207C275.433 76.0391 279.482 69.2013 278.855 63.4017C278.515 60.2155 276.221 58.4076 272.208 58.1928C271.348 58.157 270.416 58.1928 269.431 58.2823C256.656 59.5711 243.362 72.4054 240.997 85.7767C240.675 88.2111 240.621 90.4844 240.621 90.5381C240.639 90.9319 240.71 91.4689 240.818 92.1491C237.217 94.2613 232.773 96.4272 230.767 96.642C228.509 96.8926 226.95 96.4272 226.252 95.2995C225.553 94.1718 225.678 92.3639 226.592 90.2338L238.686 66.8385C238.758 66.7311 239.116 66.2299 238.937 65.7645C238.865 65.5855 238.686 65.3528 238.256 65.2633C238.005 65.2096 236.482 65.138 235.586 65.0843C233.365 64.9769 229.584 64.8158 228.294 64.8516C226.126 64.9053 224.084 69.3982 220.017 78.3303C219.372 79.7444 218.673 81.2838 217.92 82.9127C216.165 87.0476 207.851 93.1336 204.322 93.5095C202.799 93.6706 200.935 92.6682 200.738 90.9677C200.219 86.1884 205.863 79.5833 208.299 76.9699L208.442 76.8267C210.825 74.3923 212.886 72.2801 212.474 68.5211C211.99 66.3194 210.933 64.5115 208.908 62.4709C208.622 62.1845 208.156 62.0234 207.511 61.9876C205.612 61.8981 202.028 62.8289 196.618 64.243C194.862 64.7084 192.909 65.2096 190.795 65.7466C191.028 64.8874 191.207 63.9208 191.081 62.8647C190.956 61.6117 189.737 60.6451 188.358 60.7883C185.169 61.1284 174.24 71.1524 175.153 79.5833C175.386 81.6597 175.995 82.9843 178.343 83.1633C176.157 85.902 166.195 97.7518 155.839 99.5597C155.194 99.6671 154.549 99.7029 153.904 99.6671C151.342 99.5418 148.583 98.1456 148.368 94.6551C172.251 80.6036 174.67 72.7455 174.096 67.4829C173.756 64.2967 171.427 62.4351 167.557 62.2203C166.625 62.1666 165.658 62.2203 164.672 62.3635C152.793 64.1177 145.734 71.2061 141.9 76.8446C137.457 83.396 135.665 90.377 135.862 94.2434L134.465 94.9952C131.544 96.5704 129.932 97.4296 126.653 98.2172C126.42 98.2709 126.169 98.3067 125.954 98.2888C125.04 98.2351 124.503 97.6086 124.36 97.4296C123.267 95.9618 125.56 91.8985 126.563 90.4307L130.953 83.4497L131.365 82.859C132.978 80.5499 136.346 75.7169 136.113 73.5689C135.826 70.9376 131.293 69.1118 128.158 68.9507C127.764 68.9328 127.405 68.9507 127.065 68.9686C121.045 69.613 106.031 85.2397 100.817 90.8424L128.015 38.0016C128.14 37.7689 131.186 32.2378 130.075 29.517C129.788 28.8368 129.287 28.3714 128.552 28.1387C127.782 27.906 126.85 27.7628 125.847 27.7091C123.876 27.6017 121.815 27.8702 120.185 28.4072C117.569 29.2843 115.455 33.0433 114.667 34.6006C113.341 37.2677 111.406 41.6353 109.184 46.6831C103.415 59.7859 95.4958 77.7396 88.6158 87.5846C84.3338 94.7983 58.4979 115.383 46.87 116.654C45.8667 116.762 44.8992 116.797 44.0033 116.744C37.8042 116.422 34.2567 112.519 33.4683 105.127C32.5367 96.463 36.9083 83.038 44.1288 72.477C64.4283 42.7988 77.3463 37.4646 81.9508 36.5338H82.0225C82.3271 36.4622 82.6496 36.4264 82.9363 36.4443C83.635 36.4801 84.8354 36.7486 84.9967 38.1806C85.3908 41.8501 76.0025 57.083 69.0329 64.0461C62.1708 70.9376 56.3479 75.1083 56.2763 75.162C53.0692 77.7217 48.8588 81.5344 49.3067 84.9891C49.7188 88.05 51.9942 90.2159 54.9863 90.377C55.6313 90.4128 56.2583 90.3412 56.9033 90.1801C60.5583 89.2135 65.1271 86.4032 70.1079 82.0177C84.1188 69.7204 97.8608 48.7774 95.9796 37.1961C94.9942 30.949 91.1958 27.3332 85.2833 27.0289C84.3875 26.9752 83.4558 27.011 82.4704 27.1184C68.2804 28.6578 45.2754 50.7464 36.9621 60.5735C31.3721 67.0891 13.3479 89.9653 15.5696 110.586C16.8058 122.024 24.5996 129.506 35.905 130.097C37.4279 130.169 39.0046 130.133 40.5992 129.954C45.6517 129.417 63.855 125.568 87.3258 99.2017C87.0929 101.511 86.86 106.594 88.9742 109.226C90.1208 110.658 91.805 111.141 93.9371 110.676C95.8363 110.264 97.5563 107.901 100.387 103.981C104.114 98.8079 109.722 91.0751 119.88 82.2146C119.54 82.7695 119.182 83.3423 118.805 83.933C115.043 89.8579 109.883 97.9845 110.6 104.393C110.904 107.221 112.714 110.157 116.064 110.336C116.387 110.336 116.709 110.336 117.05 110.3C121.224 109.62 134.59 102.549 137.063 101.224C139.41 108.152 144.534 111.893 150.84 111.177C167.7 109.279 184.631 83.6466 185.957 81.5523L197.191 77.7575C196.868 78.2408 196.528 78.742 196.188 79.2253C192.389 84.8101 188.071 91.1467 188.86 98.3604C189.29 102.281 192.246 106.594 196.904 106.845C197.316 106.863 197.746 106.845 198.176 106.809C203.014 106.29 210.252 98.9332 214.462 94.1539C214.803 97.2327 216.595 107.651 224.872 108.098C225.374 108.134 225.893 108.116 226.431 108.062C231.931 107.561 239.152 102.424 242.878 99.7208C245.566 105.001 250.135 107.686 255.563 107.078C268.105 105.682 279.536 92.1849 285.251 84.2731L285.359 84.112L283.585 79.1179L283.621 79.1716ZM162.594 70.6154C162.755 70.6154 162.898 70.6512 163.024 70.687C163.364 70.7944 163.525 71.0092 163.561 71.3672C163.848 74.0522 156.825 82.6621 148.189 87.7815C149.765 78.9926 158.993 70.4364 162.594 70.6154ZM267.281 66.4447C267.46 66.4447 267.55 66.4805 267.585 66.4984C267.657 66.5342 267.997 66.6953 268.069 67.286C268.248 68.6106 267.084 72.8708 252.983 83.9688C256.674 69.1834 265.31 66.3552 267.299 66.4626L267.281 66.4447ZM221.862 112.143C121.081 106.863 27.2692 137.919 17.4688 142.52C13.9929 144.149 13.6525 145.151 12.4521 148.856C12.3088 149.304 12.1475 149.787 11.9683 150.324C10.0154 156.124 10.3379 159.578 10.3558 159.74C10.3558 159.811 10.4813 160.438 11.5921 160.509C12.7029 160.563 14.5125 160.044 16.9492 158.952C106.891 119.035 198.14 117.155 244.527 119.59C265.471 120.682 278.138 122.704 278.264 122.722L278.64 122.776L279.016 119.321L278.694 119.25C260.795 115.562 241.678 113.164 221.88 112.126L221.862 112.143Z" fill="white"/>
</svg>
