<svg width="144" height="100" viewBox="0 0 144 100" fill="none" xmlns="http://www.w3.org/2000/svg">
<path d="M119.54 79.23L117.92 86.91L114.26 79.23H110.59L107.31 94.67H111.69L113.25 87.34L116.91 94.67H120.63L123.91 79.23H119.55H119.54ZM17.53 58.58L33.05 72.16L42.57 61.85L41.54 69.36C41.54 69.36 40.78 72.69 43.94 72.61C47.11 72.52 53.6 72.33 53.6 72.33C53.6 72.33 55.84 72.33 56.41 68.88C56.6967 67.1333 58.5533 53.3867 61.98 27.64C61.98 27.64 62.8 23.69 59.85 24.15C57.89 24.45 54.3267 25.0667 49.16 26C49.16 26 47.59 26.11 47.07 28.94L42.89 59.47L28.65 52.03L32.12 48.33C35.59 44.63 41.84 38.61 41.61 30.97C41.38 23.33 32.82 23.33 32.82 23.33C24.49 22.17 8.52001 34.67 8.52001 34.67L5.51001 74.71L16.91 72.56L17.54 58.58H17.53ZM18.68 39.95C26.98 34.76 26.59 39.04 26.59 39.04C26.07 44.36 18.16 48.51 18.16 48.51L18.68 39.95ZM130.81 78.92H130.49C127.66 78.92 124.36 80.3 124.36 84.21C124.36 85.93 125.44 87.43 127.66 88.77L127.87 88.9C128.73 89.43 129.13 89.73 129.13 90.15C129.13 91.03 127.73 91.1 127.3 91.1C126.21 91.1 125.04 90.63 124.6 90.31L123.79 89.73L122.07 93.64L122.73 94C124.22 94.81 125.9 94.98 127.05 94.98C131.03 94.98 133.5 92.85 133.5 89.41C133.5 87.1 131.95 85.91 130.23 84.79L129.87 84.57C129.19 84.16 128.75 83.87 128.75 83.48C128.75 83.3 128.75 82.82 130.29 82.82C131.17 82.82 132.07 83.05 132.76 83.45L133.55 83.91L134.82 80.02L134.07 79.7C132.93 79.21 132.14 78.94 130.84 78.91L130.81 78.92ZM137.64 20.91L105.63 25.58C105.63 25.58 104.48 25.62 104 27.2L94.92 61.56C90.32 57.21 84.61 51.96 84.03 52.06C84.03 52.06 93.41 46.46 96.7 40.7C99.99 34.94 102.02 26.96 96.22 23.83C89.4 20.15 82.94 23 82.94 23C73.87 26.49 73.84 26.46 66.42 29.68L64.95 38.28L58.52 71.81L69.88 71.32L71.69 56.34L87.16 73.45L92.42 71.04L92.37 71.21L92.21 72.31L126.79 71.52L134.02 58L133.55 56.27L111.39 57.53L112.96 51.87L126.32 49.98L130.88 40.24C130.88 40.24 131.51 38.35 129.62 38.51C127.73 38.67 115.78 40.24 115.78 40.24L117.04 34.74L133.23 32.38L134.96 31.28L138.26 22L137.63 20.9L137.64 20.91ZM74.21 47.49L75.76 38.3C76.31 37.97 80.96 36.2 82.24 36.2C83.52 36.2 85.17 36.36 83.96 40.02C82.74 43.67 74.22 47.49 74.22 47.49H74.21ZM54.89 20.99C59.3 20.99 62.88 17.41 62.88 13C62.88 8.59001 59.3 5.01001 54.89 5.01001C50.48 5.01001 46.9 8.59001 46.9 13C46.9 17.41 50.48 20.99 54.89 20.99ZM18.94 91.19C20.12 89.72 20.89 88.05 21.1 86.47L21.22 85.55H17.78C18.42 84.94 18.91 84.16 19.07 83.13C19.29 81.58 18.79 80.61 18.32 80.08C17.62 79.27 16.51 78.82 15.19 78.82C12.95 78.82 10.3 80.33 9.76001 82.87C9.47001 84.22 9.72001 85.12 10.03 85.81C8.03001 86.98 6.93001 88.71 6.93001 90.71C6.93001 93.28 8.86001 94.95 11.85 94.95C13.18 94.95 14.48 94.58 15.82 93.83L16.57 94.68H22.12L20.85 93.32C20.27 92.7 19.63 91.99 18.94 91.2V91.19ZM12.51 91.78C11.37 91.78 10.6 91.01 10.6 89.87C10.6 89.03 11.11 88.26 11.89 87.9C12.51 88.89 13.32 89.98 14.35 91.23C13.87 91.52 13.28 91.78 12.51 91.78ZM13.67 84.95C13.34 84.43 13.04 83.87 13.22 83.03C13.39 82.2 14.06 81.6 14.82 81.6C15.08 81.6 15.29 81.69 15.45 81.86C15.66 82.09 15.77 82.46 15.73 82.84C15.63 83.88 14.82 84.38 13.67 84.94V84.95ZM17.13 86.26C17.03 86.93 16.82 87.58 16.5 88.19C16.16 87.74 15.87 87.34 15.61 86.96C16.13 86.72 16.66 86.43 17.15 86.08L17.13 86.26ZM63.65 79.22H59.24L50.58 94.68H55.33L56.76 92.02H60.77L61.06 94.68H65.77L63.67 79.42L63.64 79.23L63.65 79.22ZM57.68 88.58L60.45 84.24L60.91 88.58H57.68ZM102.1 78.83C96.61 78.83 93.33 83.95 93.33 88.89C93.33 92.72 95.59 95 99.37 95C104.86 95 108.15 89.84 108.15 84.85C108.15 81.07 105.89 78.82 102.11 78.82L102.1 78.83ZM99.69 91.42C98.23 91.42 97.49 90.5 97.49 88.69C97.49 86.06 98.82 82.36 101.76 82.36C103.24 82.36 103.96 83.24 103.96 85.05C103.96 87.69 102.63 91.42 99.69 91.42ZM78.83 79.24L77.21 86.92L73.55 79.24H69.88L66.6 94.68H70.98L72.54 87.35L76.2 94.68H79.92L83.2 79.24H78.84H78.83ZM33.45 83.05C34.24 83.05 35.18 83.28 35.73 83.62L36.47 84.07L38.51 80.18L37.76 79.81C36.3 79.1 34.67 78.95 33.55 78.95C28.55 78.95 24.48 83.25 24.48 88.53C24.48 92.34 27.05 95 30.73 95C32.99 95 34.64 94.28 35.25 93.97L35.79 93.69L35.07 89.75L34.08 90.31C33.48 90.65 32.49 90.89 31.68 90.89C30.03 90.89 29.16 89.97 29.16 88.24C29.16 85.75 30.5 83.06 33.46 83.06L33.45 83.05ZM89.21 82.84C90.09 82.84 90.99 83.07 91.68 83.47L92.46 83.93L94.17 80.04L93.42 79.72C92.28 79.23 91.04 78.97 89.74 78.93H89.42C86.59 78.93 83.29 80.31 83.29 84.22C83.29 85.94 84.37 87.43 86.59 88.78L86.8 88.91C87.66 89.44 88.07 89.74 88.07 90.16C88.07 91.04 86.67 91.11 86.24 91.11C85.13 91.11 84 90.65 83.54 90.32L82.73 89.74L81.01 93.65L81.67 94.01C83.16 94.82 84.84 94.99 85.99 94.99C89.97 94.99 92.44 92.86 92.44 89.42C92.44 87.11 90.89 85.92 89.17 84.8L88.81 84.58C88.04 84.12 87.69 83.85 87.69 83.49C87.69 83.31 87.69 82.83 89.23 82.83L89.21 82.84ZM48.5 79.24L47.36 84.54H43.19L44.33 79.24H39.76L36.48 94.68H41.05L42.36 88.56H46.53L45.22 94.68H49.79L53.07 79.24H48.5Z" fill="white"/>
</svg>
