<svg width="194" height="85" viewBox="0 0 194 85" fill="none" xmlns="http://www.w3.org/2000/svg">
<path d="M34.2203 28.114C34.2203 34.4463 30.2333 39.4431 21.8357 39.4431H0V0H21.5517C29.2778 0 33.3991 3.72309 33.3991 9.88526C33.3991 14.1085 31.1474 17.4965 26.7265 18.667C31.5761 19.4972 34.2151 22.8851 34.2151 28.114H34.2203ZM10.9437 15.5524H18.0449C20.5911 15.5524 21.8357 13.9951 21.8357 11.7726C21.8357 9.55008 20.5911 8.21452 18.0449 8.21452H10.9437V15.5524ZM22.6517 27.0517C22.6517 24.6075 21.1178 23.1069 18.4788 23.1069H10.9437V31.2131H18.4788C21.2624 31.2131 22.6517 29.4341 22.6517 27.0465V27.0517Z" fill="white"/>
<path d="M47.4932 9.33351V16.001H65.1456V24.8911H47.4932V39.4482H36.5495V0H65.1456V9.33351H47.4932Z" fill="white"/>
<path d="M96.7062 0L90.3021 25.02L83.8981 0H68.0068V39.4431H78.0415V11.0455L85.5301 39.4431H95.0742L102.568 11.0455V39.4431H112.597V0H96.7062Z" fill="white"/>
<path d="M0 45H13.598C21.231 45 26.029 48.9706 26.029 55.3235C26.029 59.9026 23.354 62.8677 19.403 64.1104V64.162C23.829 64.8788 27.62 67.9985 27.62 73.5574C27.62 80.1476 22.982 84.4379 14.182 84.4379H0V45ZM14.156 62.811C19.217 62.811 22.481 59.7686 22.481 55.504C22.481 50.9765 19.088 48.2229 13.733 48.2229H3.57899V62.8058H14.156V62.811ZM14.182 81.2047C20.41 81.2047 23.964 78.4253 23.964 73.6863C23.964 68.9474 20.064 65.9823 14.368 65.9823H3.57899V81.1995H14.182V81.2047Z" fill="white"/>
<path d="M32.237 56.489H35.63V73.9288C35.63 78.9307 38.522 81.7617 43.109 81.7617C47.695 81.7617 51.222 78.9565 51.222 73.4492V56.489H54.641V84.4431H51.299V79.9672C49.42 83.3551 46.264 84.9433 42.525 84.9433C36.746 84.9433 32.237 81.1068 32.237 74.1453V56.489Z" fill="white"/>
<path d="M59.015 76.0738H62.408C62.672 79.833 65.244 82.004 69.701 82.004C74.158 82.004 76.807 79.8846 76.807 76.8422C76.807 74.4082 74.953 73.2428 71.958 72.5518L67.346 71.469C62.284 70.2778 59.63 67.8954 59.63 63.9506C59.63 59.2374 63.684 55.932 69.597 55.932C75.511 55.932 79.431 59.2941 79.674 64.853H76.332C76.146 61.2279 73.657 58.9229 69.597 58.9229C65.538 58.9229 63.049 61.068 63.049 63.9506C63.049 66.3845 64.877 67.684 68.058 68.4265L72.696 69.5094C77.757 70.7264 80.226 72.8716 80.226 76.7906C80.226 81.8441 75.852 84.9948 69.783 84.9948C63.715 84.9948 59.341 81.8699 59.02 76.0738H59.015Z" fill="white"/>
<path d="M84.415 46.1396H88.128V50.1618H84.415V46.1396ZM84.575 56.4889H87.968V84.443H84.575V56.4889Z" fill="white"/>
<path d="M97.114 84.4379H93.721V56.4889H97.063V60.9597C98.942 57.5718 102.098 55.9836 105.811 55.9836C111.616 55.9836 116.125 59.8201 116.125 66.7816V84.4379H112.706V66.9982C112.706 61.9962 109.845 59.1652 105.259 59.1652C100.673 59.1652 97.119 61.9704 97.119 67.4777V84.443L97.114 84.4379Z" fill="white"/>
<path d="M120.313 70.4892C120.313 62.0426 125.509 55.932 132.853 55.932C140.197 55.932 145.367 61.8879 145.367 70.2778V71.3349H123.706C123.841 77.5538 127.363 81.8699 133.065 81.8699C137.305 81.8699 140.486 79.57 141.467 76.0738H144.886C143.745 81.4213 138.947 84.9948 133.065 84.9948C125.189 84.9948 120.313 78.879 120.313 70.4892ZM141.948 68.344C141.576 62.7336 137.971 59.0002 132.853 59.0002C127.735 59.0002 124.213 62.7078 123.732 68.344H141.948Z" fill="white"/>
<path d="M148.073 76.0738H151.466C151.729 79.833 154.301 82.004 158.758 82.004C163.215 82.004 165.865 79.8846 165.865 76.8422C165.865 74.4082 164.011 73.2428 161.015 72.5518L156.403 71.469C151.342 70.2778 148.687 67.8954 148.687 63.9506C148.687 59.2374 152.742 55.932 158.655 55.932C164.568 55.932 168.488 59.2941 168.731 64.853H165.39C165.204 61.2279 162.714 58.9229 158.655 58.9229C154.596 58.9229 152.106 61.068 152.106 63.9506C152.106 66.3845 153.935 67.684 157.116 68.4265L161.754 69.5094C166.815 70.7264 169.284 72.8716 169.284 76.7906C169.284 81.8441 164.909 84.9948 158.841 84.9948C152.773 84.9948 148.398 81.8699 148.078 76.0738H148.073Z" fill="white"/>
<path d="M172.253 76.0738H175.646C175.91 79.833 178.482 82.004 182.939 82.004C187.396 82.004 190.045 79.8846 190.045 76.8422C190.045 74.4082 188.191 73.2428 185.196 72.5518L180.584 71.469C175.522 70.2778 172.868 67.8954 172.868 63.9506C172.868 59.2374 176.922 55.932 182.835 55.932C188.749 55.932 192.669 59.2941 192.911 64.853H189.57C189.384 61.2279 186.895 58.9229 182.835 58.9229C178.776 58.9229 176.287 61.068 176.287 63.9506C176.287 66.3845 178.115 67.684 181.296 68.4265L185.934 69.5094C190.995 70.7264 193.464 72.8716 193.464 76.7906C193.464 81.8441 189.09 84.9948 183.021 84.9948C176.953 84.9948 172.579 81.8699 172.258 76.0738H172.253Z" fill="white"/>
</svg>
