<?xml version="1.0" encoding="UTF-8"?>
<svg version="1.1" xmlns="http://www.w3.org/2000/svg" width="4546" height="2211">
<path d="M0 0 C0.99950684 0.19867676 1.99901367 0.39735352 3.02880859 0.60205078 C57.2119846 11.74243889 111.12819251 43.82453079 145 88 C145.41958984 88.53786133 145.83917969 89.07572266 146.27148438 89.62988281 C173.96171663 125.26337148 188.78924046 168.65919278 195 213 C195.22647217 214.57104492 195.22647217 214.57104492 195.45751953 216.17382812 C198.12684597 235.69705711 198.28973146 255.19867731 198.3125 274.875 C198.31608521 276.12051636 198.31967041 277.36603271 198.32336426 278.64929199 C198.35852875 301.38276182 197.31938899 323.96351573 193.75 346.4375 C193.64362213 347.12035065 193.53724426 347.80320129 193.42764282 348.50674438 C191.24191649 362.4834828 188.38570469 376.26296873 185 390 C184.72881348 391.11713379 184.45762695 392.23426758 184.17822266 393.38525391 C166.98209467 463.42995526 137.38776567 529.84972899 107 595 C105.90355425 597.35672823 104.8072034 599.71350061 103.7109375 602.0703125 C98.82204965 612.5731129 93.91442893 623.06700655 88.9765625 633.546875 C88.6391655 634.26296432 88.30176849 634.97905365 87.95414734 635.71684265 C86.58409804 638.6242115 85.21389224 641.53150597 83.84280396 644.43838501 C80.04699022 652.4871236 76.27803328 660.54583969 72.58056641 668.64038086 C55.76382242 705.42442952 37.81948468 741.87359028 18.23266602 777.26586914 C14.35846644 784.27805394 10.66842299 791.3783006 7 798.5 C2.31151746 807.59538797 -2.4712226 816.62642862 -7.3972168 825.59521484 C-13.04524684 835.8814053 -18.57023562 846.2331631 -24.10145569 856.58242798 C-26.33899748 860.76781641 -28.58382162 864.94923999 -30.83203125 869.12890625 C-37.88962997 882.25559667 -44.86158065 895.42153136 -51.70703125 908.66015625 C-53.51355884 912.15201446 -55.3335643 915.63612914 -57.17461395 919.10987854 C-63.10704951 930.3092778 -68.86054617 941.58714331 -74.51367188 952.9296875 C-75.41498571 954.73424138 -76.31648588 956.53870219 -77.21815491 958.34307861 C-79.13821843 962.18633264 -81.05704455 966.03020081 -82.97486877 969.87457275 C-86.01740439 975.97333784 -89.06311366 982.07051468 -92.10925293 988.16748047 C-98.57522742 1001.11045957 -105.03780031 1014.0551359 -111.5 1027 C-118.48019805 1040.98250123 -125.46101146 1054.96469329 -132.44575357 1068.94492531 C-135.46380032 1074.98595233 -138.47990393 1081.02794398 -141.49443817 1087.07072449 C-143.38051114 1090.85041373 -145.26830174 1094.62924327 -147.15652275 1098.4078598 C-148.02060595 1100.13787284 -148.88400839 1101.86822611 -149.74661446 1103.59897614 C-154.97071267 1114.07960772 -160.32692555 1124.47971935 -165.8018589 1134.83152008 C-168.22774627 1139.42161459 -170.59154617 1144.04025654 -172.90795898 1148.68652344 C-173.31115356 1149.49116028 -173.71434814 1150.29579712 -174.12976074 1151.12481689 C-175.42050755 1153.70202318 -176.70842957 1156.28062734 -177.99609375 1158.859375 C-178.91940433 1160.70531912 -179.84283342 1162.55120397 -180.76637268 1164.39703369 C-182.6861212 1168.23507124 -184.60445241 1172.07381273 -186.52172852 1175.91308594 C-188.94385677 1180.76302485 -191.36959381 1185.61114834 -193.79630852 1190.45879364 C-202.58754598 1208.02359259 -211.37080094 1225.5840812 -219.77758789 1243.33691406 C-222.90265218 1249.92629416 -226.17972501 1256.43852821 -229.46542358 1262.94888306 C-235.53784977 1274.98787414 -241.4942036 1287.07306755 -247.26953125 1299.2578125 C-249.55275142 1304.07446876 -251.871566 1308.87324006 -254.19842529 1313.66894531 C-260.21186554 1326.06364825 -266.12887485 1338.49487033 -271.90063477 1351.00463867 C-274.90928673 1357.51880488 -277.94752674 1364.01709395 -281.03125 1370.49609375 C-288.85647927 1386.94440681 -296.50928504 1403.44705821 -303.85449219 1420.11572266 C-307.32972906 1427.99974563 -310.83485844 1435.86743732 -314.41796875 1443.703125 C-332.97321951 1484.30579357 -350.37596564 1525.41529318 -367.11047363 1566.80029297 C-367.99160606 1568.97924266 -368.87415476 1571.15761481 -369.75683594 1573.3359375 C-383.19207929 1606.52187496 -396.07886375 1639.92171735 -408.5 1673.5 C-408.87347565 1674.50833893 -409.24695129 1675.51667786 -409.63174438 1676.55557251 C-410.68435219 1679.40061869 -411.73357415 1682.24688444 -412.78125 1685.09375 C-413.09394333 1685.93955124 -413.40663666 1686.78535248 -413.72880554 1687.65678406 C-414.01488174 1688.43713516 -414.30095795 1689.21748627 -414.59570312 1690.02148438 C-414.96846375 1691.03486877 -414.96846375 1691.03486877 -415.34875488 1692.06872559 C-416.00938943 1694.02784447 -416.5264672 1695.98822179 -417 1698 C-411.60720027 1693.39291206 -406.4816417 1688.60938955 -401.5 1683.5625 C-400.82001953 1682.87873291 -400.14003906 1682.19496582 -399.43945312 1681.49047852 C-397.29049074 1679.32942945 -395.14482721 1677.16515274 -393 1675 C-390.16966163 1672.14283983 -387.33587327 1669.28916546 -384.5 1666.4375 C-383.86642578 1665.79562744 -383.23285156 1665.15375488 -382.58007812 1664.49243164 C-378.77285487 1660.66473407 -374.84674151 1657.0413734 -370.7487793 1653.52612305 C-368.38243645 1651.46106523 -366.1903086 1649.24950613 -364 1647 C-360.41510388 1643.37118478 -356.737064 1639.9593714 -352.86328125 1636.64453125 C-350.99548207 1634.99601248 -349.24544376 1633.27696419 -347.5 1631.5 C-344.60000647 1628.5545927 -341.56373569 1625.84536291 -338.43359375 1623.1484375 C-335.23404901 1620.32379929 -332.11945737 1617.4125084 -329 1614.5 C-324.71741138 1610.50482966 -320.41394305 1606.55416901 -315.9765625 1602.73046875 C-313.50842377 1600.56962793 -311.10195991 1598.34562298 -308.6875 1596.125 C-305.06476095 1592.81663086 -301.38307109 1589.63987642 -297.5625 1586.5625 C-293.56773566 1583.34054925 -289.75468333 1579.99322017 -286 1576.5 C-281.47011346 1572.28974225 -276.79707608 1568.3236197 -271.98046875 1564.4453125 C-268.42709058 1561.52995898 -264.96284737 1558.52178951 -261.5 1555.5 C-255.42969417 1550.20973724 -249.26210764 1545.06257873 -243 1540 C-241.27002243 1538.5843237 -239.54087763 1537.1676292 -237.8125 1535.75 C-236.90371094 1535.0075 -235.99492187 1534.265 -235.05859375 1533.5 C-233.44821076 1532.18372271 -231.83814612 1530.86705019 -230.23095703 1529.546875 C-222.02757839 1522.80891712 -213.73865907 1516.21631273 -205.2800293 1509.80126953 C-200.68917989 1506.31320889 -196.16927251 1502.75180129 -191.6875 1499.125 C-183.42633771 1492.45628398 -174.91587888 1486.12789401 -166.39990234 1479.79003906 C-164.19499033 1478.14543938 -161.99621138 1476.49316369 -159.80078125 1474.8359375 C-150.71487269 1467.97926036 -141.52234066 1461.28209057 -132.27783203 1454.64111328 C-130.02260985 1453.01628976 -127.77399172 1451.38274752 -125.52734375 1449.74609375 C-118.18208851 1444.40015986 -110.79606208 1439.12853268 -103.2890625 1434.01171875 C-102.47797531 1433.45792038 -101.66688812 1432.90412201 -100.83122253 1432.33354187 C-91.92740433 1426.25933207 -83.00626542 1420.21071464 -74.07397461 1414.1784668 C-72.22681205 1412.93031336 -70.3804625 1411.68095591 -68.53491211 1410.43041992 C-57.15748199 1402.72151189 -45.70035848 1395.20877985 -34 1388 C-32.39630137 1386.99036424 -30.79435537 1385.97793089 -29.1953125 1384.9609375 C0.06604385 1366.36595354 29.77244841 1348.5811859 60.03222656 1331.65966797 C62.10291718 1330.50167564 64.17249235 1329.34168741 66.24121094 1328.18017578 C80.64192845 1320.09669521 95.1263218 1312.22444634 109.80639648 1304.66040039 C112.22825714 1303.40124021 114.64351063 1302.13214864 117.05493164 1300.85327148 C130.0897278 1293.9442794 143.24013193 1287.28002373 156.4375 1280.6875 C157.53905426 1280.13685883 158.64060852 1279.58621765 159.77554321 1279.01889038 C175.32268476 1271.25412352 190.89926797 1263.61400449 206.74316406 1256.47021484 C209.64790197 1255.1589456 212.54746932 1253.83687809 215.44512939 1252.51005554 C299.92199639 1213.84046222 387.10183585 1180.51840072 480.1875 1150.8125 C480.89698792 1150.58530273 481.60647583 1150.35810547 482.33746338 1150.12402344 C495.23503326 1146.00662462 507.91438198 1142.41326257 521.5625 1142.5625 C522.55338623 1142.57007324 523.54427246 1142.57764648 524.56518555 1142.58544922 C538.34258317 1142.89454665 550.08292287 1147.21716398 560.25 1156.75 C571.10034928 1168.25662041 575.55078539 1182.10720219 575.2734375 1197.59765625 C574.72744576 1210.18519845 568.34190925 1219.99314385 559.5625 1228.625 C555.57600072 1232.00166987 551.46581202 1234.47987514 546.78125 1236.73828125 C546.08693375 1237.07907211 545.39261749 1237.41986298 544.67726135 1237.77098083 C537.25953745 1241.39671459 529.79390242 1244.92385999 522.32339478 1248.43920898 C518.173942 1250.39279179 514.02836497 1252.35456354 509.8828125 1254.31640625 C509.04915665 1254.71090973 508.21550079 1255.10541321 507.35658264 1255.51187134 C488.85803639 1264.27177957 470.39062377 1273.0653609 452.35351562 1282.74902344 C449.76162156 1284.12670655 447.15607891 1285.47570881 444.546875 1286.8203125 C432.88645956 1292.83290006 421.40114871 1299.08609162 410.0078125 1305.58984375 C404.71434225 1308.60780471 399.38347604 1311.55392796 394.04492188 1314.49121094 C380.85062231 1321.75900188 367.87690352 1329.33435914 355.01123047 1337.16796875 C352.04419408 1338.97311234 349.07167274 1340.76888447 346.09765625 1342.5625 C307.47634077 1365.89817176 269.74654373 1390.81324257 233 1417 C231.82422679 1417.83594881 230.64844581 1418.67188668 229.47265625 1419.5078125 C226.59737126 1421.55443781 223.72771366 1423.6087964 220.86035156 1425.66650391 C219.56906387 1426.59209621 218.27666639 1427.51614144 216.98339844 1428.43896484 C206.18452365 1436.14568375 195.5773349 1444.07529528 185.046875 1452.14453125 C180.60008126 1455.55021058 176.11857424 1458.90646106 171.625 1462.25 C165.18549781 1467.05376518 158.89729233 1472.02680794 152.64453125 1477.0703125 C149.14330587 1479.89325106 145.60675326 1482.66891322 142.0625 1485.4375 C134.90303726 1491.0410448 127.84935373 1496.77183076 120.80859375 1502.5234375 C119.2076452 1503.83047541 117.60402024 1505.13423356 116 1506.4375 C110.55577364 1510.86884704 105.17890431 1515.37263539 99.83081055 1519.91894531 C96.46111255 1522.77892853 93.05951093 1525.59274041 89.625 1528.375 C83.9219866 1533.0185276 78.3801402 1537.83740409 72.8359375 1542.66796875 C69.7646458 1545.34233833 66.67185751 1547.99002629 63.57006836 1550.62890625 C57.48372935 1555.80977657 51.54001333 1561.11679467 45.671875 1566.54296875 C42.81755188 1569.16777759 39.91284952 1571.72438678 36.984375 1574.265625 C33.81097036 1577.03923063 30.68724066 1579.8675286 27.55859375 1582.69140625 C25.90747667 1584.1811928 24.25399856 1585.66836877 22.59765625 1587.15234375 C16.22600799 1592.8630755 9.93430756 1598.65671382 3.65576172 1604.46923828 C2.06584753 1605.93912356 0.47301568 1607.40576059 -1.12109375 1608.87109375 C-19.07540305 1625.3502053 -19.07540305 1625.3502053 -36.41015625 1642.47265625 C-38.4577777 1644.470863 -40.52597011 1646.33574682 -42.69322205 1648.19740295 C-46.78941839 1651.77032559 -50.66199246 1655.52051793 -54.49829102 1659.36889648 C-55.55119324 1660.41917023 -55.55119324 1660.41917023 -56.62536621 1661.49066162 C-58.92071643 1663.78164844 -61.21243364 1666.07622899 -63.50390625 1668.37109375 C-65.11223513 1669.97874801 -66.72071236 1671.58625389 -68.32933044 1673.19361877 C-71.69050063 1676.55331945 -75.04986786 1679.91480972 -78.40795898 1683.27758789 C-82.69704205 1687.57236776 -86.99059939 1691.86264209 -91.28552341 1696.15157986 C-94.60487798 1699.46730863 -97.92183197 1702.78543065 -101.23808098 1706.10426521 C-102.81967868 1707.6865266 -104.40201016 1709.26805489 -105.98510933 1710.84881401 C-108.20287961 1713.06402453 -110.41738504 1715.28245032 -112.63110352 1717.50170898 C-113.27597214 1718.14455338 -113.92084076 1718.78739777 -114.58525085 1719.44972229 C-118.38825401 1723.27023957 -122.00139258 1727.20752393 -125.51762295 1731.29388523 C-127.24515852 1733.28216072 -129.05684387 1735.15638086 -130.9375 1737 C-131.60523437 1737.66 -132.27296875 1738.32 -132.9609375 1739 C-134.3203125 1740.33333333 -135.6796875 1741.66666667 -137.0390625 1743 C-141.01075076 1746.92568414 -144.76589479 1750.95652071 -148.41015625 1755.1875 C-150.50099282 1757.57115643 -152.72887685 1759.78864325 -155 1762 C-158.62881522 1765.58489612 -162.0406286 1769.262936 -165.35546875 1773.13671875 C-167.51422774 1775.58262858 -169.83084338 1777.84345225 -172.15844727 1780.12719727 C-173.92836857 1781.92715303 -175.58199451 1783.78083638 -177.2265625 1785.6953125 C-180.99683414 1790.03182272 -184.91842412 1794.20885468 -188.875 1798.375 C-193.93838517 1803.73013618 -198.95909735 1809.11125398 -203.86328125 1814.61328125 C-206.38542282 1817.430518 -208.94092819 1820.21637895 -211.5 1823 C-216.3696262 1828.30105874 -221.19324191 1833.64192916 -226 1839 C-227.49971128 1840.66692647 -228.99971321 1842.33359149 -230.5 1844 C-231.23992188 1844.82242187 -231.97984375 1845.64484375 -232.7421875 1846.4921875 C-234.26708244 1848.18592894 -235.79315402 1849.87861169 -237.3203125 1851.5703125 C-241.31556007 1855.99894286 -245.28113611 1860.44881779 -249.1953125 1864.94921875 C-251.22958141 1867.26088797 -253.3022231 1869.5353143 -255.375 1871.8125 C-258.44746773 1875.21083552 -261.38442622 1878.67590523 -264.25 1882.25 C-268.34822522 1887.32262842 -272.73109151 1892.05907994 -277.19775391 1896.80322266 C-281.26137809 1901.14258852 -285.04162566 1905.64723205 -288.7578125 1910.2890625 C-291.23906709 1913.28904627 -293.84867605 1916.15150408 -296.5 1919 C-300.78963052 1923.60996248 -304.80411347 1928.37783795 -308.75390625 1933.28515625 C-311.0883059 1936.10673495 -313.51990598 1938.80590712 -316 1941.5 C-320.11378909 1945.9698512 -323.97087297 1950.59044893 -327.78515625 1955.31640625 C-329.95632827 1957.94708557 -332.20241357 1960.47942424 -334.5 1963 C-337.52282421 1966.31989486 -340.42512161 1969.69764112 -343.25 1973.1875 C-346.85470085 1977.63852192 -350.55370267 1981.99198605 -354.3125 1986.3125 C-354.86357422 1986.94599365 -355.41464844 1987.5794873 -355.98242188 1988.23217773 C-357.10162485 1989.51831655 -358.22092837 1990.80436788 -359.34033203 1992.09033203 C-365.4607846 1999.13272391 -371.56030337 2006.19002801 -377.4375 2013.4375 C-381.57996379 2018.54227843 -385.88119099 2023.49622682 -390.20068359 2028.45068359 C-394.12262104 2032.95959326 -397.93039115 2037.54707017 -401.69140625 2042.19140625 C-404.41344091 2045.5029848 -407.20139731 2048.75313059 -410 2052 C-413.55457492 2056.124643 -417.06792298 2060.27207904 -420.5 2064.5 C-423.93208013 2068.7279248 -427.44551171 2072.8752789 -431 2077 C-435.31934272 2082.01314773 -439.55097277 2087.08537515 -443.72265625 2092.22265625 C-446.28204054 2095.34396367 -448.88593791 2098.4245003 -451.5 2101.5 C-454.87283589 2105.46903543 -458.21176645 2109.46017021 -461.5 2113.5 C-465.24787798 2118.1045358 -469.06983444 2122.64019191 -472.9140625 2127.1640625 C-475.81244823 2130.5805954 -478.671551 2134.02504838 -481.5 2137.5 C-485.24712914 2142.1036158 -489.06466071 2146.64167188 -492.9140625 2151.15966797 C-495.83912398 2154.60049623 -498.68341017 2158.09420346 -501.5 2161.625 C-518.45745974 2182.27408372 -540.58360922 2195.2952697 -567.3984375 2198.62109375 C-597.25738908 2201.48441415 -626.2738392 2195.38674234 -653 2182 C-654.1152002 2181.4433667 -654.1152002 2181.4433667 -655.25292969 2180.87548828 C-676.3929089 2170.14183432 -695.69542985 2154.9958539 -710 2136 C-710.4031543 2135.47712402 -710.80630859 2134.95424805 -711.22167969 2134.41552734 C-736.6735867 2101.28500888 -741.3941293 2063.83002983 -736.06083679 2023.09449768 C-735.55422016 2019.39428576 -735.02817444 2015.69719121 -734.5 2012 C-734.22640077 2010.01347773 -733.95282271 2008.026952 -733.68102741 2006.04018211 C-732.66801323 1998.63730164 -731.61981062 1991.23979148 -730.55389404 1983.84436035 C-730.02634183 1980.18282826 -729.50323974 1976.52068529 -728.98095703 1972.85839844 C-713.57298116 1865.26369516 -690.11266204 1759.44574281 -649.58984375 1636.6796875 C-648.16051109 1632.48119063 -646.74949764 1628.27669876 -645.34106445 1624.07115173 C-634.76760192 1592.51524098 -623.50965473 1561.22539964 -612 1530 C-611.44832153 1528.50252228 -611.44832153 1528.50252228 -610.88549805 1526.97479248 C-597.06503956 1489.47545967 -583.12785902 1451.99493027 -568 1415 C-567.55037903 1413.89963409 -567.55037903 1413.89963409 -567.0916748 1412.77703857 C-551.09632322 1373.658262 -534.31565742 1334.88114542 -517.03582764 1296.31384277 C-515.9612317 1293.91339895 -514.88880172 1291.51199716 -513.81689453 1289.11035156 C-504.36061272 1267.92710475 -494.71461668 1246.84866494 -484.77893066 1225.88609314 C-481.60092022 1219.17317761 -478.4880485 1212.43077622 -475.375 1205.6875 C-469.27425559 1192.49642081 -462.95712914 1179.41544578 -456.61523438 1166.33935547 C-454.26710995 1161.48481407 -451.94545255 1156.61781122 -449.625 1151.75 C-429.67416907 1109.97246272 -409.24944327 1068.41740015 -388.5625 1027 C-388.00227142 1025.87695465 -387.44204285 1024.7539093 -386.86483765 1023.59683228 C-381.16997446 1012.18621022 -375.42221788 1000.81283555 -369.44850159 989.54541016 C-365.99665679 983.0269095 -362.68006862 976.44748427 -359.40930176 969.8366394 C-354.75873388 960.44326021 -350.05543962 951.08430125 -345.12890625 941.83203125 C-340.93112194 933.92552489 -336.85757013 925.95582533 -332.77548218 917.98919678 C-326.39613285 905.53942989 -320.01475926 893.09325716 -313.453125 880.73828125 C-311.63198088 877.3065016 -309.81602229 873.871992 -308 870.4375 C-303.72859495 862.36061956 -299.45134549 854.28684344 -295.1729126 846.21368408 C-294.0203129 844.03833734 -292.86822677 841.86271942 -291.71630859 839.68701172 C-284.36660337 825.80627608 -277.0068277 811.9336775 -269.45556641 798.16113281 C-265.42274265 790.79947636 -261.45643817 783.4028823 -257.5 776 C-252.03671626 765.77979647 -246.52174019 755.58934802 -240.9609375 745.421875 C-237.79070451 739.62354639 -234.64452652 733.81229923 -231.5 728 C-226.85726722 719.42010856 -222.1952849 710.85099662 -217.51953125 702.2890625 C-213.27871891 694.51980526 -209.0628668 686.73716747 -204.85107422 678.95214844 C-201.77401956 673.26706322 -198.68561925 667.58843506 -195.58349609 661.91699219 C-187.96808505 647.99152344 -180.46436013 634.00686389 -173 620 C-172.64832764 619.34026184 -172.29665527 618.68052368 -171.93432617 618.00079346 C-162.49681012 600.29137848 -153.15599436 582.53611822 -144.00830078 564.67504883 C-143.35980697 563.40961341 -142.71120666 562.14423257 -142.0625 560.87890625 C-141.73531479 560.2404628 -141.40812958 559.60201935 -141.07102966 558.94422913 C-139.35405893 555.60289073 -137.61946345 552.27221081 -135.85522461 548.95556641 C-128.24141861 534.63764292 -120.99327614 520.13979733 -113.75073242 505.63183594 C-111.93392315 501.99253987 -110.11350676 498.35506205 -108.29212093 494.71805477 C-100.42252676 478.99997902 -92.63656866 463.25084654 -85.11880493 447.36053467 C-83.78472536 444.54579818 -82.43746336 441.73752766 -81.08920288 438.92956543 C-61.86729049 398.84329682 -43.67432486 357.55675296 -34 314 C-33.81083008 313.15598633 -33.62166016 312.31197266 -33.42675781 311.44238281 C-29.8376656 294.83684953 -27.58391427 274.81517241 -36.375 259.5625 C-40.28326171 253.87986428 -45.19636494 250.41572646 -52 249 C-80.79272744 246.36806566 -108.87126552 263.04248171 -131 280 C-131.58765137 280.45020508 -132.17530273 280.90041016 -132.78076172 281.36425781 C-143.47084176 289.59893755 -153.88533496 298.17095478 -164.16210938 306.9140625 C-167.59040745 309.82587913 -171.05974315 312.67763477 -174.5625 315.5 C-179.63607493 319.62690206 -184.43741142 324.00102558 -189.23046875 328.4453125 C-191.45918393 330.50113722 -193.70767919 332.51616957 -196 334.5 C-200.88562556 338.74092445 -205.63217289 343.13278956 -210.38818359 347.51757812 C-212.0007454 349.00068556 -213.61888254 350.47748874 -215.23828125 351.953125 C-221.68581837 357.84420702 -227.9448474 363.86798229 -234.05078125 370.11328125 C-236.22375628 372.29153507 -238.49015792 374.31919335 -240.8203125 376.328125 C-245.26297668 380.17555947 -249.4194434 384.27194716 -253.5625 388.4375 C-254.63661133 389.50581055 -254.63661133 389.50581055 -255.73242188 390.59570312 C-259.74784 394.61842866 -263.55915334 398.74680427 -267.26928711 403.05102539 C-270.78309242 407.00795976 -274.61566731 410.65451953 -278.39453125 414.35546875 C-282.17367878 418.08767035 -285.73692589 421.92905156 -289.20507812 425.95117188 C-293.01758738 430.30299147 -297.05305126 434.45234702 -301.0390625 438.64453125 C-304.92259167 442.74547807 -308.70968311 446.90695603 -312.41015625 451.17382812 C-314.56764124 453.65202034 -316.78112925 456.07675958 -319 458.5 C-324.01913521 464.00899075 -328.94120436 469.58723517 -333.78125 475.25390625 C-334.8124583 476.46097313 -335.84370948 477.66800337 -336.875 478.875 C-337.39473389 479.48359863 -337.91446777 480.09219727 -338.44995117 480.71923828 C-341.47905595 484.25642957 -344.55156303 487.74401054 -347.6875 491.1875 C-351.53851005 495.42708043 -355.14843955 499.82932112 -358.75 504.28125 C-360.93501569 506.92147729 -363.19171391 509.4672972 -365.5 512 C-369.36533345 516.24651686 -373.01398246 520.6301311 -376.625 525.09375 C-379.16665169 528.20392904 -381.76600854 531.25895587 -384.375 534.3125 C-388.60350573 539.27601455 -392.6671256 544.34608165 -396.66796875 549.49414062 C-400.31737382 554.17378504 -404.08180631 558.74900102 -407.875 563.3125 C-413.15824256 569.68009508 -418.24948552 576.16640824 -423.2434082 582.76269531 C-426.7770835 587.42407066 -430.38648863 592.01273177 -434.0625 596.5625 C-438.56803414 602.15071385 -442.92566298 607.83171263 -447.21240234 613.58911133 C-451.49594108 619.34135126 -455.83526382 625.04959638 -460.1875 630.75 C-465.82715347 638.14077875 -471.43729387 645.55108892 -477 653 C-478.68654329 655.25071794 -480.37452341 657.50035689 -482.0625 659.75 C-482.81660156 660.75546875 -483.57070312 661.7609375 -484.34765625 662.796875 C-484.89292969 663.52390625 -485.43820313 664.2509375 -486 665 C-490.06037881 663.6465404 -491.20441904 660.96509193 -493.375 657.5 C-502.19024822 643.87388572 -512.30911894 631.19552358 -523 619 C-523.77730469 618.11054687 -524.55460937 617.22109375 -525.35546875 616.3046875 C-531.21486941 609.76526101 -537.36453612 603.50937726 -543.54745483 597.27731323 C-544.95726623 595.8555947 -546.36309679 594.42993212 -547.76879883 593.00415039 C-553.86863567 586.89667989 -560.24986524 581.3725429 -567 576 C-568.29374465 574.92724042 -569.58449865 573.85085517 -570.87109375 572.76953125 C-598.97312911 549.36606604 -631.19721077 530.11337902 -664.56542969 515.20776367 C-665.81114746 514.63892456 -665.81114746 514.63892456 -667.08203125 514.05859375 C-668.18381714 513.56830688 -668.18381714 513.56830688 -669.30786133 513.06811523 C-671 512 -671 512 -672 509 C-670.37956318 506.35532481 -668.71606509 503.92263038 -666.875 501.4375 C-666.05781494 500.30900635 -666.05781494 500.30900635 -665.22412109 499.15771484 C-664.06967352 497.5651117 -662.91086208 495.9756641 -661.74804688 494.38916016 C-660.08486686 492.11599262 -658.43769637 489.83231006 -656.796875 487.54296875 C-653.54959966 483.01523313 -650.27915969 478.50468502 -647 474 C-646.43522949 473.22366211 -645.87045898 472.44732422 -645.28857422 471.64746094 C-637.30396331 460.69031212 -629.12269815 449.90916828 -620.75439453 439.24267578 C-618.983476 436.97887706 -617.22262785 434.7076026 -615.46484375 432.43359375 C-609.29961384 424.46182792 -603.06637426 416.55823271 -596.68334961 408.75952148 C-593.22685716 404.53152347 -589.84632104 400.2529575 -586.5 395.9375 C-582.08241946 390.25705972 -577.43525641 384.80733062 -572.6953125 379.39428711 C-569.56222308 375.81407971 -566.4926237 372.19967215 -563.5 368.5 C-558.90505065 362.8298157 -554.12200853 357.33361975 -549.328125 351.83203125 C-547.17778385 349.36263542 -545.04170081 346.88235666 -542.921875 344.38671875 C-536.98866155 337.40186639 -530.91399116 330.5893284 -524.66796875 323.8828125 C-522.57161369 321.61764407 -520.51735322 319.33485433 -518.5 317 C-514.93845107 312.88250197 -511.23510973 308.90091331 -507.53417969 304.90917969 C-504.57563508 301.7155676 -501.64581863 298.50086153 -498.75 295.25 C-489.57297267 285.01987117 -480.17160911 274.94455269 -470.30859375 265.37109375 C-468.45232107 263.46456665 -466.73451995 261.53554356 -465.00976562 259.51416016 C-460.41500297 254.24926522 -455.48007739 249.33538945 -450.53515625 244.40234375 C-449.53284919 243.39936097 -448.53069044 242.39622997 -447.52867126 241.39295959 C-445.44008466 239.30290862 -443.34972612 237.21465112 -441.25805664 235.12768555 C-438.5976959 232.4730213 -435.94185158 229.81389116 -433.28733158 227.15338802 C-431.22233394 225.08475051 -429.15492796 223.01853301 -427.0868206 220.95300484 C-426.10743589 219.97427995 -425.12877319 218.99483194 -424.15089607 218.01460075 C-419.1419813 212.99627206 -414.10666315 208.07894398 -408.70396423 203.48377991 C-405.82025862 200.97270346 -403.16885403 198.23540899 -400.5 195.5 C-396.50864908 191.40911415 -392.39998128 187.55868181 -388.07519531 183.82128906 C-384.50192725 180.68522086 -381.07193241 177.39850185 -377.625 174.125 C-372.22309083 169.01796381 -366.80274104 163.94697133 -361.25 159.00390625 C-359.67890179 157.6046469 -358.11709535 156.19491548 -356.5625 154.77734375 C-352.3208935 150.91350533 -348.02532666 147.16952894 -343.5625 143.5625 C-339.75912497 140.48663412 -336.09917348 137.31246834 -332.5 134 C-328.10621452 129.96045182 -323.58161176 126.15320381 -318.9375 122.40625 C-315.63646081 119.70220726 -312.41248327 116.9187381 -309.1875 114.125 C-304.02754495 109.66928339 -298.76319361 105.38661283 -293.37817383 101.20654297 C-289.6532921 98.31198339 -285.98263465 95.36192065 -282.33984375 92.36474609 C-262.37080818 75.95381154 -241.45741218 60.83206449 -219 48 C-218.21737793 47.55188965 -217.43475586 47.1037793 -216.62841797 46.64208984 C-153.19162013 10.58597566 -73.49748917 -14.7684971 0 0 Z " fill="#E6007E" transform="translate(3971,3)"/>
<path d="M0 0 C1.09317535 -0.00794586 2.18635071 -0.01589172 3.31265259 -0.02407837 C23.57373237 -0.13703755 43.63738998 1.46147753 63.5 5.625 C64.51481445 5.83406982 65.52962891 6.04313965 66.57519531 6.25854492 C119.31756884 17.51453927 166.90761238 43.06881481 206.21875 79.84375 C208.70677988 82.16019161 211.24832129 84.39383151 213.8125 86.625 C224.13732598 95.90237987 233.38364112 106.46686803 241.9375 117.375 C242.71222656 118.34308594 243.48695313 119.31117188 244.28515625 120.30859375 C255.17162165 134.1280213 264.71434034 148.82596452 272.9375 164.375 C273.44724365 165.33672119 273.44724365 165.33672119 273.96728516 166.31787109 C294.95438653 206.27466238 307.12245266 251.63701683 307.0761652 296.88632011 C307.07900738 297.98590737 307.08184957 299.08549463 307.08477788 300.21840271 C307.09307466 303.89014688 307.09438939 307.56185926 307.09571838 311.23361206 C307.10028935 313.90308159 307.10525014 316.57254783 307.11068356 319.24201548 C307.12171413 325.04771746 307.12910409 330.85341514 307.13408411 336.65912533 C307.14152556 345.318484 307.15461612 353.97782785 307.1688043 362.63717777 C307.19265302 377.29617353 307.21183251 391.95517202 307.22837448 406.6141777 C307.24495202 421.29791999 307.26355858 435.98165745 307.28474808 450.66539383 C307.28607483 451.58613352 307.28740158 452.5068732 307.28876854 453.45551409 C307.29416812 457.19912638 307.29957997 460.94273865 307.30500824 464.6863509 C307.36087036 503.22843395 307.40966924 541.77052384 307.45565319 580.31261981 C307.46054534 584.41266736 307.46543879 588.5127149 307.4703331 592.61276245 C307.47154542 593.6290856 307.47275775 594.64540875 307.47400681 595.69252957 C307.49963447 617.1567942 307.52683673 638.62105671 307.55433687 660.08531901 C307.6800525 758.21074176 307.79439482 856.33617327 307.90516895 962.53782535 C307.92621586 982.73427527 307.94777832 1002.93072452 307.97004443 1023.12717314 C308.02938973 1076.96110388 308.08519723 1130.79502773 308.10869122 1184.62898827 C308.10911452 1185.5986541 308.10953783 1186.56831994 308.10997397 1187.56736959 C308.11164929 1191.42422692 308.11332259 1195.28108426 308.11494256 1199.13794161 C308.12091373 1213.17218708 308.13194016 1227.20642187 308.14578247 1241.24066162 C308.16098975 1256.69435325 308.16929631 1272.14802906 308.16725016 1287.60172856 C308.16631393 1295.83238754 308.17022993 1304.06300159 308.18252559 1312.29365174 C308.19080562 1318.26107784 308.18846124 1324.22845075 308.18197334 1330.19588113 C308.18096905 1332.54791694 308.18321395 1334.89995737 308.18937886 1337.25198531 C308.24313223 1359.0916229 307.55584597 1381.14738305 303.6875 1402.6875 C303.47134033 1403.92765869 303.25518066 1405.16781738 303.0324707 1406.44555664 C292.87289528 1462.77053257 266.51035639 1513.66090036 227.609375 1555.48046875 C225.25341948 1558.0327539 222.96807999 1560.63076246 220.6875 1563.25 C211.4109947 1573.57385267 200.84746919 1582.82521039 189.9375 1591.375 C188.93460938 1592.17292969 187.93171875 1592.97085937 186.8984375 1593.79296875 C123.08351212 1644.13084103 41.75721463 1663.52784541 -38.4362793 1654.78564453 C-114.86843392 1645.5239569 -186.79873845 1606.95211 -236.0625 1547.375 C-236.51560547 1546.83568848 -236.96871094 1546.29637695 -237.43554688 1545.74072266 C-248.89335302 1532.08310443 -259.02550822 1517.75189686 -268.0625 1502.375 C-268.43697266 1501.7449707 -268.81144531 1501.11494141 -269.19726562 1500.46582031 C-296.58830364 1454.08934106 -308.2523863 1401.2691142 -308.19392776 1347.77731609 C-308.19558047 1345.91817491 -308.19766814 1344.05903407 -308.20014787 1342.1998938 C-308.20568475 1337.10301344 -308.2050476 1332.00614998 -308.20337028 1326.90926759 C-308.20263659 1321.35945865 -308.20766817 1315.80965438 -308.2119453 1310.25984746 C-308.21951147 1299.257857 -308.22171765 1288.25587138 -308.22227435 1277.25387859 C-308.22314235 1264.75037985 -308.22916159 1252.24688493 -308.23558033 1239.7433881 C-308.25186288 1207.96887511 -308.25826641 1176.19436286 -308.2630282 1144.4198464 C-308.26541349 1128.59202285 -308.26911737 1112.76419971 -308.2730653 1096.93637648 C-308.28572811 1046.13970441 -308.29651208 995.34303236 -308.29990576 944.54635873 C-308.300068 942.11972991 -308.30023356 939.69310108 -308.30040014 937.26647226 C-308.30073393 932.40002029 -308.30106441 927.53356831 -308.3013947 922.66711634 C-308.30178159 916.96996742 -308.3021712 911.2728185 -308.30256577 905.57566958 C-308.30267819 903.94511422 -308.3027896 902.31455886 -308.30290002 900.6840035 C-308.30644875 848.32630939 -308.32152528 795.968629 -308.34483776 743.61094012 C-308.36158742 705.97752397 -308.37705772 668.34411042 -308.38157272 630.7106905 C-308.38166621 629.93618053 -308.3817597 629.16167057 -308.38185601 628.36369061 C-308.3838754 611.35835952 -308.38503116 594.35302847 -308.3853846 577.34769726 C-308.38552076 571.26227857 -308.38572975 565.17685989 -308.38597785 559.0914412 C-308.38603941 557.57762002 -308.38609773 556.06379884 -308.3861528 554.54997766 C-308.38707127 530.46356879 -308.39702311 506.37717428 -308.41161029 482.29077013 C-308.42625107 458.01866956 -308.43125275 433.74658658 -308.42319075 409.47448236 C-308.41819711 394.42602642 -308.42115371 379.37761945 -308.43775584 364.32916979 C-308.44752724 354.71778098 -308.44630697 345.10643327 -308.43631961 335.49504481 C-308.43094324 330.02617635 -308.43016673 324.55742066 -308.44282833 319.08856168 C-308.53378782 277.21526741 -308.53378782 277.21526741 -305.0625 256.375 C-304.85133546 255.04342524 -304.64029764 253.71183037 -304.42942929 252.38020867 C-303.95457006 249.50645759 -303.41001232 246.66300799 -302.8125 243.8125 C-302.60343018 242.79768555 -302.39436035 241.78287109 -302.17895508 240.73730469 C-291.27047122 189.62326603 -266.90772849 142.13304727 -231.31640625 103.8125 C-229.40607219 101.74655814 -227.5692003 99.64549421 -225.75 97.5 C-218.20878287 88.83296135 -209.8480579 80.76653949 -201.0625 73.375 C-200.15757813 72.5809375 -199.25265625 71.786875 -198.3203125 70.96875 C-183.43724096 57.98148978 -167.25399104 47.06601754 -150.0625 37.375 C-149.16934082 36.87081543 -148.27618164 36.36663086 -147.35595703 35.84716797 C-117.6434923 19.27361931 -85.53081891 9.04443847 -52.0625 3.375 C-50.68022217 3.1272583 -50.68022217 3.1272583 -49.27001953 2.87451172 C-32.94515759 0.05606117 -16.51752759 0.06286558 0 0 Z M-84.72265625 238.40234375 C-102.65860824 260.33053572 -109.39555554 284.4044556 -109.31418228 312.41373253 C-109.31627111 314.2363529 -109.31923551 316.05897243 -109.32299101 317.88159013 C-109.33076801 322.8863371 -109.326125 327.89100675 -109.31943511 332.89575244 C-109.3143581 338.34202695 -109.32088298 343.78828968 -109.32592177 349.23456252 C-109.33314517 358.77875324 -109.33292599 368.32292134 -109.32782745 377.86711311 C-109.32026632 392.05971207 -109.32412801 406.25229192 -109.33024407 420.44489075 C-109.34036551 444.32296713 -109.34053294 468.20103552 -109.33509064 492.07911301 C-109.33492505 492.8059917 -109.33475946 493.53287039 -109.33458885 494.2817757 C-109.33442299 495.00982098 -109.33425713 495.73786625 -109.33408624 496.48797349 C-109.32903923 518.67127036 -109.32773739 540.85456355 -109.33013153 563.03786087 C-109.33028649 564.52354774 -109.3304408 566.00923462 -109.33059447 567.49492149 C-109.33121541 573.46535334 -109.33185274 579.43578519 -109.332514 585.40621704 C-109.334348 602.09608102 -109.33548921 618.78594502 -109.33608627 635.4758091 C-109.33611356 636.23582335 -109.33614086 636.99583761 -109.33616897 637.7788826 C-109.33698751 661.9956471 -109.33473388 686.21241032 -109.33038712 710.42917442 C-109.33024662 711.21459909 -109.33010612 712.00002375 -109.32996136 712.80924916 C-109.32767149 725.56388856 -109.32523255 738.31852793 -109.32278102 751.0731673 C-109.31306938 801.65392497 -109.31351832 852.23467206 -109.32324219 902.81542969 C-109.3256846 915.56126593 -109.32810671 928.30710218 -109.33038712 941.05293846 C-109.33052801 941.83776144 -109.33066891 942.62258442 -109.33081407 943.43118992 C-109.33512702 967.62099499 -109.33695488 991.81079918 -109.33608627 1016.00060463 C-109.3360591 1016.76008718 -109.33603194 1017.51956973 -109.33600394 1018.3020669 C-109.33537896 1034.97464293 -109.33411163 1051.64721887 -109.33226527 1068.31979481 C-109.33160699 1074.28550813 -109.33098083 1080.25122145 -109.33036385 1086.21693477 C-109.33020907 1087.7010327 -109.33005161 1089.18513063 -109.32989145 1090.66922856 C-109.32750499 1112.84486574 -109.32953577 1135.02049879 -109.33458885 1157.19613545 C-109.33475444 1157.92284855 -109.33492003 1158.64956165 -109.33509064 1159.39829636 C-109.335256 1160.12366732 -109.33542137 1160.84903828 -109.33559174 1161.59639019 C-109.34111014 1186.07047325 -109.3390713 1210.54454561 -109.32852915 1235.01862715 C-109.32265194 1249.12853157 -109.32227992 1263.23841075 -109.3298215 1277.34831452 C-109.33430266 1286.77102633 -109.33152162 1296.19371789 -109.32281196 1305.61642669 C-109.31805045 1310.98656902 -109.316436 1316.35666115 -109.32362393 1321.72680192 C-109.33010116 1326.61581991 -109.32731569 1331.50474334 -109.3172626 1336.3937545 C-109.31525464 1338.14782359 -109.31656369 1339.90190057 -109.32167448 1341.65596336 C-109.35669422 1354.59727322 -108.71774315 1367.26340426 -104.9375 1379.75 C-104.72577148 1380.45278076 -104.51404297 1381.15556152 -104.29589844 1381.87963867 C-95.03094165 1411.05904021 -72.77876385 1433.39626658 -46.25 1447.625 C-20.94967287 1459.76915702 8.04175744 1460.33925472 34.5625 1452.1875 C62.4633137 1442.27575812 85.47249771 1421.27952681 98.6953125 1394.86328125 C103.43977436 1384.21804396 106.774076 1373.55045386 108.03237438 1361.97720146 C108.11780251 1361.19248574 108.20323064 1360.40777003 108.2912475 1359.59927505 C109.10772757 1351.55359744 109.20730602 1343.56930838 109.16950989 1335.48977661 C109.16944839 1333.84985972 109.17027504 1332.20994261 109.17188865 1330.57002652 C109.17378399 1326.05289395 109.16315736 1321.53586497 109.15053871 1317.01875287 C109.13883714 1311.98877809 109.13918899 1306.95880021 109.13790703 1301.92881393 C109.13398586 1292.91536549 109.12253386 1283.90194999 109.10642052 1274.88851547 C109.08185748 1261.09022346 109.06906408 1247.29193684 109.05866218 1233.49362774 C109.05345718 1226.65923225 109.04776774 1219.8248372 109.04187107 1212.99044228 C109.04096804 1211.94135259 109.04096804 1211.94135259 109.04004676 1210.87106918 C109.03038859 1199.76173707 109.01813369 1188.65240928 109.00458431 1177.54308128 C109.00268998 1175.98451284 109.00079618 1174.42594439 108.99890292 1172.86737595 C108.99748358 1171.69940001 108.99748358 1171.69940001 108.99603557 1170.50782859 C108.95578689 1137.36960201 108.92634221 1104.23138661 108.90911865 1071.09313965 C108.90859929 1070.09637199 108.90807992 1069.09960433 108.90754482 1068.07263159 C108.90165928 1056.73345798 108.89602932 1045.39428425 108.89050078 1034.05511045 C108.87996783 1012.45354903 108.86878523 990.85198797 108.85690308 969.25042725 C108.8559986 967.60530292 108.8559986 967.60530292 108.85507585 965.92694375 C108.83574372 930.9441492 108.8101051 895.96136277 108.77908325 860.97857666 C108.77807935 859.84633911 108.77707545 858.71410157 108.77604113 857.54755379 C108.75345841 832.14316321 108.72958979 806.73877391 108.70511024 781.3343851 C108.69499933 770.82676463 108.68500722 760.31914405 108.67504883 749.81152344 C108.67394687 748.65257465 108.6728449 747.49362586 108.67170955 746.29955741 C108.63550679 708.16930589 108.60975766 670.03905559 108.58911031 631.90879274 C108.56753677 592.16071411 108.53627245 552.41265498 108.49250887 512.66459428 C108.48635123 507.06932562 108.4803007 501.47405684 108.47431374 495.87878799 C108.47254241 494.22879884 108.47254241 494.22879884 108.47073531 492.54547658 C108.45213206 474.95907818 108.44362507 457.37268923 108.43903876 439.78628221 C108.43424376 422.24867733 108.41861584 404.7111088 108.39183434 387.17352347 C108.3763047 376.79125136 108.36903171 366.40905106 108.37373071 356.02676797 C108.37604731 349.09285253 108.3674772 342.15900489 108.35017589 335.22511081 C108.34064512 331.28282992 108.33570031 327.3406989 108.34410437 323.39841197 C108.40667797 290.8975603 104.16792358 262.43990382 81.9375 237.375 C81.07705078 236.31732422 81.07705078 236.31732422 80.19921875 235.23828125 C69.67961826 222.4591007 54.27840703 212.39060348 38.9375 206.375 C38.05320312 206.01792969 37.16890625 205.66085937 36.2578125 205.29296875 C-6.57182411 189.45430812 -55.4251268 204.18361675 -84.72265625 238.40234375 Z " fill="#FFFFFF" transform="translate(1789.0625,116.625)"/>
<path d="M0 0 C65.34 0 130.68 0 198 0 C198 5.94 198 11.88 198 18 C199.56105469 17.48050781 201.12210938 16.96101563 202.73046875 16.42578125 C231.71159963 6.88983269 261.427033 -0.06169773 292.09765625 -0.203125 C293.12175598 -0.21018463 294.14585571 -0.21724426 295.20098877 -0.22451782 C337.9506151 -0.45233563 337.9506151 -0.45233563 357 3 C358.73419189 3.30599121 358.73419189 3.30599121 360.50341797 3.61816406 C376.72974046 6.55132642 392.49991623 10.35813367 408 16 C408.97855957 16.35545898 409.95711914 16.71091797 410.96533203 17.07714844 C441.98353315 28.53321063 470.6277439 44.73623037 496 66 C496.55236328 66.45761719 497.10472656 66.91523438 497.67382812 67.38671875 C504.78902711 73.29581461 511.66554986 79.45131594 518.4375 85.75 C519.0876709 86.35166992 519.7378418 86.95333984 520.40771484 87.57324219 C524.32229167 91.25151654 527.92352264 95.09338192 531.42114258 99.16943359 C533.42233456 101.48966515 535.52453543 103.70714804 537.625 105.9375 C579.61381039 152.0741412 605.34198803 213.97994567 610 276 C610.08213958 277.0676398 610.16427915 278.13527959 610.2489078 279.23527211 C611.01992014 290.25568768 611.14620844 301.22450983 611.14044189 312.26875305 C611.14303143 314.27622238 611.1460462 316.28369121 611.1494453 318.29115933 C611.15744943 323.76685377 611.15930115 329.24253506 611.16004276 334.71823466 C611.16190488 340.64013745 611.16945788 346.5620336 611.17617798 352.4839325 C611.19041934 366.0874162 611.1962815 379.69089885 611.20086992 393.29438846 C611.20321322 400.03005426 611.20681664 406.76571921 611.2105653 413.50138434 C611.22339395 436.59994539 611.23411393 459.69850598 611.2375679 482.7970705 C611.23778953 484.24438382 611.23801131 485.69169713 611.23823325 487.13901044 C611.23845389 488.58962419 611.23867437 490.04023795 611.2388947 491.4908517 C611.23933723 494.40055804 611.23978435 497.31026437 611.24023438 500.2199707 C611.24034377 500.94139726 611.24045316 501.66282382 611.24056586 502.40611179 C611.24419358 525.77935628 611.26010636 549.15256969 611.28342474 572.52580229 C611.30808652 597.29128785 611.32174366 622.05675569 611.32293582 646.82225388 C611.32310725 649.54700641 611.32332267 652.27175894 611.32357025 654.99651146 C611.32362602 655.66732447 611.32368179 656.33813747 611.32373925 657.02927815 C611.32481349 667.10577285 611.33412791 677.1822373 611.34775543 687.25872231 C611.36322727 698.73867385 611.36823533 710.21857208 611.36001733 721.69853208 C611.35613589 727.54492264 611.35691646 733.39120609 611.37107468 739.23758316 C611.58388801 832.62102479 583.65113252 910.8970434 517.4375 977.75 C511.23667857 983.94537853 504.92606728 989.62280009 498 995 C496.87374152 995.92397097 495.75021428 996.85127752 494.62890625 997.78125 C453.78488481 1031.47536941 403.45453317 1053.02338717 351 1060 C350.36795654 1060.08613556 349.73591309 1060.17227112 349.0847168 1060.26101685 C335.82592662 1062.01851692 322.65978671 1062.34146915 309.29589844 1062.31567383 C305.90006056 1062.31252325 302.50510555 1062.33604181 299.109375 1062.36132812 C279.12562537 1062.42004806 259.39334415 1060.65526096 239.875 1056.25 C238.72829834 1055.99831055 237.58159668 1055.74662109 236.40014648 1055.48730469 C223.38091768 1052.54321733 210.40373481 1048.96149392 198 1044 C198 1115.28 198 1186.56 198 1260 C132.66 1260 67.32 1260 0 1260 C0 844.2 0 428.4 0 0 Z M222.60742188 235.14257812 C206.64829971 253.58379949 197.80973855 277.99727974 197.86857224 302.30550194 C197.8665196 303.10625233 197.86446697 303.90700273 197.86235213 304.73201829 C197.85670988 307.40798027 197.85813594 310.08389033 197.85955811 312.75985718 C197.85697287 314.70083952 197.85395927 316.64182133 197.8505547 318.58280241 C197.84249991 323.91152207 197.84069598 329.24022825 197.83995724 334.56895328 C197.838104 340.31836224 197.83055524 346.06776425 197.82382202 351.81716919 C197.81024835 364.38775013 197.80421531 376.95832788 197.79981136 389.52891493 C197.79704696 397.38195456 197.79280921 405.23499297 197.78830719 413.08803177 C197.77611512 434.84132256 197.76578076 456.59461203 197.7624321 478.34790611 C197.76221047 479.75386917 197.76198868 481.15983222 197.76176675 482.56579528 C197.76154611 483.97508051 197.76132563 485.38436575 197.7611053 486.79365098 C197.76066276 489.62073477 197.76021564 492.44781856 197.75976562 495.27490234 C197.75965623 495.97585134 197.75954684 496.67680034 197.75943414 497.39899022 C197.75580583 520.11257857 197.73989374 542.82613496 197.71657526 565.53971109 C197.69194428 589.57588083 197.67826442 613.6120322 197.67706418 637.64821494 C197.67614863 650.74179625 197.6704266 663.83533572 197.65224457 676.92890549 C197.63681284 688.08102645 197.63174119 699.23309263 197.63998267 710.38522224 C197.64387846 716.07044713 197.64301209 721.75556181 197.62892532 727.44077301 C197.61612196 732.65595161 197.61744004 737.87093793 197.62951604 743.08611651 C197.63146195 744.96236473 197.62844638 746.83862688 197.61967167 748.7148556 C197.47443771 781.8978552 206.96012146 809.97281623 230.4375 833.8125 C235.87650075 839.17626705 241.56017701 843.86263427 248 848 C249.04414063 848.67675781 250.08828125 849.35351562 251.1640625 850.05078125 C275.66176259 865.00282579 305.23277297 868.36935445 333 862 C350.74681386 857.07852812 365.50907004 848.422694 379 836 C380.32837891 834.79537109 380.32837891 834.79537109 381.68359375 833.56640625 C400.80669507 815.39796834 413.32193738 789.2673742 414.18525362 762.78036761 C414.28185882 757.83681733 414.2670335 752.89355434 414.25396729 747.9493103 C414.25627506 746.03772317 414.25945371 744.12613693 414.26342177 742.21455252 C414.27173528 736.9902511 414.26766015 731.76602319 414.26144934 726.54172158 C414.25691153 720.89599385 414.26391532 715.25027848 414.26940918 709.60455322 C414.27829168 698.55415034 414.27638595 687.50377467 414.2705839 676.45337074 C414.26606155 667.46690376 414.26545699 658.48044438 414.26763153 649.49397659 C414.26809123 647.57319583 414.26809123 647.57319583 414.26856022 645.61361141 C414.26919969 643.01193224 414.26984812 640.41025308 414.2705054 637.80857392 C414.27604328 614.11825382 414.27030524 590.42795119 414.2598202 566.73763392 C414.25033641 545.1455566 414.2511731 523.55350289 414.26074219 501.96142578 C414.27147126 477.67103197 414.27564965 453.38065486 414.26951766 429.09025824 C414.2688806 426.49647816 414.26825185 423.90269808 414.26763153 421.308918 C414.26732298 420.03287921 414.26701443 418.75684041 414.26669653 417.44213378 C414.264974 408.47556291 414.26787528 399.50900045 414.27259064 390.54243088 C414.27821788 379.60163377 414.27664466 368.66086533 414.26602915 357.72007148 C414.2607962 352.14407758 414.25867481 346.56813138 414.26532745 340.99213791 C414.27133898 335.87582663 414.26792705 330.75960672 414.25737235 325.64330359 C414.25516009 323.80420166 414.25622488 321.96509182 414.26112393 320.12599508 C414.34481041 286.06509827 408.30829984 256.34470022 384 231 C382.7934375 229.7315625 382.7934375 229.7315625 381.5625 228.4375 C380.716875 227.633125 379.87125 226.82875 379 226 C378.31808594 225.33484375 377.63617187 224.6696875 376.93359375 223.984375 C356.220882 204.43529874 329.33093253 196.43121667 301.30859375 196.78515625 C269.95569719 197.70210745 243.45695971 212.36475933 222.60742188 235.14257812 Z " fill="#FFFFFF" transform="translate(2167,315)"/>
<path d="M0 0 C1.69168304 0.00323273 1.69168304 0.00323273 3.4175415 0.00653076 C19.77528465 0.056707 35.80342029 0.36853554 51.9375 3.3125 C53.08686035 3.51649414 54.2362207 3.72048828 55.42041016 3.93066406 C110.38928707 13.91707645 160.34159678 37.88742586 201.9375 75.3125 C202.48067871 75.79928223 203.02385742 76.28606445 203.58349609 76.78759766 C214.61910155 86.71735234 225.51207084 96.87515671 234.72265625 108.55078125 C236.22320018 110.42182985 237.77528175 112.25248305 239.37109375 114.04296875 C330.93373188 217.03393022 306.9375 369.77577789 306.9375 494.3125 C169.9875 494.3125 33.0375 494.3125 -108.0625 494.3125 C-106.13000153 537.633465 -106.13000153 537.633465 -88.0625 575.3125 C-87.46953125 576.1271875 -86.8765625 576.941875 -86.265625 577.78125 C-68.77602652 600.61890752 -45.33992203 615.61492599 -16.97265625 620.88671875 C12.66290871 624.11376828 41.19752437 619.143484 65.0625 600.4375 C66.69607965 599.07270422 68.32110732 597.69760819 69.9375 596.3125 C70.75992188 595.63574219 71.58234375 594.95898438 72.4296875 594.26171875 C78.26090666 589.2933747 82.89933928 583.88109034 87.515625 577.81640625 C87.92362776 577.28135656 88.33163052 576.74630688 88.75199699 576.19504356 C90.05067412 574.29174005 90.05067412 574.29174005 90.79452705 571.82273293 C92.11085255 568.53450621 93.27261003 566.67764113 95.9375 564.3125 C102.46544439 562.77209578 108.94703255 563.04880024 115.62060547 563.17724609 C117.660872 563.18006748 119.70114868 563.17848223 121.7414093 563.17282104 C127.27689134 563.16995127 132.8102073 563.22874656 138.34518576 563.29856062 C144.13065709 563.36106756 149.91617792 563.36694734 155.70193481 563.3788147 C166.65637276 563.40989815 177.6098129 563.49196179 188.56381142 563.59230959 C201.03515614 563.70407786 213.50654848 563.75906446 225.97826934 563.80926394 C251.63189946 563.91379459 277.28464383 564.08969019 302.9375 564.3125 C302.78341477 565.91386083 302.62761242 567.5150565 302.47108459 569.11618042 C302.34121706 570.45370519 302.34121706 570.45370519 302.20872593 571.81825066 C297.04172583 619.33504467 271.44758946 668.54052456 241.21337891 704.77636719 C239.95997887 706.28543589 238.73550528 707.81838067 237.51171875 709.3515625 C230.51817862 717.95889425 222.68963079 725.77256158 214.875 733.625 C214.04305618 734.46484436 214.04305618 734.46484436 213.19430542 735.32165527 C206.1123878 742.45546225 198.86648018 749.10919803 190.9375 755.3125 C190.21908936 755.88492432 189.50067871 756.45734863 188.76049805 757.04711914 C135.87363106 799.00731759 71.18101136 821.08972609 3.70532227 820.70361328 C0.37149294 820.68748303 -2.96112783 820.70361576 -6.29492188 820.72265625 C-25.57862203 820.74174089 -44.72849608 819.02549779 -63.625 815.0625 C-65.15157227 814.74671997 -65.15157227 814.74671997 -66.70898438 814.42456055 C-117.06585074 803.64654671 -162.79383321 779.6067468 -201.0625 745.3125 C-201.56265625 744.86874023 -202.0628125 744.42498047 -202.578125 743.96777344 C-214.07696153 733.74742597 -225.43973786 723.07166701 -234.96875 710.96484375 C-237.19921932 708.13930519 -239.53176946 705.42003308 -241.875 702.6875 C-273.75082107 664.2793458 -293.87805804 617.10688673 -302.3125 568.125 C-302.53945557 566.81063965 -302.53945557 566.81063965 -302.77099609 565.46972656 C-305.69492397 547.19930719 -306.35678949 528.99797684 -306.32128906 510.52783203 C-306.32400674 508.11873266 -306.32757198 505.70963411 -306.33190918 503.30053711 C-306.34001089 497.49036689 -306.33892387 491.68025509 -306.3330839 485.87008323 C-306.32852869 481.1382266 -306.32797097 476.40638441 -306.33013153 471.67452621 C-306.330438 470.99572254 -306.33074446 470.31691887 -306.33106022 469.61754539 C-306.3316998 468.23765342 -306.33234823 466.85776146 -306.3330054 465.4778695 C-306.33868119 452.59904999 -306.33219477 439.72025916 -306.32140467 426.84144436 C-306.31247575 415.84463997 -306.31402114 404.84787784 -306.32324219 393.85107422 C-306.33400086 381.01491951 -306.3381279 368.17878981 -306.33201766 355.34263122 C-306.33138071 353.96778926 -306.33075196 352.59294729 -306.33013153 351.21810532 C-306.3296687 350.20400298 -306.3296687 350.20400298 -306.32919653 349.16941372 C-306.32748597 344.45660615 -306.33034889 339.74381474 -306.33509064 335.03100967 C-306.3409281 328.65976865 -306.3367519 322.28860631 -306.32530212 315.91737366 C-306.32268916 313.59848536 -306.32336187 311.27959027 -306.32782745 308.9607048 C-306.36123219 289.82964594 -305.46323078 270.77602567 -302.3125 251.875 C-302.14331055 250.84971191 -301.97412109 249.82442383 -301.79980469 248.76806641 C-297.35152541 222.92775132 -289.49574926 197.91532599 -278.0625 174.3125 C-277.67787598 173.51199219 -277.29325195 172.71148438 -276.89697266 171.88671875 C-267.35541803 152.2618659 -255.39522789 133.64646813 -241.38574219 116.89599609 C-240.50121496 115.83750097 -239.62425835 114.77263472 -238.75488281 113.70166016 C-231.06135024 104.2290332 -222.53687503 95.57859674 -213.9375 86.9375 C-213.38464325 86.37937622 -212.8317865 85.82125244 -212.26217651 85.24621582 C-205.18997758 78.12199904 -197.9715188 71.51207669 -190.0625 65.3125 C-188.9673502 64.43111099 -187.87227941 63.54962378 -186.77734375 62.66796875 C-148.07768537 32.45937466 -103.55676905 12.69484841 -55.25 4.0625 C-54.4048584 3.91127686 -53.5597168 3.76005371 -52.68896484 3.60424805 C-35.14321797 0.66779769 -17.76744111 -0.06110141 0 0 Z M-79.0625 223.3125 C-98.14153414 244.65704596 -106.38431275 267.7833168 -108.0625 296.3125 C-36.4525 296.3125 35.1575 296.3125 108.9375 296.3125 C105.77326935 264.67019347 98.4538327 244.16867759 76.9375 221.3125 C76.39867188 220.70921875 75.85984375 220.1059375 75.3046875 219.484375 C56.89102449 199.68274745 29.96357598 190.58271781 3.609375 189.12890625 C-27.74196693 188.47253579 -57.22834986 200.71779892 -79.0625 223.3125 Z " fill="#FFFFFF" transform="translate(3155.0625,556.6875)"/>
<path d="M0 0 C0.65597168 0.59425781 1.31194336 1.18851562 1.98779297 1.80078125 C15.00269845 13.64101128 27.17453777 26.10517922 38 40 C38.45197754 40.57943359 38.90395508 41.15886719 39.36962891 41.75585938 C51.41073169 57.27460953 61.89885476 73.5917189 71 91 C71.37866211 91.72316406 71.75732422 92.44632813 72.14746094 93.19140625 C85.17715915 118.45975421 93.23120676 145.85280792 98.25 173.75 C98.40130371 174.58700439 98.55260742 175.42400879 98.70849609 176.28637695 C101.87634346 195.14849189 102.32898208 213.96380031 102.4140625 233.05078125 C102.43190328 235.79242728 102.45240945 238.53405206 102.4727478 241.27568054 C102.51406301 247.03898566 102.54852826 252.80229712 102.578125 258.56567383 C102.60754403 264.29130476 102.64181702 270.01687037 102.68261719 275.74243164 C103.01541424 322.49632538 103 369.24368967 103 416 C-33.95 416 -170.9 416 -312 416 C-310.73144552 454.05663451 -306.8449894 486.65944881 -279 514 C-275.44678404 517.15722503 -271.77441078 520.11212452 -268 523 C-266.79537109 523.928125 -266.79537109 523.928125 -265.56640625 524.875 C-235.84249048 546.74086907 -203.88123301 544.24732178 -167 545 C-167 610.34 -167 675.68 -167 743 C-213.30082962 743 -256.29414325 742.72751442 -300 729 C-301.17828369 728.64180176 -301.17828369 728.64180176 -302.38037109 728.27636719 C-335.8809944 717.98882901 -367.28000367 699.42739216 -394.33056641 677.36083984 C-395.91391507 676.07017218 -397.50937232 674.79440073 -399.10546875 673.51953125 C-407.49459164 666.67417261 -415.1447772 659.06671967 -422.8125 651.4375 C-423.34847809 650.90678894 -423.88445618 650.37607788 -424.43667603 649.82928467 C-431.4294923 642.88962381 -437.89638143 635.75042568 -444 628 C-445.17273109 626.55172208 -446.34587945 625.10378189 -447.51953125 623.65625 C-485.67889626 575.80074607 -510.19619115 513.65566998 -510.14044189 452.01951599 C-510.14341302 450.97082197 -510.14638414 449.92212794 -510.1494453 448.84165531 C-510.15805799 445.35723782 -510.15963423 441.87285499 -510.16113281 438.38842773 C-510.16576646 435.87729826 -510.17079185 433.36616948 -510.17617798 430.8550415 C-510.18925621 424.05044488 -510.19577656 417.24585951 -510.20018864 410.44125247 C-510.20296392 406.17870445 -510.20720369 401.91615865 -510.21169281 397.65361214 C-510.22388009 385.81422665 -510.23417839 373.97484293 -510.2375679 362.13545132 C-510.23778747 361.37926695 -510.23800703 360.62308258 -510.23823325 359.84398353 C-510.23845153 359.08614305 -510.23866981 358.32830256 -510.2388947 357.54749721 C-510.23933814 356.01221494 -510.23978471 354.47693266 -510.24023438 352.94165039 C-510.2404558 352.18012175 -510.24067723 351.41859311 -510.24090537 350.63398785 C-510.24484247 338.33025818 -510.26226556 326.02658813 -510.2855939 313.72288143 C-510.30944093 301.04140615 -510.32177588 288.35996059 -510.32293582 275.67846256 C-510.32384548 268.5784445 -510.32941545 261.47850401 -510.34775543 254.37850761 C-510.36498671 247.68480523 -510.36631062 240.99127341 -510.35761642 234.29754639 C-510.35685487 231.86220467 -510.36106973 229.42685456 -510.37107468 226.99153328 C-510.451463 206.17627355 -508.88425264 185.50743788 -504.8125 165.0625 C-504.6052832 164.01223633 -504.39806641 162.96197266 -504.18457031 161.87988281 C-498.7686208 135.63933544 -489.59531385 110.62054275 -477 87 C-476.62262695 86.28392578 -476.24525391 85.56785156 -475.85644531 84.83007812 C-457.99539738 51.09741921 -431.75604621 17.9314934 -401.72265625 -5.8359375 C-398.87933895 -8.09590563 -396.13253964 -10.4488946 -393.375 -12.8125 C-316.76756641 -76.52073847 -207.33879965 -93.10389117 0 0 Z M-288.55078125 151.98828125 C-304.3592808 171.42744099 -312 194.01102068 -312 219 C-240.72 219 -169.44 219 -96 219 C-96 211.5719192 -96.1395739 205.35368521 -97.625 198.25 C-97.80393799 197.38802002 -97.98287598 196.52604004 -98.16723633 195.63793945 C-104.11265385 168.58390755 -121.65226423 144.36547594 -144.8125 129.25 C-193.01940349 99.00815364 -251.30143159 110.0608343 -288.55078125 151.98828125 Z " fill="#FFFFFF" transform="translate(510,484)"/>
<path d="M0 0 C65.67 0 131.34 0 199 0 C199.19158187 90.78586007 199.19158187 90.78586007 199.28601074 135.86705017 C199.28742048 136.54005498 199.28883022 137.2130598 199.29028267 137.9064587 C199.32093798 152.54156702 199.35157137 167.17667538 199.38218227 181.81178379 C199.39719948 188.9914659 199.41222151 196.17114799 199.42724609 203.35083008 C199.42948836 204.42238283 199.42948836 204.42238283 199.43177592 205.51558312 C199.4800098 228.56493616 199.52856104 251.61428853 199.57728135 274.66364056 C199.62745215 298.40002492 199.67729383 322.13640996 199.7267361 345.87279585 C199.73376021 349.244878 199.74078798 352.61696015 199.74781799 355.98904228 C199.74920114 356.65255193 199.75058429 357.31606158 199.75200936 357.99967759 C199.77540863 369.21976187 199.79920291 380.4398453 199.82309544 391.65992855 C199.84446025 401.70637655 199.86545181 411.75282528 199.88616979 421.79927463 C199.89807447 427.56698168 199.91012444 433.33468831 199.92262459 439.1023941 C199.94701604 450.39775827 199.96924256 461.69311954 199.9856292 472.98849846 C199.99323005 478.13253462 200.00257313 483.27655909 200.01486778 488.42058635 C200.02763243 493.77062691 200.03687468 499.12066364 200.04382318 504.4707148 C200.04701161 506.46997696 200.05139821 508.46923768 200.05714375 510.46849412 C200.25623541 581.52846924 183.5730199 651.84617946 138 708 C137.27425781 708.90621094 136.54851563 709.81242187 135.80078125 710.74609375 C133.55899666 713.51914507 131.2842778 716.26186734 129 719 C128.37134033 719.76618652 128.37134033 719.76618652 127.72998047 720.54785156 C121.43131361 728.21559239 114.76388451 735.41641659 107.75 742.4375 C106.63347046 743.55523804 106.63347046 743.55523804 105.49438477 744.69555664 C86.94619708 763.05828306 65.80488162 779.28346623 43 792 C42.17822266 792.45874512 41.35644531 792.91749023 40.50976562 793.39013672 C-0.52925402 816.05425663 -47.2112286 829.99078302 -94.31640625 830.203125 C-95.36274734 830.21018463 -96.40908844 830.21724426 -97.48713684 830.22451782 C-141.08205142 830.45193337 -141.08205142 830.45193337 -160 827 C-161.72404053 826.69400879 -161.72404053 826.69400879 -163.48291016 826.38183594 C-193.21764606 820.97980934 -221.37222243 812.06026078 -248.15283203 797.96630859 C-249.98731943 797.00663358 -251.83351975 796.07374061 -253.68359375 795.14453125 C-277.54260662 783.00490372 -300.86556888 765.87730837 -319.4375 746.5625 C-321.17065598 744.82934402 -323.00188648 743.26793953 -324.875 741.6875 C-328.81735472 738.28342833 -332.23907372 734.54433777 -335.671875 730.6328125 C-337.17369195 728.93444904 -338.70343056 727.2601851 -340.265625 725.6171875 C-374.69835681 689.24618933 -397.9485091 641.50473248 -409 593 C-409.19432617 592.15083008 -409.38865234 591.30166016 -409.58886719 590.42675781 C-415.28744433 564.83785908 -416.46099658 538.95235077 -416.34819686 512.83396924 C-416.33494916 508.96464262 -416.33964569 505.09532566 -416.34190369 501.22598267 C-416.34345874 494.55952463 -416.3342379 487.89315629 -416.31719017 481.22672081 C-416.29255997 471.58879849 -416.2849707 461.95091848 -416.2812262 452.31296811 C-416.27469883 436.66703569 -416.25483989 421.02115082 -416.22631836 405.37524414 C-416.19868065 390.19816315 -416.17752944 375.02109525 -416.16479492 359.84399414 C-416.16399093 358.89521761 -416.16318694 357.94644107 -416.16235858 356.96891373 C-416.15611844 349.54623769 -416.15024832 342.12356137 -416.14449489 334.70088494 C-416.11631533 298.46721294 -416.05593213 262.23366033 -416 226 C-350.33 226 -284.66 226 -217 226 C-216.96261719 247.96433594 -216.92523437 269.92867187 -216.88671875 292.55859375 C-216.85644351 306.47201119 -216.82543816 320.38542124 -216.79101562 334.29882812 C-216.77296716 341.60945584 -216.75510345 348.92008397 -216.73754883 356.23071289 C-216.7342373 357.60499686 -216.7342373 357.60499686 -216.73085886 359.00704414 C-216.69554905 373.77224152 -216.67065676 388.53743885 -216.64965298 403.30266272 C-216.62784245 418.47093489 -216.59474244 433.63915258 -216.55129844 448.80737835 C-216.52487196 458.15683649 -216.5071104 467.50622681 -216.50065396 476.85572041 C-216.49537239 483.27872471 -216.47906335 489.7016439 -216.45433434 496.12460249 C-216.4404135 499.82286155 -216.43111284 503.52096859 -216.43499184 507.21925545 C-216.46171044 539.41417992 -211.66550919 566.4674737 -191 592 C-190.46503906 592.67675781 -189.93007813 593.35351562 -189.37890625 594.05078125 C-176.06169217 610.32737623 -156.86774167 621.04532174 -137 627 C-135.865625 627.34289063 -134.73125 627.68578125 -133.5625 628.0390625 C-115.19120162 632.58936094 -94.00389124 631.72231278 -76 626 C-74.84886719 625.63777344 -73.69773437 625.27554688 -72.51171875 624.90234375 C-60.60614462 620.69618283 -49.58427212 614.20007194 -40 606 C-39.20207031 605.33484375 -38.40414063 604.6696875 -37.58203125 603.984375 C-20.42955594 589.19867535 -8.55420025 569.92575121 -3 548 C-2.83002805 547.34400037 -2.66005611 546.68800074 -2.4849335 546.01212233 C-0.25768482 535.90218531 -0.71099982 525.58341321 -0.7215271 515.29060364 C-0.71652082 513.06609017 -0.71064405 510.84157852 -0.70397437 508.61706942 C-0.68820068 502.51926778 -0.68474513 496.42151226 -0.68332577 490.32369268 C-0.68000724 484.41870236 -0.66734903 478.51373694 -0.6549259 472.60875984 C-0.62984521 460.53476493 -0.61395446 448.46077441 -0.60334396 436.3867588 C-0.59281162 424.43603384 -0.57816853 412.4853255 -0.55806351 400.53461266 C-0.55681464 399.79090057 -0.55556577 399.04718849 -0.55427906 398.28093967 C-0.5479151 394.503834 -0.54147797 390.72672845 -0.53501268 386.94962295 C-0.48937856 360.21276185 -0.45291868 333.47589536 -0.421875 306.73901367 C-0.39169986 280.76830251 -0.35735612 254.79760231 -0.31738281 228.8269043 C-0.31615181 228.02604306 -0.31492081 227.22518182 -0.3136525 226.40005206 C-0.30128539 218.357302 -0.28883369 210.31455207 -0.27632002 202.27180224 C-0.25083129 185.88853357 -0.22590713 169.50526407 -0.20132446 153.12199402 C-0.20019355 152.36875666 -0.19906264 151.61551929 -0.19789747 150.83945656 C-0.16327118 127.75697249 -0.13103721 104.67448595 -0.10116577 81.59199524 C-0.0994916 80.2990655 -0.09781744 79.00613576 -0.09609254 77.67402633 C-0.06271188 51.7826859 -0.03165688 25.89134259 0 0 Z " fill="#FFFFFF" transform="translate(830,745)"/>
<path d="M0 0 C0 66.66 0 133.32 0 202 C-8.58 202.99 -17.16 203.98 -26 205 C-55.42305137 211.68705713 -79.09864191 227.56801334 -95.72265625 252.92089844 C-106.11131209 269.83026256 -111.15763109 287.64641905 -111.1386652 307.41867733 C-111.14292853 309.14280361 -111.14292853 309.14280361 -111.14727798 310.90176073 C-111.15416677 314.09277156 -111.15661896 317.2837503 -111.1572054 320.47476737 C-111.15893709 323.94604278 -111.16642393 327.41730654 -111.17318195 330.88857514 C-111.18423322 336.97245445 -111.19160849 343.05632963 -111.19658089 349.14021683 C-111.2039913 358.1867375 -111.21707548 367.23324374 -111.23132664 376.27975591 C-111.25513832 391.49735135 -111.27434203 406.71494935 -111.29092598 421.93255424 C-111.30736289 437.00143218 -111.32584392 452.07030532 -111.34705925 467.13917732 C-111.34837686 468.07586657 -111.34969446 469.01255581 -111.351052 469.97762958 C-111.35775402 474.73453727 -111.3644926 479.49144491 -111.37124526 484.24835254 C-111.41901732 517.94770889 -111.46219977 551.64706972 -111.50268555 585.34643555 C-111.54202916 618.08634771 -111.58345016 650.82625617 -111.62768555 683.56616211 C-111.62904808 684.57522322 -111.63041061 685.58428434 -111.63181442 686.62392306 C-111.64549972 696.75726412 -111.65922726 706.89060513 -111.67298577 717.02394609 C-111.70101284 737.66701048 -111.72875788 758.31007525 -111.7563324 778.95314026 C-111.7576006 779.90228974 -111.7588688 780.85143922 -111.76017542 781.82935081 C-111.79903489 810.92378427 -111.83669886 840.01821911 -111.8731842 869.11265564 C-111.8742206 869.93873224 -111.87525699 870.76480884 -111.87632478 871.61591806 C-111.9182871 905.0772778 -111.95898454 938.53863909 -112 972 C-177.34 972 -242.68 972 -310 972 C-310 685.89 -310 399.78 -310 105 C-270.895 104.505 -270.895 104.505 -231 104 C-223.41 96.41 -215.82 88.82 -208 81 C-204.37 78.03 -200.74 75.06 -197 72 C-195.12230285 70.39899122 -193.2466883 68.79552942 -191.375 67.1875 C-146.47534586 29.83836536 -90.47518196 7.20534819 -32.5625 1.1875 C-30.78818604 1.0013916 -30.78818604 1.0013916 -28.97802734 0.81152344 C-19.20647123 -0.10316869 -9.93238455 0 0 0 Z " fill="#FFFFFF" transform="translate(1410,406)"/>
<path d="M0 0 C153.13883717 0 153.13883717 0 171.875 5.8125 C172.73883301 6.07111816 173.60266602 6.32973633 174.49267578 6.59619141 C193.15852903 12.3126306 210.07080327 20.34853472 225 33 C225.51691406 33.43715332 226.03382813 33.87430664 226.56640625 34.32470703 C253.49641447 57.3991345 267.72964682 89.31404609 274.75 123.5 C274.94875732 124.45914307 275.14751465 125.41828613 275.35229492 126.40649414 C278.5445272 142.8684515 279.38059121 159.3305315 279.3125 176.0625 C279.30976578 177.46657608 279.30976578 177.46657608 279.30697632 178.89901733 C279.15069662 226.76081917 269.08511312 275.44316352 235 311 C234.24332031 311.81984375 233.48664062 312.6396875 232.70703125 313.484375 C207.68027191 339.77676165 172.16473653 350.48352635 137 354 C91.79 354 46.58 354 0 354 C0 237.18 0 120.36 0 0 Z M52 48 C52 133.14 52 218.28 52 306 C127.9441672 310.71224402 127.9441672 310.71224402 193 279 C193.61359375 278.45988281 194.2271875 277.91976562 194.859375 277.36328125 C217.73875767 256.53044887 223.36597627 220.16503671 225 191 C226.34014695 149.33929856 222.44973885 105.37764693 192.6640625 73.5 C155.84307265 38.26928546 96.92027133 48 52 48 Z " fill="#FFFFFF" transform="translate(2100,1851)"/>
<path d="M0 0 C22.08491113 19.70739336 36.65521934 43.4373198 45.74169922 71.55419922 C45.97727539 72.27897461 46.21285156 73.00375 46.45556641 73.75048828 C53.44445817 95.75403198 55.64502192 118.59251824 56.74169922 141.55419922 C56.77779297 142.28864258 56.81388672 143.02308594 56.85107422 143.77978516 C57.03037889 148.04947755 56.94551557 152.28861423 56.74169922 156.55419922 C56.69529297 157.55966797 56.64888672 158.56513672 56.60107422 159.60107422 C53.98578027 212.14470712 40.53370157 260.60667473 1.49169922 297.67919922 C-30.87669844 326.25299659 -74.79711635 334.72181721 -116.81835938 332.41357422 C-157.78429073 329.5416348 -194.91691505 313.36094935 -222.11376953 282.19482422 C-243.1910396 256.24175579 -253.91273786 225.18548741 -259.25830078 192.55419922 C-259.37302734 191.86487305 -259.48775391 191.17554687 -259.60595703 190.46533203 C-268.33753239 135.72719665 -261.33927071 70.46073611 -228.18725586 24.62670898 C-223.63575947 18.53750972 -218.52393105 13.02519729 -213.25830078 7.55419922 C-212.40558594 6.60673828 -212.40558594 6.60673828 -211.53564453 5.64013672 C-161.33261939 -48.54317941 -53.99508574 -47.01390293 0 0 Z M-169.25830078 36.55419922 C-170.23283203 37.32505859 -171.20736328 38.09591797 -172.21142578 38.89013672 C-197.3602989 59.91949053 -203.88654773 97.0532131 -206.66064453 127.79638672 C-206.94845582 131.71535139 -207.14622955 135.62703659 -207.25830078 139.55419922 C-207.28021484 140.28719238 -207.30212891 141.02018555 -207.32470703 141.77539062 C-208.28148633 179.81534092 -204.25757195 225.16965409 -177.25830078 254.55419922 C-176.51064453 255.39337891 -175.76298828 256.23255859 -174.99267578 257.09716797 C-159.04688203 274.09744163 -135.37869557 282.67238792 -112.39501953 283.6796875 C-83.05774304 284.57952073 -56.04701729 280.57273723 -33.74267578 259.96044922 C-32.92283203 259.16638672 -32.10298828 258.37232422 -31.25830078 257.55419922 C-30.71044922 257.04276367 -30.16259766 256.53132813 -29.59814453 256.00439453 C-25.22995452 251.82416041 -21.87882528 247.47391212 -18.75830078 242.30419922 C-18.28835693 241.5277002 -17.81841309 240.75120117 -17.33422852 239.95117188 C-3.56197935 216.38411611 1.01211268 187.50026219 1.74169922 160.55419922 C1.77457031 159.35537109 1.77457031 159.35537109 1.80810547 158.13232422 C2.6801436 119.76264666 -1.22402633 77.44128046 -26.25830078 46.55419922 C-26.88349609 45.76529297 -27.50869141 44.97638672 -28.15283203 44.16357422 C-42.762492 26.66768815 -65.17145559 18.31376155 -87.25830078 15.55419922 C-117.07223177 14.0890321 -145.51021689 16.74273464 -169.25830078 36.55419922 Z " fill="#FFFFFF" transform="translate(874.25830078125,1878.44580078125)"/>
<path d="M0 0 C36.83363687 33.33425169 51.14676395 79.91903805 54.75 128.3125 C54.86155647 130.87829889 54.94793676 133.4333421 55 136 C55.02046387 136.8161377 55.04092773 137.63227539 55.06201172 138.47314453 C55.74068627 169.33881427 52.51737432 199.56663868 43 229 C42.65630371 230.06806885 42.65630371 230.06806885 42.30566406 231.15771484 C34.86768488 253.72534253 22.3800594 272.98109273 6 290 C5.14728516 290.94746094 5.14728516 290.94746094 4.27734375 291.9140625 C-11.01279065 308.4164582 -33.57748815 319.21387066 -55 325 C-55.72751465 325.19674316 -56.4550293 325.39348633 -57.20458984 325.59619141 C-99.38285774 336.64088675 -148.75236357 333.06504594 -187.0390625 311.375 C-222.17604662 290.67202248 -245.08888048 256.34924252 -255.39916992 217.28759766 C-260.03183854 199.06968929 -263.12036707 180.75594058 -263.203125 161.9296875 C-263.20882507 160.8909549 -263.21452515 159.85222229 -263.22039795 158.78201294 C-263.22979504 156.58857217 -263.23636072 154.39511763 -263.24023438 152.20166016 C-263.24983165 148.93234737 -263.28086135 145.66369414 -263.3125 142.39453125 C-263.5563286 94.01761383 -251.21837059 45.33107296 -218 9 C-217.21238281 8.12988281 -216.42476562 7.25976562 -215.61328125 6.36328125 C-162.69574982 -49.35319399 -56.68707937 -49.94516945 0 0 Z M-172 36 C-173.24716797 37.10794922 -173.24716797 37.10794922 -174.51953125 38.23828125 C-201.65960924 63.71076613 -207.37177185 103.71773102 -208.88183594 139.02734375 C-210.0638809 178.76750003 -205.39934207 222.67259048 -178.4765625 253.9296875 C-160.84096213 272.59963393 -136.3272199 281.44486101 -110.96875 282.22265625 C-82.53942089 282.76368796 -54.60982625 277.91919884 -33.33203125 257.48828125 C-24.42607982 247.98561615 -18.28910053 237.85275729 -13 226 C-12.52820312 224.96617187 -12.05640625 223.93234375 -11.5703125 222.8671875 C-5.4151754 208.22484273 -2.56178387 191.74496069 -1 176 C-0.88914062 174.99582031 -0.77828125 173.99164062 -0.6640625 172.95703125 C3.27615435 130.09386143 0.11414804 78.63829849 -28.37890625 44 C-43.69724747 26.46723389 -65.75436057 15.77862491 -89 14 C-118.78991779 12.56475303 -148.92785481 15.06345834 -172 36 Z " fill="#FFFFFF" transform="translate(2842,1880)"/>
<path d="M0 0 C152.71940623 0 152.71940623 0 170.9375 5.5625 C171.75395996 5.81080566 172.57041992 6.05911133 173.41162109 6.31494141 C186.88301783 10.66413778 199.47085879 17.52182667 210 27 C210.72832031 27.57621094 211.45664063 28.15242188 212.20703125 28.74609375 C231.71063906 44.62906683 242.45361634 71.46212114 245 96 C248.16803827 128.53331605 243.22475922 160.28125485 222.8125 186.5625 C210.57852584 201.09422565 193.38572699 212.01083703 175 217 C173.68 217 172.36 217 171 217 C171.40613525 217.60134766 171.81227051 218.20269531 172.23071289 218.82226562 C197.72775865 256.64437247 220.41186562 295.83080371 240.9375 336.5625 C241.29496307 337.26779846 241.65242615 337.97309692 242.02072144 338.69976807 C243.0294754 340.69377649 244.02976516 342.69178817 245.02734375 344.69140625 C245.60218506 345.83810791 246.17702637 346.98480957 246.76928711 348.16625977 C248 351 248 351 248 354 C229.19 354 210.38 354 191 354 C188.03 347.4 185.06 340.8 182 334 C174.71978255 318.8571477 166.6209411 304.41534414 158 290 C157.51917969 289.18789062 157.03835938 288.37578125 156.54296875 287.5390625 C146.81079823 271.10375435 136.23779874 255.08021496 124.44140625 240.046875 C123 238 123 238 123 236 C99.57 236 76.14 236 52 236 C52 274.94 52 313.88 52 354 C34.84 354 17.68 354 0 354 C0 237.18 0 120.36 0 0 Z M52 48 C52 94.2 52 140.4 52 188 C115.3709009 192.82640898 115.3709009 192.82640898 174.01171875 168.1484375 C189.33280439 151.59323691 192.84540263 131.83513869 192.34765625 110.08984375 C191.55067951 91.62226435 184.37226943 76.56918621 171 64 C168.13606896 61.68135385 165.22046348 59.78285764 162 58 C161.25621094 57.56300781 160.51242187 57.12601563 159.74609375 56.67578125 C148.32026198 50.4075737 134.98254432 47.82049717 122.04516602 47.88647461 C121.27117179 47.88635407 120.49717756 47.88623354 119.69972897 47.88610935 C117.21775785 47.88685012 114.73586376 47.89443986 112.25390625 47.90234375 C110.71219926 47.90381576 109.17049177 47.90483488 107.62878418 47.90539551 C101.94001512 47.91061832 96.25125679 47.92457958 90.5625 47.9375 C71.4740625 47.9684375 71.4740625 47.9684375 52 48 Z " fill="#FFFFFF" transform="translate(1454,1851)"/>
<path d="M0 0 C1.07461739 0.00539291 1.07461739 0.00539291 2.17094421 0.01089478 C2.92211517 0.01074875 3.67328613 0.01060272 4.44721985 0.01045227 C6.94166404 0.01115153 9.43603448 0.01894452 11.9304657 0.02676392 C13.65539509 0.02862805 15.38032501 0.03005197 17.10525513 0.03105164 C21.65418448 0.03487719 26.20308211 0.04470779 30.7519989 0.05575562 C35.39025951 0.06596893 40.02852522 0.07054908 44.66679382 0.07559204 C53.77422967 0.08633003 62.88164192 0.1034069 71.98905945 0.12442017 C75.99459132 7.88656253 79.59812832 15.70079831 82.82499695 23.81582642 C83.26138992 24.90260178 83.6977829 25.98937714 84.1473999 27.10908508 C85.55930654 30.63253004 86.96249175 34.15935086 88.36405945 37.68692017 C88.84915985 38.90415771 89.33426025 40.12139526 89.83406067 41.3755188 C98.91243413 64.16050597 107.66750779 87.05190328 115.98905945 110.12442017 C116.29333862 110.96549316 116.5976178 111.80656616 116.91111755 112.67312622 C186.98905945 306.50296537 186.98905945 306.50296537 186.98905945 354.12442017 C168.83905945 354.12442017 150.68905945 354.12442017 131.98905945 354.12442017 C130.25759609 349.79576176 129.10117689 345.67920739 128.10624695 341.15957642 C127.7437117 339.55178925 127.38099245 337.94404356 127.01811218 336.33633423 C126.82981842 335.4955835 126.64152466 334.65483276 126.44752502 333.78860474 C123.08381568 318.7897581 119.47216066 303.89399773 115.37724304 289.07778931 C115.06222839 287.93302124 114.74721375 286.78825317 114.4226532 285.60879517 C114.14477966 284.61589478 113.86690613 283.62299438 113.58061218 282.6000061 C112.98905945 280.12442017 112.98905945 280.12442017 112.98905945 277.12442017 C60.51905945 277.12442017 8.04905945 277.12442017 -46.01094055 277.12442017 C-46.67094055 280.75442017 -47.33094055 284.38442017 -48.01094055 288.12442017 C-48.51820071 290.4574642 -49.04503095 292.7864166 -49.59907532 295.10879517 C-49.89600784 296.35958862 -50.19294037 297.61038208 -50.49887085 298.89907837 C-50.81659286 300.22421707 -51.13442062 301.54933043 -51.4523468 302.87442017 C-51.78361432 304.26393529 -52.11465979 305.65350337 -52.44549561 307.04312134 C-53.13371328 309.93117109 -53.82386287 312.8187494 -54.51557922 315.70596313 C-55.40175131 319.40507578 -56.28409869 323.10508754 -57.16516209 326.80541992 C-57.84606156 329.66409551 -58.52838873 332.5224287 -59.21121025 335.38064575 C-59.53725603 336.74572352 -59.86298936 338.11087595 -60.18840218 339.47610474 C-60.64163243 341.37613074 -61.09686937 343.27567774 -61.55220032 345.17520142 C-61.81042068 346.25454956 -62.06864105 347.33389771 -62.33468628 348.44595337 C-63.01094055 351.12442017 -63.01094055 351.12442017 -64.01094055 354.12442017 C-82.16094055 354.12442017 -100.31094055 354.12442017 -119.01094055 354.12442017 C-118.32506447 348.63741153 -117.52038559 343.46743427 -116.25312805 338.12442017 C-116.07377716 337.35684891 -115.89442627 336.58927765 -115.7096405 335.79844666 C-115.10809804 333.2388849 -114.49815667 330.68144909 -113.88594055 328.12442017 C-113.6711908 327.22460419 -113.45644104 326.32478821 -113.23518372 325.39770508 C-103.22362164 283.59820671 -91.67136517 242.19471144 -79.01094055 201.12442017 C-78.74257385 200.25226868 -78.47420715 199.38011719 -78.19770813 198.48153687 C-65.71418838 157.95379949 -52.23194792 117.71037601 -37.01094055 78.12442017 C-36.67300476 77.24529968 -36.33506897 76.3661792 -35.9868927 75.4604187 C-28.04207089 54.81692102 -20.00497009 34.21075536 -11.44844055 13.81192017 C-11.17250061 13.15308838 -10.89656067 12.49425659 -10.61225891 11.81546021 C-5.65619084 0.01197565 -5.65619084 0.01197565 0 0 Z M31.98905945 39.12442017 C10.89094942 88.52504269 -6.04645711 140.0038791 -21.82344055 191.31192017 C-22.1604599 192.40725067 -22.49747925 193.50258118 -22.8447113 194.63110352 C-23.80696311 197.76684748 -24.76388994 200.90415036 -25.7179718 204.04238892 C-25.99328735 204.94356445 -26.26860291 205.84473999 -26.55226135 206.77322388 C-28.89112239 214.52004764 -30.92204836 222.29107444 -33.01094055 230.12442017 C10.87905945 230.12442017 54.76905945 230.12442017 99.98905945 230.12442017 C98.16037723 222.80969129 96.32610451 215.63259526 94.08280945 208.45645142 C93.8061998 207.56391663 93.52959015 206.67138184 93.24459839 205.75180054 C92.3309484 202.8119641 91.41089785 199.87419877 90.48905945 196.93692017 C90.16603851 195.90598236 89.84301758 194.87504456 89.51020813 193.81286621 C73.14893245 141.68037276 56.02054061 89.59185469 34.98905945 39.12442017 C33.99905945 39.12442017 33.00905945 39.12442017 31.98905945 39.12442017 Z " fill="#FFFFFF" transform="translate(1857.0109405517578,1850.8755798339844)"/>
<path d="M0 0 C147.41306818 0 147.41306818 0 165.1875 5.6875 C166.00299316 5.94241211 166.81848633 6.19732422 167.65869141 6.45996094 C181.91944316 11.09090147 194.24224763 17.73722177 206 27 C206.81855469 27.63421875 207.63710938 28.2684375 208.48046875 28.921875 C231.59012968 48.06403662 242.30230392 78.39059543 245.1875 107.375 C248.53437373 144.70909394 242.58771153 183.44162456 218 213 C203.58125445 229.58471939 184.73174161 240.06948166 163.8125 246.3125 C163.06145996 246.54291992 162.31041992 246.77333984 161.53662109 247.01074219 C158.70742759 247.79730303 155.8784477 248.41580005 153 249 C152.34793579 249.13336761 151.69587158 249.26673523 151.02404785 249.40414429 C131.13131954 253.25961977 110.78255972 252.32969095 90.625 252.1875 C78.20875 252.125625 65.7925 252.06375 53 252 C53 285.66 53 319.32 53 354 C35.51 354 18.02 354 0 354 C0 237.18 0 120.36 0 0 Z M53 48 C53 99.48 53 150.96 53 204 C117.23260189 208.68342221 117.23260189 208.68342221 173.6796875 183.41015625 C190.98919456 165.43041575 192.58310544 141.41240069 192.26953125 117.7890625 C191.8959113 99.21126942 186.41287526 81.51779624 173.1328125 68.03515625 C172.07707031 67.02775391 172.07707031 67.02775391 171 66 C170.46117187 65.44183594 169.92234375 64.88367187 169.3671875 64.30859375 C141.86494528 37.84286819 78.31968351 48 53 48 Z " fill="#FFFFFF" transform="translate(319,1851)"/>
<path d="M0 0 C176.85198556 0 176.85198556 0 213 34 C213.60457031 34.52851562 214.20914062 35.05703125 214.83203125 35.6015625 C229.44165267 48.94524483 237.47174114 69.19390712 242 88 C242.2477417 88.98589111 242.2477417 88.98589111 242.50048828 89.99169922 C245.33926903 101.85469096 245.31185346 113.93438997 245.375 126.0625 C245.38294586 126.86239349 245.39089172 127.66228699 245.39907837 128.48641968 C245.51493534 143.69405823 243.84411775 158.55183739 239.3125 173.125 C239.05903809 173.94991943 238.80557617 174.77483887 238.54443359 175.62475586 C230.03103417 202.14294812 211.686953 223.9840521 187.0546875 236.96875 C177.5374895 241.80632053 167.92095449 245.21753615 157.5625 247.75 C156.75337158 247.94883789 155.94424316 248.14767578 155.1105957 248.35253906 C140.82592635 251.6296516 126.73629363 252.28964113 112.15625 252.1953125 C110.60384262 252.19236077 109.05143322 252.19032732 107.49902344 252.18920898 C101.83265133 252.17885254 96.16632223 252.15093125 90.5 252.125 C77.795 252.08375 65.09 252.0425 52 252 C52 285.66 52 319.32 52 354 C34.84 354 17.68 354 0 354 C0 237.18 0 120.36 0 0 Z M52 48 C52 99.48 52 150.96 52 204 C116.55768015 208.59054378 116.55768015 208.59054378 173.30078125 183.94921875 C190.18352428 166.54196332 192.44521674 142.66090228 192.2109375 119.61328125 C191.73876315 99.10867307 185.77655979 81.48505987 171.6875 66.25 C141.3392676 37.67891635 86.02132981 48 52 48 Z " fill="#FFFFFF" transform="translate(1004,1851)"/>
<path d="M0 0 C17.16 0 34.32 0 52 0 C52 116.82 52 233.64 52 354 C34.84 354 17.68 354 0 354 C0 237.18 0 120.36 0 0 Z " fill="#FFFFFF" transform="translate(2453,1851)"/>
</svg>
