<?xml version="1.0" encoding="utf-8"?>
<!-- Generator: Adobe Illustrator 27.8.1, SVG Export Plug-In . SVG Version: 6.00 Build 0)  -->
<svg version="1.1" id="Groupe_52181" xmlns="http://www.w3.org/2000/svg" xmlns:xlink="http://www.w3.org/1999/xlink" x="0px"
	 y="0px" viewBox="0 0 220.1 64.3" style="enable-background:new 0 0 220.1 64.3;" xml:space="preserve">
<style type="text/css">
	.st0{clip-path:url(#SVGID_00000035491696323170731320000009873591887005475974_);}
	.st1{fill:#FBFBFB;}
	.st2{fill:#FFFFFF;}
	.st3{fill:#003282;}
</style>
<g id="Groupe_52182">
	<g>
		<defs>
			<rect id="SVGID_1_" y="0" width="220.1" height="64.3"/>
		</defs>
		<clipPath id="SVGID_00000093159548526398741070000001325235742196855971_">
			<use xlink:href="#SVGID_1_"  style="overflow:visible;"/>
		</clipPath>
		<g id="Groupe_52181-2" style="clip-path:url(#SVGID_00000093159548526398741070000001325235742196855971_);">
			<path id="Tracé_28256" class="st1" d="M4.5,22.5l15.3-1.6l-1.4,12.8L28.6,20l15.8-1.6L29.4,37.7l11.5,20l-17.4,1.8L17,46.9
				l-1.4,13.5L0.2,61.9L4.5,22.5z"/>
			<path id="Tracé_28257" class="st2" d="M44,18.6L29.1,37.7l11.4,19.9l-17,1.8l-6.7-13.2l-1.5,14L0.5,61.7l4.2-39l14.8-1.5
				l-1.4,13.3l10.7-14.3L44,18.6z M45,18.1l-1,0.1l-15.2,1.6l-0.2,0l-0.1,0.2l-9.7,13L20,21.2l0.1-0.5l-0.5,0.1L4.6,22.2l-0.4,0
				l0,0.4l-4.2,39L0,62.2l0.5-0.1l14.8-1.5l0.4,0l0-0.4l1.4-12.6l6.1,11.9l0.1,0.3l0.3,0l17-1.8l0.7-0.1l-0.3-0.6L29.7,37.7
				l14.7-18.8L45,18.1z"/>
			<path id="Tracé_28258" class="st2" d="M47,18.1l15.4-1.6L58.2,56l-15.4,1.6L47,18.1z"/>
			<path id="Tracé_28259" class="st2" d="M62.2,16.7l-4.2,39l-15,1.5l4.2-39L62.2,16.7z M62.7,16.2l-0.5,0.1l-15,1.5l-0.4,0l0,0.4
				l-4.2,39l-0.1,0.5l0.5-0.1l15-1.5l0.4,0l0-0.4l4.2-39L62.7,16.2z"/>
			<path id="Tracé_28260" class="st2" d="M75,54.8c-5,0-8.5-1.2-10.6-3.5c-1.8-2-2.6-4.9-2.2-8.5l0-0.2l14.4-1.5l0,0.3
				c-0.1,0.7,0.1,1.4,0.6,2c0.6,0.5,1.4,0.8,2.2,0.7c0.3,0,0.5,0,0.8,0c2.6-0.3,3-1.4,3.1-2.2c0.1-0.3,0-0.6-0.2-0.9
				c-0.5-0.5-1.6-0.8-3.8-0.8c-7.1,0-11-1-13-3.4c-1.6-1.7-2.1-4.3-1.7-8c0.9-8,8.1-13.9,18.3-15c1.2-0.1,2.3-0.2,3.5-0.2
				c4.4,0,7.4,1,9.4,3.1c1.9,1.9,2.7,4.7,2.6,8.6l0,0.2l-14.1,1.5l0-0.3c0.1-0.6-0.1-1.3-0.5-1.8c-0.4-0.4-1-0.6-1.6-0.6
				c-0.1,0-0.3,0-0.4,0c-1.6,0.2-2.6,0.9-2.7,1.9c-0.1,0.3,0,0.7,0.2,0.9c0.4,0.5,1.6,0.7,3.6,0.7H83h0.7c6.7,0,10.5,1,12.6,3.3
				c1.6,1.7,2.1,4.2,1.8,7.6c-0.5,4-2.4,7.6-5.4,10.2c-3.8,3.2-8.5,5.1-13.5,5.5C77.7,54.7,76.3,54.8,75,54.8"/>
			<path id="Tracé_28261" class="st2" d="M86.2,13.8c8.1,0,12.1,3.6,11.8,11.4l-13.7,1.4c0.2-1.2-0.6-2.3-1.7-2.5
				c-0.2,0-0.4,0-0.6,0c-0.1,0-0.3,0-0.4,0c-1.8,0.2-2.7,1-2.9,2.1c-0.1,1.3,0.8,1.9,4,1.9H83c0.2,0,0.5,0,0.7,0
				c9.3,0,15.1,1.8,14.1,10.7C97,46.2,90.5,53.2,79,54.3c-1.3,0.1-2.7,0.2-4.1,0.2c-8.7,0-13.4-3.6-12.6-11.8l14-1.4
				c-0.1,1.7,0.6,2.9,3,2.9c0.3,0,0.5,0,0.8,0c2.3-0.2,3.2-1.2,3.3-2.4c0.1-1.4-1-1.9-4.2-1.9c-11.7,0-15.4-2.8-14.5-11.1
				c0.8-7.6,7.6-13.7,18.1-14.8C83.9,13.9,85.1,13.8,86.2,13.8 M86.2,13.4c-1.2,0-2.3,0.1-3.5,0.2c-10.4,1.1-17.7,7-18.5,15.2
				c-0.4,3.8,0.2,6.4,1.8,8.2c2.1,2.4,6.1,3.4,13.2,3.4c2.1,0,3.2,0.3,3.6,0.7c0.2,0.2,0.2,0.5,0.2,0.7c-0.1,0.7-0.5,1.8-2.9,2
				c-0.3,0-0.5,0-0.8,0c-0.7,0.1-1.5-0.2-2.1-0.7c-0.4-0.5-0.6-1.2-0.5-1.8l0-0.5l-0.5,0.1l-14,1.4l-0.4,0l0,0.4
				c-0.4,3.7,0.4,6.7,2.3,8.7C66.3,53.8,69.9,55,75,55c1.4,0,2.7-0.1,4.1-0.2c5-0.4,9.8-2.3,13.6-5.5c3.1-2.7,5-6.4,5.5-10.4
				c0.4-3.4-0.2-6-1.8-7.8c-2.1-2.4-5.9-3.4-12.7-3.4c-0.2,0-0.5,0-0.7,0h-0.2c-1.9,0-3-0.2-3.4-0.7c-0.2-0.2-0.2-0.5-0.2-0.7
				c0.1-1.3,1.6-1.7,2.5-1.7c0.1,0,0.3,0,0.4,0c0.5,0,1,0.1,1.4,0.5c0.4,0.4,0.5,1,0.5,1.6l0,0.5l0.5-0.1l13.7-1.4l0.4,0l0-0.4
				c0.1-3.8-0.8-6.8-2.7-8.7C93.8,14.4,90.6,13.4,86.2,13.4"/>
			<path id="Tracé_28262" class="st2" d="M110.7,51.1c-5,0-8.5-1.2-10.6-3.5c-1.8-2-2.5-4.9-2.2-8.5l0-0.2l14.4-1.5l0,0.3
				c-0.1,0.7,0.1,1.4,0.6,2c0.6,0.5,1.4,0.8,2.2,0.7c0.3,0,0.5,0,0.8,0c2.6-0.3,3-1.4,3.1-2.2c0.1-0.3,0-0.6-0.2-0.9
				c-0.5-0.5-1.6-0.8-3.8-0.8c-7,0-11-1-13-3.4c-1.6-1.7-2.1-4.3-1.7-8c0.9-8,8.1-13.9,18.3-15c1.2-0.1,2.3-0.2,3.5-0.2
				c4.4,0,7.4,1,9.4,3.1c1.9,1.9,2.7,4.7,2.6,8.6l0,0.2l-14.1,1.5l0-0.3c0.1-0.6-0.1-1.3-0.5-1.8c-0.4-0.4-1-0.6-1.6-0.6
				c-0.1,0-0.3,0-0.4,0c-1.6,0.2-2.6,0.9-2.7,1.9c-0.1,0.3,0,0.7,0.2,0.9c0.4,0.5,1.6,0.7,3.6,0.7h0.2h0.7c6.7,0,10.5,1,12.6,3.3
				c1.6,1.7,2.1,4.2,1.8,7.6c-0.5,4-2.4,7.6-5.4,10.2c-3.8,3.2-8.5,5.1-13.5,5.5C113.5,51,112.1,51.1,110.7,51.1"/>
			<path id="Tracé_28263" class="st2" d="M122,10.1c8.1,0,12.1,3.6,11.8,11.4l-13.7,1.4c0.2-1.2-0.6-2.3-1.7-2.5
				c-0.2,0-0.4,0-0.6,0c-0.1,0-0.3,0-0.4,0c-1.8,0.2-2.7,1-2.9,2.1c-0.1,1.3,0.8,1.9,4,1.9h0.2h0.7c9.3,0,15.1,1.8,14.1,10.7
				c-0.8,7.4-7.3,14.4-18.7,15.5c-1.4,0.1-2.7,0.2-4.1,0.2c-8.7,0-13.4-3.6-12.6-11.8l14-1.4c-0.1,1.7,0.6,2.9,3,2.9
				c0.3,0,0.5,0,0.8,0c2.3-0.2,3.2-1.2,3.3-2.4c0.1-1.4-1-1.9-4.2-1.9c-11.7,0-15.4-2.8-14.5-11.1c0.8-7.6,7.6-13.7,18.1-14.8
				C119.7,10.2,120.8,10.1,122,10.1 M122,9.7c-1.2,0-2.3,0.1-3.5,0.2c-10.4,1.1-17.7,7-18.5,15.2c-0.4,3.8,0.2,6.4,1.8,8.2
				c2.1,2.4,6.1,3.4,13.2,3.4c2.1,0,3.2,0.3,3.6,0.7c0.2,0.2,0.2,0.5,0.2,0.7c-0.1,0.7-0.5,1.8-2.9,2c-0.3,0-0.5,0-0.8,0
				c-0.7,0.1-1.5-0.2-2.1-0.7c-0.4-0.5-0.6-1.2-0.5-1.8l0-0.5l-0.5,0.1l-14,1.4l-0.4,0l0,0.4c-0.4,3.7,0.4,6.7,2.3,8.7
				c2.1,2.4,5.8,3.6,10.8,3.6c1.4,0,2.7-0.1,4.1-0.2c5-0.4,9.8-2.3,13.6-5.5c3.1-2.7,5-6.4,5.5-10.4c0.4-3.4-0.2-6-1.8-7.8
				C130,25,126.2,24,119.4,24c-0.2,0-0.5,0-0.7,0h-0.2c-1.9,0-3-0.2-3.4-0.7c-0.2-0.2-0.2-0.5-0.2-0.7c0.1-1.3,1.6-1.7,2.5-1.7
				c0.1,0,0.3,0,0.4,0c0.5,0,1,0.1,1.4,0.5c0.4,0.4,0.5,1,0.5,1.6l0,0.5l0.5-0.1l13.7-1.4l0.4,0l0-0.4c0.1-3.8-0.8-6.8-2.7-8.7
				C129.5,10.7,126.4,9.7,122,9.7"/>
			<path id="Tracé_28264" class="st2" d="M139,8.6l29.2-3L167,17.1l-13.9,1.4l-0.5,5l11.3-1.2l-1.2,11l-11.3,1.2l-1.3,11.9
				l-15.3,1.6L139,8.6z"/>
			<path id="Tracé_28265" class="st3" d="M168,5.8l-1.2,11.1l-13.9,1.4l-0.6,5.5l11.3-1.2l-1.1,10.5l-11.3,1.2l-1.3,11.9L135,47.8
				l4.2-39L168,5.8z M168.4,5.3l-0.5,0.1l-28.8,3l-0.4,0l0,0.4l-4.2,39l-0.1,0.5l0.5-0.1l14.8-1.5l0.4,0l0-0.4l1.2-11.5l10.9-1.1
				l0.4,0l0-0.4l1.1-10.5l0.1-0.5l-0.5,0.1l-10.8,1.1l0.5-4.6l13.6-1.4l0.4,0l0-0.4l1.2-11.1L168.4,5.3z"/>
			<path id="Tracé_28266" class="st2" d="M171,5.3l19.4-2l3.4,14.6l6.9-15.7l19.1-2l-4.2,39.5l-15.2,1.6l2.1-19.7l-9.6,20.5
				l-5.3,0.5l-5.1-19l-2.1,19.8l-13.6,1.4L171,5.3z"/>
			<path id="Tracé_28267" class="st3" d="M219.6,0.5l-4.2,39L200.6,41l2.2-20.7l-10.1,21.6l-5,0.5l-5.3-20l-2.2,20.7L167,44.5
				l4.2-39l19-2l3.5,15.1l7.1-16.2L219.6,0.5z M220,0l-0.5,0.1L200.8,2l-0.3,0l-0.1,0.2l-6.5,15l-3.2-13.8L190.6,3l-0.4,0l-19,2
				l-0.4,0l0,0.4l-4.2,39l-0.1,0.5l0.5-0.1l13.1-1.4l0.4,0l0-0.4l2-18.4l4.7,17.7l0.1,0.4l0.4,0l5-0.5l0.2,0l0.1-0.2l9-19.2l-2,18.2
				l-0.1,0.5l0.5-0.1l14.7-1.5l0.4,0l0-0.4l4.2-39L220,0z"/>
		</g>
	</g>
</g>
</svg>
